<svg width="32" height="33" viewBox="0 0 32 33" fill="none" xmlns="http://www.w3.org/2000/svg">
<path d="M25.36 17.8337H5.34667C4.34667 17.8337 3.53336 17.2337 3.53336 16.5003C3.53336 15.767 4.34667 15.167 5.34667 15.167H25.36C26.36 15.167 27.1733 15.767 27.1733 16.5003C27.1733 17.2337 26.36 17.8337 25.36 17.8337Z" fill="#494F55"/>
<path d="M20.6399 23.4871C20.3066 23.4871 19.9733 23.3538 19.7067 23.1004C19.2 22.5804 19.2 21.7404 19.7067 21.2204L24.3466 16.5138L19.7067 11.8071C19.2 11.2871 19.2 10.4471 19.7067 9.92711C20.2267 9.40711 21.0532 9.40711 21.5599 9.92711L27.1333 15.5804C27.3733 15.8338 27.52 16.1671 27.52 16.5271C27.52 16.8871 27.3866 17.2204 27.1333 17.4738L21.5599 23.1271C21.3199 23.3538 20.9733 23.4871 20.6399 23.4871Z" fill="#494F55"/>
</svg>
