<svg width="1300" height="234" viewBox="0 0 1300 234" fill="none" xmlns="http://www.w3.org/2000/svg">
<path d="M1292 0H8C3.58172 0 0 3.58172 0 8V49.2427C0 49.7291 0.185919 50.1971 0.519702 50.5509C34.1272 86.1749 34.1272 141.825 0.519704 177.449C0.185921 177.803 0 178.271 0 178.757V226C0 230.418 3.58169 234 7.99997 234H1292C1296.42 234 1300 230.418 1300 226V179.072C1300 178.384 1299.74 177.721 1299.26 177.22C1265.78 141.725 1265.78 86.2754 1299.26 50.7801C1299.74 50.2791 1300 49.6163 1300 48.9275V8C1300 3.58172 1296.42 0 1292 0Z" fill="url(#paint0_linear_627_12333)"/>
<defs>
<linearGradient id="paint0_linear_627_12333" x1="-238.359" y1="117" x2="843.667" y2="117" gradientUnits="userSpaceOnUse">
<stop stop-color="#D1D1D1"/>
<stop offset="1" stop-color="#F0F0F0"/>
</linearGradient>
</defs>
</svg>
