<svg width="16" height="16" viewBox="0 0 16 16" fill="none" xmlns="http://www.w3.org/2000/svg">
<path d="M15.5072 13.5072C15.548 13.7452 15.5189 13.99 15.4235 14.2118C15.3281 14.4336 15.1705 14.6231 14.9698 14.7572C14.7664 14.8939 14.5273 14.9678 14.2823 14.9697C14.1178 14.9707 13.9547 14.9391 13.8024 14.8769C13.6501 14.8147 13.5115 14.7231 13.3947 14.6072L8.00725 9.28223L2.64478 14.6448C2.4094 14.8802 2.09012 15.0124 1.75725 15.0124C1.42437 15.0124 1.1051 14.8802 0.86972 14.6448C0.634341 14.4094 0.502136 14.0901 0.502136 13.7572C0.502136 13.4244 0.634341 13.1051 0.86972 12.8697L6.23227 7.50725L0.86972 2.14478C0.75256 2.02857 0.659591 1.8903 0.59613 1.73798C0.53267 1.58565 0.5 1.42226 0.5 1.25725C0.5 1.09223 0.53267 0.928844 0.59613 0.77652C0.659591 0.624196 0.75256 0.485924 0.86972 0.36972C0.985924 0.25256 1.1242 0.159591 1.27652 0.0961304C1.42884 0.0326695 1.59223 0 1.75725 0C1.92226 0 2.08565 0.0326695 2.23798 0.0961304C2.3903 0.159591 2.52857 0.25256 2.64478 0.36972L8.00725 5.73227L13.3697 0.36972C13.6051 0.134341 13.9244 0.00213623 14.2572 0.00213623C14.5901 0.00213623 14.9094 0.134341 15.1448 0.36972C15.3802 0.6051 15.5124 0.924371 15.5124 1.25725C15.5124 1.59012 15.3802 1.9094 15.1448 2.14478L9.78223 7.50725L15.1448 12.8697C15.3266 13.0412 15.4529 13.2633 15.5072 13.5072Z" fill="#494F55"/>
</svg>
