<svg width="32" height="32" viewBox="0 0 32 32" fill="none" xmlns="http://www.w3.org/2000/svg">
<path d="M27.72 16.5602C25.44 20.7735 20.9467 25.0269 16.0133 25.0269C14.88 25.0269 13.7333 24.8002 12.5733 24.3469C11.96 24.1069 11.6533 23.4135 11.8933 22.8002C12.1333 22.1735 12.8266 21.8802 13.4533 22.1202C14.3333 22.4535 15.2 22.6402 16.0266 22.6402C19.3866 22.6402 23.3333 19.6802 25.6266 15.4269C25.08 14.4269 24.4 13.4402 23.6133 12.5202C23.1866 12.0135 23.24 11.2669 23.7466 10.8269C24.2533 10.4002 25 10.4535 25.44 10.9602C26.3466 12.0135 27.12 13.1335 27.7466 14.2935C28.1066 15.0002 28.1067 15.8535 27.72 16.5602Z" fill="#BFC2C5"/>
<path d="M25.2533 7.86691L19.52 13.6002L14.1733 18.9469L8.4533 24.6669C8.2133 24.9069 7.91999 25.0269 7.59999 25.0269C7.29332 25.0269 6.98664 24.9069 6.74664 24.6669C6.27997 24.2002 6.27997 23.4402 6.74664 22.9736L9.86663 19.8536L11.7333 17.9869L16.7466 12.9736L18.56 11.1602L20.1733 9.54691L21.92 7.80025L23.5466 6.18691C24.0133 5.72025 24.7866 5.72025 25.2533 6.18691C25.72 6.64025 25.72 7.40025 25.2533 7.86691Z" fill="#BFC2C5"/>
<path d="M18.5733 11.1604L16.76 12.9737C15.88 12.6937 14.88 12.9204 14.1867 13.6137C13.4934 14.307 13.28 15.307 13.5467 16.187L11.7467 17.987C10.6 16.067 10.84 13.547 12.4933 11.907C14.1333 10.2404 16.6667 10.0004 18.5733 11.1604Z" fill="#BFC2C5"/>
<path d="M21.9333 7.80004L20.1867 9.5467C18.7867 8.6667 17.36 8.2267 16.0133 8.2267C12.6533 8.2267 8.70666 11.1867 6.41332 15.44C7.31999 17.08 8.52 18.6267 9.88 19.8534L8.18668 21.5467C6.68001 20.16 5.30666 18.4267 4.29333 16.56C3.90666 15.8534 3.90666 15 4.29333 14.2934C6.57333 10.08 11.0667 5.84004 16 5.84004C17.96 5.8267 19.9733 6.5067 21.9333 7.80004Z" fill="#BFC2C5"/>
</svg>
