<svg width="32" height="32" viewBox="0 0 32 32" fill="none" xmlns="http://www.w3.org/2000/svg">
<path d="M16 25.4803C11.0667 25.4803 6.55999 21.2269 4.29333 17.0136C3.90666 16.3069 3.90666 15.4669 4.29333 14.7469C6.57333 10.5336 11.08 6.28027 16.0133 6.28027C20.9466 6.28027 25.4533 10.5336 27.72 14.7469C28.1066 15.4536 28.1066 16.3069 27.72 17.0136C25.44 21.2269 20.9333 25.4803 16 25.4803ZM6.41332 15.8803C8.70666 20.1203 12.6533 23.0803 16.0133 23.0803C19.3733 23.0803 23.32 20.1203 25.6133 15.8669C23.32 11.6403 19.3733 8.68027 16.0133 8.68027C12.6533 8.68027 8.70666 11.6403 6.41332 15.8803Z" fill="#BFC2C5"/>
<path d="M16 20.6801C13.36 20.6801 11.2 18.5334 11.2 15.8801C11.2 13.2267 13.3467 11.0801 16 11.0801C18.64 11.0801 20.8 13.2267 20.8 15.8801C20.8 18.5334 18.6533 20.6801 16 20.6801ZM16 13.4801C14.68 13.4801 13.6 14.5601 13.6 15.8801C13.6 17.2001 14.68 18.2801 16 18.2801C17.32 18.2801 18.4 17.2001 18.4 15.8801C18.4 14.5601 17.3333 13.4801 16 13.4801Z" fill="#BFC2C5"/>
</svg>
