<svg width="405" height="235" viewBox="0 0 405 235" fill="none" xmlns="http://www.w3.org/2000/svg">
<rect width="405" height="235" rx="8" fill="#EEEEEE"/>
<path fill-rule="evenodd" clip-rule="evenodd" d="M217 22H129V214H276V71V68L220 22H217ZM217 22V71H276L217 22Z" fill="#BABABA"/>
<path d="M156.893 171.446C157.421 172.076 157.805 172.739 158.046 173.437C158.296 174.146 158.402 174.842 158.363 175.526C158.345 176.211 158.178 176.868 157.863 177.496C157.559 178.115 157.12 178.665 156.547 179.146L155.519 180.009L154.205 178.613L154.98 177.963C155.519 177.51 155.909 177.039 156.15 176.55C156.389 176.082 156.513 175.614 156.522 175.146C156.543 174.669 156.464 174.209 156.284 173.767C156.113 173.335 155.873 172.934 155.562 172.564L151.701 167.963L153.083 166.803L154.935 169.011C155.247 169.382 155.61 169.575 156.025 169.59C156.442 169.585 156.847 169.418 157.24 169.088L157.425 168.932C157.672 168.725 157.999 168.862 158.404 169.346C158.828 169.851 158.917 170.208 158.67 170.415L158.484 170.571C158.237 170.778 157.952 170.94 157.63 171.058C157.307 171.176 156.963 171.187 156.596 171.092L156.893 171.446ZM158.952 167.651C159.357 167.311 159.582 166.941 159.627 166.539C159.684 166.127 159.547 165.725 159.218 165.332L157.407 163.174L158.789 162.015L160.656 164.239C161.373 165.093 161.694 165.944 161.62 166.791C161.547 167.618 161.107 168.37 160.298 169.049L158.663 170.421C158.517 170.543 158.374 170.567 158.235 170.493C158.075 170.416 157.896 170.26 157.698 170.024C157.472 169.754 157.335 169.534 157.288 169.363C157.229 169.202 157.272 169.06 157.419 168.938L158.952 167.651ZM165.322 170.519L163.839 171.764L162.651 170.348L164.134 169.104L165.322 170.519ZM163.03 172.442L161.53 173.701L160.343 172.285L161.842 171.027L163.03 172.442ZM168.433 166.674C168.894 166.287 169.237 165.875 169.463 165.436C169.698 165.009 169.829 164.584 169.856 164.159C169.894 163.725 169.843 163.299 169.702 162.881C169.562 162.462 169.352 162.064 169.073 161.686L167.64 162.888C167.067 163.369 166.544 163.703 166.069 163.89C165.595 164.078 165.152 164.143 164.74 164.086C164.329 164.03 163.937 163.87 163.564 163.609C163.193 163.326 162.829 162.972 162.47 162.545C162.112 162.118 161.834 161.662 161.638 161.176C161.431 160.679 161.323 160.185 161.314 159.695C161.305 159.205 161.404 158.73 161.611 158.269C161.819 157.787 162.16 157.349 162.632 156.953C163.002 156.642 163.408 156.407 163.849 156.247C164.301 156.079 164.769 156.021 165.254 156.074C165.729 156.115 166.219 156.288 166.723 156.592C167.239 156.887 167.751 157.338 168.26 157.945L169.194 159.057L170.693 157.799C170.828 157.686 170.97 157.672 171.119 157.758C171.269 157.823 171.448 157.979 171.655 158.226C171.872 158.485 172.004 158.699 172.052 158.87C172.111 159.031 172.073 159.169 171.938 159.282L170.404 160.569C170.844 161.138 171.17 161.755 171.382 162.419C171.606 163.073 171.699 163.732 171.662 164.395C171.625 165.058 171.449 165.704 171.134 166.332C170.828 166.972 170.372 167.546 169.765 168.055L168.012 169.526L166.681 168.144L168.433 166.674ZM163.714 161.357C164.12 161.841 164.524 162.095 164.928 162.12C165.334 162.124 165.868 161.848 166.531 161.292L167.862 160.174L166.985 159.13C166.391 158.422 165.827 158.034 165.291 157.966C164.758 157.878 164.244 158.041 163.749 158.456C163.289 158.843 163.056 159.296 163.053 159.816C163.051 160.316 163.271 160.829 163.714 161.357ZM175.07 154.068C174.828 152.798 174.665 151.68 174.583 150.715C174.491 149.739 174.488 148.89 174.572 148.169C174.646 147.436 174.799 146.82 175.03 146.319C175.261 145.819 175.573 145.404 175.967 145.074C176.405 144.706 176.874 144.456 177.375 144.323C177.888 144.18 178.39 144.151 178.882 144.236C179.386 144.311 179.87 144.489 180.335 144.769C180.811 145.04 181.237 145.4 181.614 145.849C181.982 146.287 182.224 146.793 182.341 147.365C182.705 147.366 183.029 147.285 183.314 147.122C183.59 146.949 183.874 146.739 184.166 146.494L184.402 146.296C184.649 146.089 184.975 146.227 185.38 146.71C185.805 147.215 185.893 147.572 185.646 147.779L185.41 147.977C185.242 148.119 185.067 148.265 184.888 148.416C184.71 148.546 184.512 148.664 184.295 148.77C184.068 148.864 183.827 148.942 183.571 149.003C183.307 149.053 183.004 149.058 182.664 149.017C182.595 149.459 182.442 149.893 182.207 150.32C181.983 150.738 181.646 151.135 181.197 151.513L176.579 155.387C176.152 155.745 175.692 156.007 175.199 156.172C174.717 156.328 174.179 156.291 173.584 156.062C173.684 156.706 173.621 157.247 173.395 157.685C173.17 158.124 172.86 158.508 172.467 158.838L171.945 159.276C171.799 159.399 171.656 159.423 171.517 159.348C171.357 159.272 171.178 159.115 170.98 158.879C170.754 158.61 170.617 158.39 170.569 158.219C170.51 158.058 170.554 157.916 170.7 157.793L171.256 157.326C172.155 156.572 172.26 155.785 171.572 154.965L169.762 152.808L171.144 151.648L172.954 153.805C173.256 154.165 173.593 154.361 173.965 154.393C174.338 154.405 174.707 154.297 175.07 154.068ZM180.215 147.023C180.017 146.787 179.79 146.595 179.532 146.448C179.274 146.3 179.006 146.209 178.728 146.175C178.461 146.13 178.189 146.148 177.911 146.228C177.624 146.297 177.357 146.435 177.11 146.642C176.604 147.066 176.292 147.778 176.174 148.778C176.066 149.768 176.163 151.161 176.464 152.957L180.003 149.987C180.43 149.629 180.692 149.188 180.79 148.666C180.878 148.132 180.687 147.585 180.215 147.023ZM185.943 145.003C186.348 144.663 186.573 144.292 186.618 143.89C186.675 143.479 186.539 143.077 186.209 142.683L184.399 140.526L185.78 139.367L187.647 141.591C188.364 142.445 188.685 143.296 188.611 144.143C188.538 144.969 188.098 145.722 187.289 146.401L185.654 147.772C185.508 147.895 185.365 147.919 185.226 147.844C185.066 147.768 184.887 147.612 184.689 147.376C184.463 147.106 184.326 146.886 184.279 146.715C184.22 146.554 184.264 146.412 184.41 146.289L185.943 145.003ZM184.159 137.195L182.625 138.482L181.438 137.066L182.971 135.779L184.159 137.195ZM181.901 139.09L180.367 140.377L179.179 138.961L180.713 137.674L181.901 139.09ZM196.834 131.384C197.409 131.476 197.906 131.633 198.323 131.857C198.732 132.07 199.068 132.334 199.332 132.648C199.586 132.952 199.766 133.28 199.87 133.632C199.975 133.985 200 134.346 199.947 134.717C199.905 135.077 199.774 135.446 199.554 135.822C199.333 136.198 199.021 136.556 198.617 136.896L193.999 140.77L192.67 139.358L197.17 135.582C197.529 135.281 197.739 134.971 197.798 134.653C197.847 134.325 197.764 134.031 197.547 133.773C197.302 133.481 196.932 133.302 196.438 133.238L190.567 132.334L190.798 130.418L196.834 131.384ZM206.583 134.662C207.044 134.276 207.387 133.863 207.613 133.425C207.848 132.998 207.979 132.572 208.005 132.148C208.043 131.714 207.992 131.288 207.852 130.869C207.711 130.451 207.502 130.053 207.222 129.674L205.79 130.876C205.217 131.357 204.693 131.691 204.219 131.879C203.744 132.066 203.301 132.132 202.89 132.075C202.478 132.018 202.086 131.859 201.714 131.597C201.343 131.315 200.978 130.96 200.62 130.533C200.262 130.107 199.984 129.65 199.787 129.164C199.581 128.668 199.473 128.174 199.464 127.684C199.455 127.194 199.553 126.718 199.76 126.258C199.969 125.776 200.309 125.337 200.781 124.941C201.152 124.63 201.558 124.395 201.999 124.236C202.451 124.067 202.919 124.009 203.404 124.062C203.879 124.104 204.369 124.277 204.873 124.581C205.388 124.876 205.901 125.327 206.41 125.934L207.343 127.046L208.843 125.787C208.978 125.674 209.12 125.661 209.268 125.746C209.419 125.812 209.598 125.968 209.805 126.215C210.022 126.473 210.154 126.688 210.202 126.859C210.26 127.02 210.222 127.157 210.087 127.27L208.554 128.557C208.993 129.127 209.319 129.743 209.532 130.407C209.756 131.062 209.849 131.721 209.812 132.384C209.775 133.047 209.598 133.693 209.283 134.321C208.977 134.96 208.521 135.535 207.914 136.044L206.162 137.514L204.83 136.133L206.583 134.662ZM201.864 129.346C202.269 129.829 202.674 130.083 203.078 130.108C203.483 130.112 204.017 129.836 204.68 129.28L206.012 128.163L205.135 127.118C204.541 126.41 203.976 126.023 203.441 125.955C202.907 125.867 202.393 126.03 201.899 126.445C201.438 126.831 201.206 127.285 201.202 127.805C201.2 128.304 201.421 128.818 201.864 129.346ZM214.128 122.215C213.986 122.639 213.827 123.032 213.65 123.391C213.473 123.75 213.254 124.106 212.994 124.458C212.746 124.8 212.445 125.149 212.091 125.503C211.737 125.857 211.313 126.242 210.819 126.657L210.094 127.265C209.948 127.387 209.805 127.411 209.666 127.337C209.506 127.26 209.327 127.104 209.129 126.868C208.903 126.598 208.766 126.378 208.719 126.208C208.66 126.046 208.704 125.904 208.85 125.782L209.625 125.131C210.052 124.773 210.419 124.446 210.726 124.15C211.044 123.845 211.32 123.546 211.554 123.254C211.788 122.962 211.99 122.668 212.162 122.371C212.324 122.062 212.473 121.726 212.609 121.363L213.904 117.807C213.645 117.68 213.409 117.581 213.196 117.511C212.986 117.42 212.766 117.374 212.537 117.375C212.308 117.376 212.074 117.428 211.836 117.532C211.598 117.636 211.332 117.811 211.04 118.056L207.366 121.139L206.223 119.571L209.998 116.403C210.302 116.149 210.638 115.934 211.007 115.758C211.388 115.572 211.812 115.485 212.28 115.494C212.758 115.495 213.3 115.615 213.903 115.855C214.507 116.095 215.189 116.509 215.95 117.096L214.128 122.215ZM217.877 126.478L216.226 127.864L215.009 126.414L216.661 125.028L217.877 126.478ZM223.946 120.093C224.407 119.706 224.75 119.294 224.976 118.856C225.211 118.429 225.342 118.003 225.369 117.578C225.407 117.144 225.355 116.718 225.215 116.3C225.075 115.882 224.865 115.483 224.586 115.105L223.153 116.307C222.58 116.788 222.056 117.122 221.582 117.31C221.107 117.497 220.665 117.562 220.253 117.506C219.842 117.449 219.45 117.29 219.077 117.028C218.706 116.746 218.341 116.391 217.983 115.964C217.625 115.537 217.347 115.081 217.15 114.595C216.944 114.098 216.836 113.605 216.827 113.114C216.818 112.624 216.917 112.149 217.124 111.688C217.332 111.207 217.673 110.768 218.144 110.372C218.515 110.061 218.921 109.826 219.362 109.667C219.814 109.498 220.282 109.44 220.767 109.493C221.242 109.534 221.732 109.707 222.236 110.012C222.752 110.307 223.264 110.757 223.773 111.364L225.724 113.69C226.205 114.263 226.572 114.894 226.824 115.582C227.087 116.261 227.204 116.948 227.174 117.643C227.166 118.339 227.007 119.018 226.7 119.678C226.392 120.338 225.918 120.937 225.278 121.474L223.525 122.945L222.194 121.564L223.946 120.093ZM219.227 114.777C219.632 115.26 220.037 115.514 220.441 115.539C220.846 115.543 221.381 115.267 222.044 114.711L223.375 113.594L222.498 112.549C221.904 111.841 221.34 111.453 220.804 111.386C220.27 111.297 219.756 111.46 219.262 111.875C218.801 112.262 218.569 112.715 218.565 113.235C218.563 113.735 218.784 114.249 219.227 114.777ZM236.159 105.394C235.383 106.045 234.585 106.37 233.762 106.371C232.941 106.351 232.201 105.948 231.541 105.162L230.735 104.201C230.452 103.864 230.245 103.549 230.115 103.257C229.996 102.955 229.962 102.629 230.013 102.28L229.457 102.747C228.816 103.284 228.466 103.836 228.406 104.404C228.348 104.95 228.526 105.471 228.941 105.965L235.064 113.262L233.682 114.422L227.517 107.074C227.187 106.681 226.938 106.248 226.771 105.775C226.606 105.282 226.546 104.787 226.589 104.291C226.623 103.784 226.771 103.277 227.034 102.769C227.298 102.261 227.699 101.781 228.238 101.328L231.288 98.7686C231.749 98.382 232.193 98.1242 232.621 97.995C233.039 97.8547 233.438 97.8167 233.818 97.8811C234.199 97.9249 234.547 98.0542 234.861 98.2691C235.187 98.4746 235.477 98.729 235.731 99.0323L236.976 100.515C237.334 100.942 237.572 101.374 237.69 101.812C237.799 102.237 237.803 102.665 237.703 103.093C237.614 103.512 237.438 103.918 237.175 104.312C236.902 104.694 236.563 105.055 236.159 105.394ZM235.032 103.812C235.493 103.426 235.767 103.033 235.854 102.635C235.931 102.225 235.805 101.824 235.475 101.43L234.683 100.487C234.409 100.161 234.078 99.96 233.689 99.8843C233.312 99.7992 232.915 99.9311 232.499 100.28L232.027 100.676C231.612 101.025 231.407 101.397 231.414 101.793C231.432 102.18 231.592 102.553 231.894 102.913L232.601 103.756C232.931 104.149 233.298 104.358 233.702 104.383C234.117 104.398 234.56 104.208 235.032 103.812ZM242.901 97.2094C243.35 96.8323 243.585 96.4728 243.604 96.131C243.624 95.7891 243.558 95.5283 243.407 95.3486C243.322 95.2474 243.187 95.1315 243 95.0007C242.825 94.8604 242.535 94.6633 242.131 94.4093C241.726 94.1552 241.172 93.8257 240.468 93.4206C239.755 93.0042 238.834 92.4656 237.705 91.8046L238.567 90.1623L244.537 93.6828C245.081 94.0115 245.539 94.1817 245.913 94.1936C246.287 94.2055 246.682 94.037 247.097 93.6882L247.316 93.5044C247.564 93.297 247.89 93.4348 248.295 93.9179C248.719 94.4235 248.808 94.78 248.561 94.9874L248.342 95.1713C247.971 95.4824 247.555 95.7166 247.093 95.8741C246.643 96.0221 246.084 95.9836 245.417 95.7586C245.539 96.3836 245.487 96.9255 245.259 97.3845C245.033 97.8228 244.713 98.2164 244.297 98.5652L240.674 101.606L239.345 100.193L242.901 97.2094ZM249.368 91.7828C248.865 91.7075 248.431 91.5446 248.068 91.2942C247.716 91.0344 247.441 90.7865 247.243 90.5506C246.885 90.1236 246.623 89.6635 246.458 89.1702C246.293 88.6768 246.226 88.1869 246.259 87.7005C246.291 87.214 246.426 86.7365 246.665 86.2681C246.904 85.7997 247.242 85.3817 247.68 85.014C248.074 84.6841 248.502 84.43 248.965 84.2519C249.44 84.0644 250.008 83.932 250.671 83.8546L251.071 85.5293C250.572 85.6418 250.159 85.7774 249.833 85.9363C249.497 86.0839 249.194 86.2708 248.925 86.4971C248.678 86.7045 248.491 86.938 248.364 87.1976C248.248 87.4477 248.179 87.7071 248.155 87.9757C248.134 88.2237 248.164 88.4761 248.245 88.7331C248.338 88.9807 248.469 89.2056 248.639 89.4078C248.837 89.6438 249.065 89.8355 249.323 89.983C249.582 90.1098 249.856 90.1962 250.143 90.2421C250.421 90.2769 250.698 90.2647 250.974 90.2055C251.24 90.1351 251.48 90.0104 251.694 89.8313L254.441 87.5262L255.601 89.08L248.557 94.9911C248.41 95.1136 248.268 95.1376 248.129 95.0629C247.969 94.9865 247.79 94.8303 247.592 94.5944C247.366 94.3247 247.229 94.1045 247.181 93.9338C247.122 93.7725 247.166 93.6306 247.312 93.508L249.368 91.7828Z" fill="#808080"/>
</svg>
