<svg width="15" height="13" viewBox="0 0 15 13" fill="none" xmlns="http://www.w3.org/2000/svg">
<path id="Union" fill-rule="evenodd" clip-rule="evenodd" d="M3.6 7.70078H2.55064C3.08376 9.77066 4.96289 11.3 7.19922 11.3C8.71041 11.3 10.059 10.6026 10.9403 9.50773L12.1553 9.88288C12.0668 10.0124 11.9732 10.1383 11.875 10.2602C11.4304 10.8125 10.8898 11.2843 10.2787 11.6505C9.37846 12.1899 8.32505 12.5 7.19922 12.5C4.78497 12.5 2.70375 11.0741 1.7518 9.01851C1.55929 8.60283 1.41296 8.16139 1.3194 7.70078H0L1.8 5.30078L3.6 7.70078ZM2.24146 3.11951L3.45643 3.49434C4.33775 2.39833 5.68706 1.7 7.1992 1.7C9.43553 1.7 11.3147 3.22934 11.8478 5.29922H10.7984L12.5984 7.69922L14.3984 5.29922H13.079C12.9854 4.8384 12.839 4.39677 12.6464 3.98092C11.6943 1.92564 9.61323 0.5 7.1992 0.5C6.07255 0.5 5.01843 0.810529 4.11776 1.35067C3.50649 1.71724 2.96591 2.18958 2.52129 2.74238C2.42326 2.86427 2.32989 2.99007 2.24146 3.11951Z" fill="#7E7E7E"/>
</svg>
