<svg width="16" height="16" viewBox="0 0 16 16" fill="none" xmlns="http://www.w3.org/2000/svg">
<g id="Frame 1000005259">
<path id="Vector" d="M13.4117 8V10M14.8235 8.99995H12" stroke="#696967" stroke-linecap="square" stroke-linejoin="round"/>
<path id="Vector_2" d="M7.05879 10.4793C9.45222 10.4731 11.4873 11.5683 12.2353 13.9258C10.7275 14.8417 8.95279 15.1945 7.05879 15.1899C5.16481 15.1945 3.39006 14.8417 1.88232 13.9258C2.63121 11.5657 4.66282 10.4731 7.05879 10.4793Z" stroke="#696967" stroke-linecap="square"/>
<path id="Vector_3" d="M10.3529 4.82645C10.3529 6.38745 8.87805 7.65287 7.05872 7.65287C5.23947 7.65287 3.76465 6.38745 3.76465 4.82645C3.76465 3.26544 5.23947 2 7.05872 2C8.87805 2 10.3529 3.26544 10.3529 4.82645Z" stroke="#696967" stroke-linecap="square"/>
</g>
</svg>
