<svg width="28" height="26" viewBox="0 0 28 26" fill="none" xmlns="http://www.w3.org/2000/svg">
<g id="297, Phone, Call, Configure, Gear, Phone">
<g id="Group">
<path id="Vector" d="M15.2942 7.64111H14.6214V8.26588H15.2942V7.64111Z" fill="#313F76" fill-opacity="0.7"/>
<path id="Vector_2" d="M15.2942 8.84302H14.6214V9.46779H15.2942V8.84302Z" fill="#313F76" fill-opacity="0.7"/>
<path id="Vector_3" d="M16.5884 10.0442H15.9156V10.669H16.5884V10.0442Z" fill="#313F76" fill-opacity="0.7"/>
<path id="Vector_4" d="M16.5884 7.64111H15.9156V8.26588H16.5884V7.64111Z" fill="#313F76" fill-opacity="0.7"/>
<path id="Vector_5" d="M14 5.6709C12.1306 5.6709 10.369 6.29567 9.01832 7.35297C9.22375 7.35297 9.43432 7.35297 9.6911 7.40103C9.74246 7.40103 9.79382 7.44909 9.84518 7.49715L11.6067 9.13116C11.6581 9.17922 11.7094 9.22728 11.7094 9.27533C11.8635 9.99622 11.6067 10.7652 11.0367 11.2938L13.3169 13.4084C13.9384 12.8798 14.7703 12.6395 15.5458 12.7837C15.5972 12.7837 15.6486 12.8317 15.6999 12.8798L17.4615 14.5138C17.5128 14.5618 17.5642 14.6099 17.5642 14.658C17.6669 15.3308 17.5128 16.0036 17.0455 16.5323L17.8261 17.2532C18.2421 17.6376 18.2421 18.2143 17.8261 18.5988C17.4101 18.9833 16.7887 18.9833 16.3727 18.5988L16.1159 18.3585L15.6999 18.743C15.5972 18.8391 15.3866 18.8391 15.2326 18.743C15.1298 18.6469 15.1298 18.4546 15.2326 18.3105L15.9053 17.6857C16.0081 17.5896 16.2186 17.5896 16.3727 17.6857L16.84 18.2143C16.9941 18.3585 17.256 18.3585 17.4101 18.2143C17.5642 18.0702 17.5642 17.8299 17.4101 17.6857L16.6295 16.9648C15.5921 17.6376 14.1386 17.2051 13.0499 16.6764C12.9985 16.6764 12.9985 16.6284 12.9985 16.6284C7.29272 11.3419 7.606 11.6783 7.606 11.5822C7.24136 10.9574 7.03593 10.3807 6.93322 9.85204C5.63901 12.4953 6.10123 15.7633 8.48934 17.974C9.94276 19.3197 11.9149 20.0886 13.9897 20.0886C18.2935 20.0886 21.7703 16.8206 21.7703 12.8798C21.7703 8.93892 18.2935 5.6709 13.9897 5.6709H14ZM17.2149 10.9574C17.2149 11.1016 17.0609 11.2458 16.9017 11.2458H13.0139C12.8599 11.2458 12.7006 11.1016 12.7006 10.9574V7.35297C12.7006 7.20879 12.8547 7.06461 13.0139 7.06461H16.9017C17.0557 7.06461 17.2149 7.20879 17.2149 7.35297V10.9574Z" fill="#313F76" fill-opacity="0.7"/>
<path id="Vector_6" d="M25.7711 10.6691L25.047 10.6211C24.8929 10.6211 24.785 10.525 24.7337 10.3808C24.4718 9.41959 24.0609 8.50647 23.5422 7.68946C23.4908 7.59335 23.4908 7.44917 23.5935 7.35305L24.0609 6.87246C24.8929 5.95933 24.8364 4.61368 23.9068 3.79667C22.9721 2.93161 21.5187 2.93161 20.5891 3.6525L20.0704 4.08503C19.9677 4.18115 19.8136 4.18115 19.7058 4.13309C18.7711 3.60444 17.785 3.26802 16.7476 3.02773C16.5935 2.97967 16.5422 2.88355 16.4908 2.73937L16.4395 2.1146C16.3368 0.961183 15.248 0 14 0C12.752 0 11.6684 0.913124 11.5605 2.1146L11.5092 2.78743C11.5092 2.93161 11.4065 3.02773 11.2524 3.07579C10.215 3.31608 9.22891 3.70055 8.34556 4.18115C8.24285 4.2292 8.08877 4.2292 7.98092 4.13309L7.46222 3.70055C6.47616 2.93161 5.02274 2.97967 4.14453 3.84473C3.26119 4.66174 3.20983 6.05545 3.99046 6.92052L4.45781 7.40111C4.56053 7.49723 4.56053 7.6414 4.50917 7.73752C3.9391 8.60259 3.57447 9.51571 3.31768 10.4288C3.26632 10.573 3.16361 10.6211 3.0044 10.6691L2.28026 10.7172C1.03742 10.8133 0 11.8226 0 12.976C0 14.1294 0.98606 15.1386 2.28026 15.2347L2.95304 15.2828C3.10712 15.2828 3.20983 15.3789 3.26632 15.5231C3.52311 16.4843 3.9391 17.3974 4.45781 18.2625C4.50917 18.3586 4.50917 18.5028 4.40646 18.5989L3.9391 19.0795C3.10712 19.9926 3.15847 21.3383 4.09318 22.1553C5.02788 23.0203 6.48129 23.0203 7.41086 22.2994L7.92957 21.8669C8.03228 21.7708 8.18635 21.7708 8.2942 21.8189C9.17755 22.2994 10.1636 22.6839 11.201 22.9242C11.3551 22.9723 11.4065 23.0684 11.4578 23.2126L11.5092 23.8854C11.6119 25.0388 12.7007 26 13.9486 26C15.1966 26 16.2803 25.0869 16.3881 23.8854L16.4395 23.2126C16.4395 23.0684 16.5422 22.9723 16.6963 22.9242C17.7337 22.6839 18.7197 22.2994 19.6544 21.8189C19.7572 21.7708 19.9112 21.7708 20.0191 21.8669L20.5378 22.2994C21.5238 23.0684 22.9259 23.0203 23.8555 22.1553C24.7388 21.3383 24.7902 19.9445 24.0095 19.0795L23.5422 18.5989C23.4395 18.5028 23.4395 18.3586 23.4908 18.2625C24.0095 17.3974 24.4255 16.4843 24.6823 15.5231C24.7337 15.3789 24.8364 15.3309 24.9956 15.2828L25.7197 15.2347C26.9626 15.1386 28 14.1294 28 12.976C28 11.7264 27.0139 10.7652 25.7711 10.6691ZM13.9949 20.7616C9.32649 20.7616 5.54145 17.2532 5.54145 12.9279C5.54145 8.60259 9.32649 5.09427 13.9949 5.09427C18.6632 5.09427 22.4483 8.60259 22.4483 12.9279C22.4483 17.2532 18.6632 20.7616 13.9949 20.7616Z" fill="#313F76" fill-opacity="0.7"/>
<path id="Vector_7" d="M16.5884 8.84302H15.9156V9.46779H16.5884V8.84302Z" fill="#313F76" fill-opacity="0.7"/>
<path id="Vector_8" d="M13.3786 16.1955C14.3133 16.676 15.6589 17.0605 16.3881 16.3877C16.8041 16.0032 17.0096 15.4746 16.9582 14.9459L15.3507 13.408C14.7293 13.36 14.0565 13.5522 13.6405 14.0808C13.5378 14.225 13.2759 14.225 13.1732 14.0808L10.3742 11.4857C10.2201 11.3415 10.2715 11.1492 10.4255 11.0531C10.9443 10.7167 11.2062 10.0919 11.1497 9.46717L9.5422 7.97734C8.97213 7.92928 8.40207 8.07346 7.98607 8.50599C7.20544 9.22687 7.78064 10.5725 8.1915 11.3415L13.3786 16.1955ZM14.6728 14.0808C14.7755 13.9847 14.9861 13.9847 15.1401 14.0808L16.383 15.2343C16.4857 15.3304 16.4857 15.5226 16.383 15.6668C16.2803 15.7629 16.0697 15.7629 15.9156 15.6668L14.6728 14.5134C14.5187 14.3692 14.5187 14.177 14.6728 14.0808ZM8.76157 8.60211C8.86428 8.50599 9.07485 8.50599 9.22892 8.60211L10.4718 9.75553C10.5745 9.85164 10.5745 10.0439 10.4718 10.1881C10.3691 10.2842 10.1585 10.2842 10.0044 10.1881L8.76157 9.03464C8.6075 8.89046 8.6075 8.69822 8.76157 8.60211Z" fill="#313F76" fill-opacity="0.7"/>
<path id="Vector_9" d="M14 10.0442H13.3272V10.669H14V10.0442Z" fill="#313F76" fill-opacity="0.7"/>
<path id="Vector_10" d="M15.2942 10.0442H14.6214V10.669H15.2942V10.0442Z" fill="#313F76" fill-opacity="0.7"/>
<path id="Vector_11" d="M14 7.64111H13.3272V8.26588H14V7.64111Z" fill="#313F76" fill-opacity="0.7"/>
<path id="Vector_12" d="M14 8.84302H13.3272V9.46779H14V8.84302Z" fill="#313F76" fill-opacity="0.7"/>
</g>
</g>
</svg>
