<svg width="18" height="18" viewBox="0 0 18 18" fill="none" xmlns="http://www.w3.org/2000/svg">
<path d="M7.35972 8.366L1.48655 14.1886C0.837817 14.8317 0.837817 15.8745 1.48655 16.5176C2.13528 17.1608 3.18708 17.1608 3.83581 16.5176L9.70897 10.6951" stroke="#313F76" stroke-width="0.950278" stroke-linecap="round" stroke-linejoin="round"/>
<path d="M13.2921 10.9951L16.5134 14.1886C17.1622 14.8317 17.1622 15.8745 16.5134 16.5176C15.8647 17.1608 14.8129 17.1608 14.1642 16.5176L9.00745 11.4054" stroke="#313F76" stroke-width="0.950278" stroke-linecap="round" stroke-linejoin="round"/>
<path d="M4.6041 4.49355L2.84215 5.07581L1.0802 2.16452L2.25483 1L5.19142 2.74677L4.6041 4.49355ZM4.6041 4.49355L6.95486 6.82406" stroke="#313F76" stroke-width="0.950278" stroke-linecap="round" stroke-linejoin="round"/>
<path d="M7.35975 8.366C6.6589 6.59313 6.79592 4.26694 8.24076 2.83456C9.68558 1.40217 12.3519 1.08779 13.8203 1.96117L11.2947 4.46497L11.06 7.02672L13.6439 6.79401L16.1695 4.2902C17.0505 5.74585 16.7334 8.3893 15.2886 9.82167C13.8437 11.254 11.4973 11.3899 9.70908 10.695" stroke="#313F76" stroke-width="0.950278" stroke-linecap="round" stroke-linejoin="round"/>
</svg>
