<svg width="20" height="15" viewBox="0 0 20 15" fill="none" xmlns="http://www.w3.org/2000/svg">
<path id="Vector" d="M15.5574 2.86391C15.5404 2.85395 15.5234 2.84438 15.5064 2.8345L17.2779 1.06294C17.3934 0.945368 17.4577 0.786957 17.457 0.622173C17.4562 0.457389 17.3904 0.299567 17.2739 0.183048C17.1574 0.0665298 16.9996 0.000744408 16.8348 6.27878e-06C16.67 -0.000731851 16.5116 0.063637 16.394 0.179107L14.3327 2.2404C12.9667 1.64068 11.4918 1.32878 10 1.32415C8.07898 1.32415 6.15722 1.85661 4.44261 2.86395C2.73918 3.86473 1.23691 5.33661 0.0981595 7.12075C0.0340576 7.22118 0 7.33785 0 7.457C0 7.57615 0.0340576 7.69281 0.0981595 7.79325C1.23691 9.57727 2.73918 11.0493 4.44261 12.05C4.45957 12.06 4.47668 12.0695 4.49367 12.0795L2.7221 13.851C2.66321 13.9088 2.61636 13.9778 2.58426 14.0538C2.55216 14.1299 2.53544 14.2115 2.53507 14.2941C2.5347 14.3766 2.55068 14.4584 2.5821 14.5348C2.61352 14.6111 2.65976 14.6805 2.71813 14.7388C2.7765 14.7972 2.84586 14.8434 2.9222 14.8748C2.99853 14.9063 3.08034 14.9222 3.16289 14.9219C3.24544 14.9215 3.32709 14.9048 3.40314 14.8727C3.47919 14.8406 3.54813 14.7937 3.60597 14.7348L5.6673 12.6735C7.03328 13.2732 8.50816 13.5851 10 13.5898C11.921 13.5898 13.8427 13.0573 15.5574 12.0499C17.2608 11.0492 18.7631 9.57727 19.9018 7.79317C19.9659 7.69273 20 7.57607 20 7.45692C20 7.33777 19.9659 7.22111 19.9018 7.12067C18.7631 5.33669 17.2608 3.86469 15.5574 2.86391ZM1.3739 7.45696C3.46812 4.39176 6.6657 2.57415 10 2.57415C11.1523 2.57679 12.2945 2.78992 13.3703 3.20305L12.0314 4.54184C11.3473 4.06444 10.5169 3.84302 9.68588 3.9164C8.85484 3.98978 8.07613 4.35327 7.4862 4.94318C6.89627 5.53309 6.53275 6.31178 6.45934 7.14282C6.38592 7.97385 6.6073 8.80421 7.08468 9.48841L5.4175 11.1556C3.8607 10.3165 2.46699 9.0568 1.3739 7.45696ZM12.3047 7.45696C12.305 7.85904 12.2 8.25418 12.0001 8.60309C11.8003 8.952 11.5127 9.24253 11.1657 9.44577C10.8188 9.64901 10.4247 9.75789 10.0227 9.76158C9.6206 9.76527 9.22458 9.66364 8.87398 9.4668L12.0098 6.33098C12.2034 6.67465 12.305 7.0625 12.3047 7.45696ZM7.69531 7.45696C7.69504 7.05489 7.80003 6.65975 7.99985 6.31085C8.19966 5.96194 8.48733 5.67142 8.83425 5.46818C9.18117 5.26494 9.57525 5.15605 9.9773 5.15236C10.3794 5.14866 10.7754 5.25028 11.126 5.44712L7.99015 8.58294C7.79653 8.23927 7.69497 7.85142 7.69531 7.45696ZM10 12.3398C8.84766 12.3371 7.7055 12.124 6.62976 11.7109L7.96875 10.3723C8.65292 10.8495 9.48323 11.0709 10.3142 10.9974C11.1452 10.924 11.9238 10.5605 12.5137 9.97062C13.1035 9.38075 13.467 8.60212 13.5405 7.77116C13.6139 6.9402 13.3926 6.10989 12.9153 5.42571L14.5825 3.75852C16.1393 4.59758 17.533 5.85712 18.6261 7.45696C16.5319 10.5221 13.3343 12.3398 10 12.3398Z" fill="#989898"/>
</svg>
