<svg width="18" height="18" viewBox="0 0 18 18" fill="none" xmlns="http://www.w3.org/2000/svg">
<path d="M15.4 7.73684C15.4 4.01619 12.5347 1 9.00004 1C5.46541 1 2.60004 4.01619 2.60004 7.73684" stroke="#313F76" stroke-width="0.915279" stroke-linecap="round" stroke-linejoin="round"/>
<path d="M1 11.4744V9.89398C1 9.1211 1.49967 8.4475 2.21194 8.26004L3.60358 7.89381C3.90654 7.81406 4.2 8.05524 4.2 8.384V12.9844C4.2 13.3132 3.90654 13.5544 3.60358 13.4746L2.21194 13.1084C1.49967 12.9209 1 12.2473 1 11.4744Z" stroke="#313F76" stroke-width="0.915279"/>
<path d="M17 11.4744V9.89398C17 9.1211 16.5004 8.4475 15.7881 8.26004L14.3964 7.89381C14.0935 7.81406 13.8 8.05524 13.8 8.384V12.9844C13.8 13.3132 14.0935 13.5544 14.3964 13.4746L15.7881 13.1084C16.5004 12.9209 17 12.2473 17 11.4744Z" stroke="#313F76" stroke-width="0.915279"/>
<path d="M15.4 13.6316V14.0526C15.4 14.9828 14.6837 15.7368 13.8 15.7368H11" stroke="#313F76" stroke-width="0.915279"/>
<path d="M10.2 17H7.79998C7.13723 17 6.59998 16.4344 6.59998 15.7368C6.59998 15.0392 7.13723 14.4737 7.79998 14.4737H10.2C10.8627 14.4737 11.4 15.0392 11.4 15.7368C11.4 16.4344 10.8627 17 10.2 17Z" stroke="#313F76" stroke-width="0.915279"/>
</svg>
