<svg width="18" height="18" viewBox="0 0 18 18" fill="none" xmlns="http://www.w3.org/2000/svg">
<path d="M5.44446 6.64706H12.5556" stroke="#313F76" stroke-linecap="round" stroke-linejoin="round"/>
<path d="M4.55554 10.4118H5.44443" stroke="#313F76" stroke-linecap="round" stroke-linejoin="round"/>
<path d="M12.5555 10.4118H13.4444" stroke="#313F76" stroke-linecap="round" stroke-linejoin="round"/>
<path d="M1 14.1765V7.97459C1 7.71972 1.04891 7.46739 1.14374 7.23313L3.20489 2.14086C3.48503 1.44874 4.12777 1 4.83892 1H13.1611C13.8723 1 14.5149 1.44874 14.7951 2.14086L16.8563 7.23313C16.9511 7.46739 17 7.71972 17 7.97459V14.1765M1 14.1765V16.4353C1 16.7472 1.23878 17 1.53333 17H4.02222C4.31677 17 4.55556 16.7472 4.55556 16.4353V14.1765M1 14.1765H4.55556M17 14.1765V16.4353C17 16.7472 16.7612 17 16.4667 17H13.9778C13.6832 17 13.4444 16.7472 13.4444 16.4353V14.1765M17 14.1765H13.4444M4.55556 14.1765H13.4444" stroke="#313F76"/>
</svg>
