<svg width="21" height="21" viewBox="0 0 21 21" fill="none" xmlns="http://www.w3.org/2000/svg">
<g id="Facebook" clip-path="url(#clip0_755_1032)">
<path id="Vector" d="M20.718 10.5052C20.718 4.89697 16.0801 0.350586 10.359 0.350586C4.63788 0.350586 0 4.89697 0 10.5052C0 15.5736 3.78812 19.7747 8.74041 20.5365V13.4406H6.1102V10.5052H8.74041V8.26803C8.74041 5.72303 10.287 4.31724 12.6532 4.31724C13.7862 4.31724 14.972 4.51557 14.972 4.51557V7.01457H13.6658C12.379 7.01457 11.9776 7.79739 11.9776 8.60123V10.5052H14.8506L14.3913 13.4406H11.9776V20.5365C16.9299 19.7747 20.718 15.5736 20.718 10.5052Z" fill="#313F76"/>
</g>
<defs>
<clipPath id="clip0_755_1032">
<rect width="20.718" height="20.3093" fill="white" transform="translate(0 0.350586)"/>
</clipPath>
</defs>
</svg>
