<svg width="24" height="24" viewBox="0 0 24 24" fill="none" xmlns="http://www.w3.org/2000/svg">
<g id="Filter">
<path id="Vector" d="M9.49512 7.85742H19.1372" stroke="#343962" stroke-width="1.5" stroke-linecap="square"/>
<path id="Vector_2" fill-rule="evenodd" clip-rule="evenodd" d="M9.51039 7.79792C9.51039 6.35584 8.33265 5.18652 6.88019 5.18652C5.42774 5.18652 4.25 6.35584 4.25 7.79792C4.25 9.23999 5.42774 10.4093 6.88019 10.4093C8.33265 10.4093 9.51039 9.23999 9.51039 7.79792Z" stroke="#343962" stroke-width="1.5" stroke-linecap="square"/>
<path id="Vector_3" d="M15.0053 16.4707H5.36328" stroke="#343962" stroke-width="1.5" stroke-linecap="square"/>
<path id="Vector_4" fill-rule="evenodd" clip-rule="evenodd" d="M14.9893 16.4102C14.9893 14.9681 16.1671 13.7988 17.6195 13.7988C19.072 13.7988 20.2497 14.9681 20.2497 16.4102C20.2497 17.8523 19.072 19.0216 17.6195 19.0216C16.1671 19.0216 14.9893 17.8523 14.9893 16.4102Z" stroke="#343962" stroke-width="1.5" stroke-linecap="square"/>
</g>
</svg>
