<svg width="21" height="21" viewBox="0 0 21 21" fill="none" xmlns="http://www.w3.org/2000/svg">
<g id="Instagram" clip-path="url(#clip0_755_1025)">
<g id="Group">
<path id="Vector" d="M10.5184 2.17921C13.2862 2.17921 13.6139 2.19111 14.7024 2.23871C15.714 2.28235 16.2603 2.44895 16.6245 2.58778C17.106 2.77025 17.454 2.99238 17.8142 3.34541C18.1784 3.70241 18.4009 4.03958 18.587 4.51161C18.7287 4.86861 18.8986 5.40807 18.9431 6.39577C18.9917 7.46677 19.0038 7.78807 19.0038 10.4973C19.0038 13.2105 18.9917 13.5318 18.9431 14.5988C18.8986 15.5905 18.7287 16.126 18.587 16.483C18.4009 16.955 18.1743 17.2961 17.8142 17.6492C17.45 18.0062 17.106 18.2243 16.6245 18.4068C16.2603 18.5456 15.71 18.7122 14.7024 18.7559C13.6099 18.8035 13.2821 18.8154 10.5184 18.8154C7.75056 18.8154 7.42279 18.8035 6.33429 18.7559C5.32267 18.7122 4.77639 18.5456 4.41221 18.4068C3.93067 18.2243 3.58268 18.0022 3.22254 17.6492C2.85835 17.2922 2.6358 16.955 2.44966 16.483C2.30803 16.126 2.13808 15.5865 2.09357 14.5988C2.04501 13.5278 2.03287 13.2065 2.03287 10.4973C2.03287 7.7841 2.04501 7.4628 2.09357 6.39577C2.13808 5.40411 2.30803 4.86861 2.44966 4.51161C2.6358 4.03958 2.8624 3.69844 3.22254 3.34541C3.58672 2.98841 3.93067 2.77025 4.41221 2.58778C4.77639 2.44895 5.32671 2.28235 6.33429 2.23871C7.42279 2.19111 7.75056 2.17921 10.5184 2.17921ZM10.5184 0.350586C7.70605 0.350586 7.354 0.362486 6.24931 0.410086C5.14867 0.457686 4.39197 0.632218 3.73644 0.882118C3.05259 1.14392 2.47394 1.48902 1.89934 2.05625C1.32069 2.61951 0.968645 3.18675 0.701577 3.85314C0.446648 4.49971 0.268603 5.23751 0.220045 6.31644C0.171487 7.4033 0.159348 7.7484 0.159348 10.5052C0.159348 13.2621 0.171487 13.6072 0.220045 14.69C0.268603 15.769 0.446648 16.5107 0.701577 17.1533C0.968645 17.8237 1.32069 18.3909 1.89934 18.9542C2.47394 19.5175 3.05259 19.8665 3.7324 20.1244C4.39197 20.3743 5.14462 20.5488 6.24526 20.5964C7.34996 20.644 7.702 20.6559 10.5143 20.6559C13.3266 20.6559 13.6787 20.644 14.7834 20.5964C15.884 20.5488 16.6407 20.3743 17.2962 20.1244C17.976 19.8665 18.5547 19.5175 19.1293 18.9542C19.7039 18.3909 20.06 17.8237 20.323 17.1573C20.5779 16.5107 20.756 15.7729 20.8045 14.694C20.8531 13.6111 20.8652 13.266 20.8652 10.5092C20.8652 7.75237 20.8531 7.40727 20.8045 6.32437C20.756 5.24544 20.5779 4.50367 20.323 3.86108C20.0681 3.18674 19.716 2.61951 19.1374 2.05625C18.5628 1.49298 17.9841 1.14392 17.3043 0.886084C16.6447 0.636185 15.8921 0.461652 14.7914 0.414052C13.6827 0.362486 13.3307 0.350586 10.5184 0.350586Z" fill="#313F76"/>
<path id="Vector_2" d="M10.5184 5.28906C7.5806 5.28906 5.19722 7.62542 5.19722 10.5052C5.19722 13.385 7.5806 15.7214 10.5184 15.7214C13.4561 15.7214 15.8395 13.385 15.8395 10.5052C15.8395 7.62542 13.4561 5.28906 10.5184 5.28906ZM10.5184 13.8888C8.61246 13.8888 7.0667 12.3735 7.0667 10.5052C7.0667 8.63692 8.61246 7.12166 10.5184 7.12166C12.4242 7.12166 13.97 8.63692 13.97 10.5052C13.97 12.3735 12.4242 13.8888 10.5184 13.8888Z" fill="#313F76"/>
<path id="Vector_3" d="M17.2922 5.08275C17.2922 5.75709 16.7338 6.30052 16.0499 6.30052C15.362 6.30052 14.8076 5.75312 14.8076 5.08275C14.8076 4.40842 15.366 3.86499 16.0499 3.86499C16.7338 3.86499 17.2922 4.41239 17.2922 5.08275Z" fill="#313F76"/>
</g>
</g>
<defs>
<clipPath id="clip0_755_1025">
<rect width="20.718" height="20.3093" fill="white" transform="translate(0.159348 0.350586)"/>
</clipPath>
</defs>
</svg>
