<svg width="22" height="21" viewBox="0 0 22 21" fill="none" xmlns="http://www.w3.org/2000/svg">
<g id="LinkedIn" clip-path="url(#clip0_755_1022)">
<g id="Group">
<path id="Vector" d="M19.9232 0.350586H2.26837C1.42266 0.350586 0.7388 1.00508 0.7388 1.81428V19.1922C0.7388 20.0014 1.42266 20.6599 2.26837 20.6599H19.9232C20.7689 20.6599 21.4568 20.0014 21.4568 19.1962V1.81428C21.4568 1.00508 20.7689 0.350586 19.9232 0.350586ZM6.88541 17.6571H3.81008V7.9626H6.88541V17.6571ZM5.34775 6.6417C4.36041 6.6417 3.56325 5.86027 3.56325 4.89637C3.56325 3.93248 4.36041 3.15104 5.34775 3.15104C6.33105 3.15104 7.1282 3.93248 7.1282 4.89637C7.1282 5.8563 6.33105 6.6417 5.34775 6.6417ZM18.3936 17.6571H15.3223V12.9447C15.3223 11.8222 15.3021 10.3743 13.724 10.3743C12.1256 10.3743 11.8828 11.6 11.8828 12.8654V17.6571H8.81559V7.9626H11.7614V9.28746H11.8019C12.2106 8.52586 13.2141 7.72063 14.7073 7.72063C17.819 7.72063 18.3936 9.72776 18.3936 12.3378V17.6571Z" fill="#313F76"/>
</g>
</g>
<defs>
<clipPath id="clip0_755_1022">
<rect width="20.718" height="20.3093" fill="white" transform="translate(0.7388 0.350586)"/>
</clipPath>
</defs>
</svg>
