<svg width="30" height="30" viewBox="0 0 30 30" fill="none" xmlns="http://www.w3.org/2000/svg">
<g id="lock-thin 1">
<path id="Vector" d="M24.0318 9.75924H19.9208V6.56184C19.9208 5.22926 19.3915 3.95126 18.4492 3.00899C17.5069 2.06672 16.2289 1.53735 14.8964 1.53735C13.5638 1.53735 12.2858 2.06672 11.3435 3.00899C10.4012 3.95126 9.87188 5.22926 9.87188 6.56184V9.75924H5.76094C5.39751 9.75924 5.04896 9.90361 4.79198 10.1606C4.535 10.4176 4.39062 10.7661 4.39062 11.1295V23.9191C4.39062 24.2826 4.535 24.6311 4.79198 24.8881C5.04896 25.1451 5.39751 25.2895 5.76094 25.2895H24.0318C24.3952 25.2895 24.7438 25.1451 25.0007 24.8881C25.2577 24.6311 25.4021 24.2826 25.4021 23.9191V11.1295C25.4021 10.7661 25.2577 10.4176 25.0007 10.1606C24.7438 9.90361 24.3952 9.75924 24.0318 9.75924ZM10.7854 6.56184C10.7854 5.47155 11.2185 4.42591 11.9895 3.65496C12.7604 2.88401 13.8061 2.4509 14.8964 2.4509C15.9867 2.4509 17.0323 2.88401 17.8032 3.65496C18.5742 4.42591 19.0073 5.47155 19.0073 6.56184V9.75924H10.7854V6.56184ZM24.4886 23.9191C24.4886 24.0403 24.4404 24.1565 24.3548 24.2421C24.2691 24.3278 24.1529 24.3759 24.0318 24.3759H5.76094C5.6398 24.3759 5.52361 24.3278 5.43795 24.2421C5.35229 24.1565 5.30417 24.0403 5.30417 23.9191V11.1295C5.30417 11.0084 5.35229 10.8922 5.43795 10.8066C5.52361 10.7209 5.6398 10.6728 5.76094 10.6728H24.0318C24.1529 10.6728 24.2691 10.7209 24.3548 10.8066C24.4404 10.8922 24.4886 11.0084 24.4886 11.1295V23.9191ZM15.8099 17.5243C15.8099 17.705 15.7563 17.8817 15.6559 18.0319C15.5556 18.1821 15.4129 18.2992 15.246 18.3683C15.079 18.4375 14.8953 18.4556 14.7181 18.4203C14.5409 18.3851 14.3782 18.2981 14.2504 18.1703C14.1226 18.0426 14.0356 17.8798 14.0004 17.7026C13.9651 17.5254 13.9832 17.3417 14.0524 17.1747C14.1215 17.0078 14.2386 16.8651 14.3888 16.7648C14.5391 16.6644 14.7157 16.6108 14.8964 16.6108C15.1386 16.6108 15.371 16.7071 15.5423 16.8784C15.7137 17.0497 15.8099 17.2821 15.8099 17.5243Z" fill="#5A5A5A"/>
</g>
</svg>
