<svg width="20" height="12" viewBox="0 0 20 12" fill="none" xmlns="http://www.w3.org/2000/svg">
<path id="Vector" d="M19.9561 5.81308C19.9272 5.75308 19.2221 4.33385 17.6476 2.90462C16.1865 1.58 13.6763 0 10 0C6.32368 0 3.81348 1.58 2.35245 2.90462C0.777852 4.33385 0.0727586 5.75077 0.0439446 5.81308C0.0149717 5.87216 0 5.9361 0 6.00077C0 6.06544 0.0149717 6.12938 0.0439446 6.18846C0.0727586 6.24769 0.777852 7.66692 2.35245 9.09615C3.81348 10.4208 6.32368 12 10 12C13.6763 12 16.1865 10.4208 17.6476 9.09615C19.2221 7.66692 19.9272 6.25 19.9561 6.18846C19.985 6.12938 20 6.06544 20 6.00077C20 5.9361 19.985 5.87216 19.9561 5.81308ZM10 11.0769C7.34065 11.0769 5.01858 10.1985 3.09737 8.46692C2.292 7.74042 1.61049 6.90897 1.07531 6C1.61034 5.09117 2.29187 4.25996 3.09737 3.53385C5.01858 1.80154 7.34065 0.923077 10 0.923077C12.6594 0.923077 14.9814 1.80154 16.9026 3.53385C17.7081 4.25996 18.3897 5.09117 18.9247 6C18.3848 6.93923 15.678 11.0769 10 11.0769ZM10 2.46154C9.22898 2.46154 8.47527 2.66907 7.83419 3.05788C7.19311 3.44669 6.69345 3.99932 6.39839 4.64589C6.10333 5.29246 6.02613 6.00393 6.17655 6.69032C6.32697 7.37671 6.69825 8.00721 7.24345 8.50207C7.78864 8.99693 8.48326 9.33394 9.23947 9.47047C9.99568 9.607 10.7795 9.53693 11.4918 9.26911C12.2042 9.0013 12.813 8.54776 13.2414 7.96586C13.6697 7.38397 13.8984 6.69984 13.8984 6C13.897 5.06192 13.4859 4.1626 12.7551 3.49928C12.0243 2.83595 11.0335 2.46276 10 2.46154ZM10 8.61539C9.43012 8.61539 8.87303 8.462 8.39919 8.17461C7.92534 7.88723 7.55603 7.47876 7.33794 7.00086C7.11986 6.52296 7.06279 5.9971 7.17397 5.48976C7.28515 4.98243 7.55958 4.51641 7.96255 4.15064C8.36552 3.78488 8.87893 3.53578 9.43787 3.43487C9.9968 3.33395 10.5762 3.38575 11.1027 3.5837C11.6292 3.78165 12.0792 4.11687 12.3958 4.54697C12.7124 4.97707 12.8814 5.48273 12.8814 6C12.8814 6.69364 12.5778 7.35888 12.0375 7.84936C11.4971 8.33984 10.7642 8.61539 10 8.61539Z" fill="#989898"/>
</svg>
