<svg width="29" height="27" viewBox="0 0 29 27" fill="none" xmlns="http://www.w3.org/2000/svg">
<g id="round-phone-24px">
<g id="Rounded_1_">
<path id="Path" fill-rule="evenodd" clip-rule="evenodd" d="M22.6976 16.7716L19.7824 16.4595C19.0822 16.3842 18.3936 16.6102 17.9001 17.0729L15.7882 19.0529C12.5401 17.5033 9.87734 15.0176 8.22459 11.9615L10.3479 9.97075C10.8414 9.50804 11.0825 8.86239 11.0021 8.20598L10.6693 5.49426C10.5316 4.40742 9.55597 3.5896 8.38527 3.5896H6.39968C5.10273 3.5896 4.02385 4.60111 4.10419 5.81708C4.7125 15.0068 12.5516 22.3457 22.3418 22.916C23.6388 22.9913 24.7177 21.9798 24.7177 20.7638V18.9022C24.7291 17.8154 23.8568 16.9007 22.6976 16.7716Z" fill="#313F76" fill-opacity="0.7"/>
</g>
</g>
</svg>
