<svg width="28" height="26" viewBox="0 0 28 26" fill="none" xmlns="http://www.w3.org/2000/svg">
<g id="round-place-24px">
<path id="Shape" fill-rule="evenodd" clip-rule="evenodd" d="M6.15536 9.88782C6.15536 5.78681 9.75398 2.46997 14.2034 2.46997C18.6528 2.46997 22.2514 5.78681 22.2514 9.88782C22.2514 14.3067 17.1697 20.4 15.0887 22.7207C14.6288 23.2293 13.7895 23.2293 13.3296 22.7207C11.2371 20.4 6.15536 14.3067 6.15536 9.88782ZM11.3291 9.88782C11.3291 11.3502 12.6168 12.5371 14.2034 12.5371C15.79 12.5371 17.0777 11.3502 17.0777 9.88782C17.0777 8.42544 15.79 7.23859 14.2034 7.23859C12.6168 7.23859 11.3291 8.42544 11.3291 9.88782Z" fill="#313F76" fill-opacity="0.7"/>
</g>
</svg>
