<svg width="29" height="27" viewBox="0 0 29 27" fill="none" xmlns="http://www.w3.org/2000/svg">
<g id="round-local-printshop-24px">
<path id="Shape" fill-rule="evenodd" clip-rule="evenodd" d="M8.95621 3.57886H20.4336C21.0649 3.57886 21.5814 4.06309 21.5814 4.65494V6.8071C21.5814 7.39894 21.0649 7.88318 20.4336 7.88318H8.95621C8.32495 7.88318 7.80847 7.39894 7.80847 6.8071V4.65494C7.80847 4.06309 8.32495 3.57886 8.95621 3.57886ZM6.66073 8.95926H22.7291C24.6344 8.95926 26.1724 10.4012 26.1724 12.1875V16.4918C26.1724 17.6755 25.1394 18.644 23.8769 18.644H21.5814V20.7961C21.5814 21.9798 20.5484 22.9483 19.2859 22.9483H10.104C8.84144 22.9483 7.80847 21.9798 7.80847 20.7961V18.644H5.51298C4.25047 18.644 3.2175 17.6755 3.2175 16.4918V12.1875C3.2175 10.4012 4.75547 8.95926 6.66073 8.95926ZM11.2517 20.7961H18.1382C18.7694 20.7961 19.2859 20.3119 19.2859 19.7201V15.4157H10.104V19.7201C10.104 20.3119 10.6204 20.7961 11.2517 20.7961ZM22.7291 13.2636C22.0979 13.2636 21.5814 12.7793 21.5814 12.1875C21.5814 11.5956 22.0979 11.1114 22.7291 11.1114C23.3604 11.1114 23.8769 11.5956 23.8769 12.1875C23.8769 12.7793 23.3604 13.2636 22.7291 13.2636Z" fill="#313F76" fill-opacity="0.7"/>
</g>
</svg>
