<svg width="21" height="20" viewBox="0 0 21 20" fill="none" xmlns="http://www.w3.org/2000/svg">
<g id="Frame" clip-path="url(#clip0_1841_2167)">
<g id="Group">
<g id="OBJECTS">
<g id="Group_2">
<path id="Vector" style="mix-blend-mode:screen" d="M14.507 7.03008C14.533 7.07056 14.5128 7.11683 14.4464 7.16599L12.2142 9.19028H10.7617L14.1201 7.06767C14.2038 7.01562 14.2847 6.9867 14.3569 6.97802C14.432 6.97224 14.4839 6.9867 14.507 7.03008Z" fill="url(#paint0_linear_1841_2167)"/>
<path id="Vector_2" d="M17.2821 0.0202637H4.38866C2.44814 0.0202637 0.859924 1.61078 0.859924 3.5541V16.4633C0.859924 18.4095 2.44814 20 4.38866 20H17.2821C19.2226 20 20.8108 18.4095 20.8108 16.4633V3.5541C20.8108 1.61078 19.2226 0.0202637 17.2821 0.0202637ZM14.6947 14.1238C14.6283 14.4043 14.5157 14.5836 14.3598 14.6588C14.201 14.734 14.0046 14.7051 13.7736 14.572L11.2064 12.675L9.96186 13.8722C9.87812 13.9561 9.8117 14.0139 9.76261 14.0486C9.67887 14.0978 9.57202 14.1238 9.43919 14.1238L9.63844 11.5038L12.1652 9.21055L14.3973 7.18626C14.4637 7.13709 14.484 7.09082 14.458 7.05034C14.4349 7.00696 14.3829 6.9925 14.3078 6.99829C14.2356 7.00696 14.1548 7.03588 14.071 7.08793L10.7127 9.21055L8.19172 10.804L5.65057 10.0058C5.36758 9.92194 5.23474 9.79759 5.25207 9.63276C5.2694 9.4766 5.41956 9.3349 5.70832 9.21055C5.72854 9.19898 5.75164 9.1903 5.77474 9.18163L15.6679 5.36439C15.9162 5.28342 16.1155 5.31234 16.2656 5.45404C16.4129 5.59285 16.4562 5.83866 16.3898 6.18857L15.743 9.21055L14.6947 14.1238Z" fill="#313F76" fill-opacity="0.7"/>
</g>
</g>
</g>
</g>
<defs>
<linearGradient id="paint0_linear_1841_2167" x1="12.6416" y1="5.3528" x2="12.6416" y2="8.10006" gradientUnits="userSpaceOnUse">
<stop stop-color="white"/>
<stop offset="1"/>
</linearGradient>
<clipPath id="clip0_1841_2167">
<rect width="20" height="20" fill="white" transform="translate(0.859924)"/>
</clipPath>
</defs>
</svg>
