<svg width="22" height="21" viewBox="0 0 22 21" fill="none" xmlns="http://www.w3.org/2000/svg">
<g id="Twitter" clip-path="url(#clip0_755_1030)">
<path id="Vector" d="M7.09713 18.756C14.9133 18.756 19.1897 12.4066 19.1897 6.90209C19.1897 6.72359 19.1856 6.54113 19.1775 6.36263C20.0094 5.7729 20.7273 5.04243 21.2975 4.20556C20.5227 4.54346 19.7001 4.76414 18.8578 4.86006C19.7447 4.33893 20.4088 3.52027 20.7269 2.55583C19.8926 3.04053 18.9801 3.38245 18.0287 3.56693C17.3877 2.89922 16.5401 2.45712 15.617 2.30897C14.6939 2.16083 13.7468 2.31489 12.922 2.74735C12.0972 3.17981 11.4407 3.86657 11.054 4.70146C10.6673 5.53634 10.5719 6.47285 10.7827 7.36619C9.09326 7.28309 7.44051 6.85288 5.93159 6.10346C4.42267 5.35404 3.09125 4.30215 2.02364 3.01596C1.48103 3.93303 1.31499 5.01822 1.55927 6.05099C1.80355 7.08376 2.43981 7.9866 3.33875 8.57602C2.66388 8.55502 2.0038 8.3769 1.41303 8.05639V8.10796C1.41242 9.07035 1.75183 10.0033 2.37355 10.7481C2.99528 11.4929 3.86095 12.0037 4.82341 12.1936C4.19825 12.3613 3.54211 12.3857 2.90578 12.265C3.17737 13.0927 3.70578 13.8166 4.41727 14.3357C5.12876 14.8548 5.98782 15.1432 6.87457 15.1607C5.36913 16.3199 3.50948 16.9486 1.59512 16.9457C1.25563 16.9452 0.916465 16.9248 0.579453 16.8846C2.52423 18.1076 4.78653 18.7572 7.09713 18.756Z" fill="#313F76"/>
</g>
<defs>
<clipPath id="clip0_755_1030">
<rect width="20.718" height="20.3093" fill="white" transform="translate(0.579453 0.350586)"/>
</clipPath>
</defs>
</svg>
