<svg width="74" height="74" viewBox="0 0 74 74" fill="none" xmlns="http://www.w3.org/2000/svg">
<g filter="url(#filter0_d_547_7548)">
<circle cx="37" cy="33" r="31" fill="#0D01A0"/>
</g>
<g clip-path="url(#clip0_547_7548)">
<path d="M16 33.2638C16 35.949 16.5432 38.6079 17.5985 41.0886C18.6539 43.5694 20.2007 45.8235 22.1508 47.7222C24.1008 49.621 26.4158 51.1271 28.9636 52.1547C31.5115 53.1823 34.2422 53.7111 37 53.7111C39.7578 53.7111 42.4885 53.1823 45.0364 52.1547C47.5842 51.1271 49.8992 49.621 51.8492 47.7222C53.7993 45.8235 55.3461 43.5694 56.4015 41.0886C57.4568 38.6079 58 35.949 58 33.2638C58 30.5786 57.4568 27.9197 56.4015 25.4389C55.3461 22.9581 53.7993 20.704 51.8492 18.8053C49.8992 16.9066 47.5842 15.4004 45.0364 14.3729C42.4885 13.3453 39.7578 12.8164 37 12.8164C34.2422 12.8164 31.5115 13.3453 28.9636 14.3729C26.4158 15.4004 24.1008 16.9066 22.1508 18.8053C20.2007 20.704 18.6539 22.9581 17.5985 25.4389C16.5432 27.9197 16 30.5786 16 33.2638Z" stroke="white" stroke-width="1.5" stroke-linecap="round" stroke-linejoin="round"/>
<path d="M32.3333 28.7188L41.6666 37.8065M41.6666 28.7188L32.3333 37.8065" stroke="white" stroke-width="1.5" stroke-linecap="round" stroke-linejoin="round"/>
</g>
<defs>
<filter id="filter0_d_547_7548" x="0.6" y="0.6" width="72.8" height="72.8" filterUnits="userSpaceOnUse" color-interpolation-filters="sRGB">
<feFlood flood-opacity="0" result="BackgroundImageFix"/>
<feColorMatrix in="SourceAlpha" type="matrix" values="0 0 0 0 0 0 0 0 0 0 0 0 0 0 0 0 0 0 127 0" result="hardAlpha"/>
<feOffset dy="4"/>
<feGaussianBlur stdDeviation="2.7"/>
<feComposite in2="hardAlpha" operator="out"/>
<feColorMatrix type="matrix" values="0 0 0 0 0.140999 0 0 0 0 0.140999 0 0 0 0 0.140999 0 0 0 0.33 0"/>
<feBlend mode="normal" in2="BackgroundImageFix" result="effect1_dropShadow_547_7548"/>
<feBlend mode="normal" in="SourceGraphic" in2="effect1_dropShadow_547_7548" result="shape"/>
</filter>
<clipPath id="clip0_547_7548">
<rect width="56" height="54.5263" fill="white" transform="translate(9 6)"/>
</clipPath>
</defs>
</svg>
