<svg width="56" height="55" viewBox="0 0 56 55" fill="none" xmlns="http://www.w3.org/2000/svg">
<g clip-path="url(#clip0_171_6211)">
<path d="M7 27.263C7 29.9482 7.54318 32.6071 8.59853 35.0879C9.65388 37.5687 11.2007 39.8228 13.1508 41.7215C15.1008 43.6202 17.4158 45.1264 19.9636 46.1539C22.5115 47.1815 25.2422 47.7104 28 47.7104C30.7578 47.7104 33.4885 47.1815 36.0364 46.1539C38.5842 45.1264 40.8992 43.6202 42.8492 41.7215C44.7993 39.8228 46.3461 37.5687 47.4015 35.0879C48.4568 32.6071 49 29.9482 49 27.263C49 24.5779 48.4568 21.919 47.4015 19.4382C46.3461 16.9574 44.7993 14.7033 42.8492 12.8046C40.8992 10.9059 38.5842 9.39971 36.0364 8.37214C33.4885 7.34456 30.7578 6.81567 28 6.81567C25.2422 6.81567 22.5115 7.34456 19.9636 8.37214C17.4158 9.39971 15.1008 10.9059 13.1508 12.8046C11.2007 14.7033 9.65388 16.9574 8.59853 19.4382C7.54318 21.919 7 24.5779 7 27.263Z" stroke="white" stroke-width="1.5" stroke-linecap="round" stroke-linejoin="round"/>
<path d="M23.3335 22.7192L32.6668 31.807M32.6668 22.7192L23.3335 31.807" stroke="white" stroke-width="1.5" stroke-linecap="round" stroke-linejoin="round"/>
</g>
<defs>
<clipPath id="clip0_171_6211">
<rect width="56" height="54.5263" fill="white"/>
</clipPath>
</defs>
</svg>
