<svg width="88" height="88" viewBox="0 0 88 88" fill="none" xmlns="http://www.w3.org/2000/svg">
<path d="M7.33334 25.666L37.2713 46.6225C39.6957 48.3198 40.9079 49.1682 42.2264 49.4968C43.391 49.7872 44.609 49.7872 45.7736 49.4968C47.0921 49.1682 48.3043 48.3198 50.7287 46.6225L80.6667 25.666M24.9333 73.3327H63.0667C69.2274 73.3327 72.3074 73.3327 74.6607 72.1337C76.7305 71.0791 78.4131 69.3965 79.4677 67.3267C80.6667 64.9734 80.6667 61.8934 80.6667 55.7327V32.266C80.6667 26.1054 80.6667 23.0251 79.4677 20.6721C78.4131 18.6023 76.7305 16.9195 74.6607 15.8649C72.3074 14.666 69.2274 14.666 63.0667 14.666H24.9333C18.7728 14.666 15.6925 14.666 13.3395 15.8649C11.2697 16.9195 9.58688 18.6023 8.53227 20.6721C7.33334 23.0251 7.33334 26.1054 7.33334 32.266V55.7327C7.33334 61.8934 7.33334 64.9734 8.53227 67.3267C9.58688 69.3965 11.2697 71.0791 13.3395 72.1337C15.6925 73.3327 18.7728 73.3327 24.9333 73.3327Z" stroke="#0D01A0" stroke-width="4" stroke-linecap="round" stroke-linejoin="round"/>
</svg>
