<svg width="88" height="88" viewBox="0 0 88 88" fill="none" xmlns="http://www.w3.org/2000/svg">
<path d="M51.5156 22.0006C55.0968 22.6994 58.388 24.4509 60.9682 27.0311C63.5485 29.6112 65.3 32.9026 65.9989 36.484M51.5156 7.33398C58.956 8.1606 65.8948 11.4926 71.1916 16.783C76.4889 22.0734 79.8296 29.0077 80.6656 36.4473M37.4975 50.832C33.0919 46.4261 29.613 41.4442 27.061 36.1292C26.8415 35.672 26.7318 35.4433 26.6474 35.1541C26.3478 34.1261 26.563 32.8638 27.1864 31.9933C27.3618 31.7483 27.5714 31.5387 27.9905 31.1196C29.2724 29.8377 29.9134 29.1967 30.3324 28.5522C31.9127 26.1216 31.9127 22.9882 30.3324 20.5576C29.9134 19.913 29.2724 19.2721 27.9905 17.9902L27.276 17.2757C25.3274 15.3271 24.353 14.3528 23.3066 13.8235C21.2256 12.7709 18.768 12.7709 16.6869 13.8235C15.6405 14.3528 14.6662 15.3271 12.7176 17.2757L12.1396 17.8537C10.1976 19.7956 9.22665 20.7666 8.48507 22.0867C7.66219 23.5516 7.07054 25.8267 7.07556 27.5069C7.08004 29.021 7.37377 30.0558 7.96121 32.1255C11.1181 43.2479 17.0745 53.7433 25.8304 62.499C34.5863 71.255 45.0817 77.2115 56.2041 80.3685C58.2736 80.9559 59.3087 81.2496 60.8227 81.254C62.5027 81.2591 64.7779 80.6673 66.2427 79.8445C67.5631 79.1027 68.534 78.1318 70.4759 76.1899L71.0538 75.6121C73.0026 73.6632 73.9768 72.689 74.5059 71.6425C75.5586 69.5617 75.5586 67.1039 74.5059 65.0227C73.9768 63.9766 73.0026 63.002 71.0538 61.0536L70.3395 60.3389C69.0576 59.0571 68.4167 58.4161 67.7721 57.997C65.3415 56.4167 62.2079 56.4167 59.7773 57.997C59.1327 58.4161 58.4918 59.0571 57.2099 60.3389C56.7908 60.758 56.5814 60.9678 56.3361 61.143C55.4657 61.7667 54.2036 61.982 53.1755 61.682C52.8862 61.5977 52.6577 61.4881 52.2005 61.2684C46.8853 58.7164 41.9034 55.2375 37.4975 50.832Z" stroke="#0D01A0" stroke-width="4" stroke-linecap="round" stroke-linejoin="round"/>
</svg>
