<svg width="22" height="22" viewBox="0 0 22 22" fill="none" xmlns="http://www.w3.org/2000/svg">
<g clip-path="url(#clip0_294_1241)">
<path d="M9.16666 10.9998C9.16666 11.4861 9.35981 11.9524 9.70363 12.2962C10.0474 12.64 10.5138 12.8332 11 12.8332C11.4862 12.8332 11.9525 12.64 12.2964 12.2962C12.6402 11.9524 12.8333 11.4861 12.8333 10.9998C12.8333 10.5136 12.6402 10.0473 12.2964 9.70348C11.9525 9.35966 11.4862 9.1665 11 9.1665C10.5138 9.1665 10.0474 9.35966 9.70363 9.70348C9.35981 10.0473 9.16666 10.5136 9.16666 10.9998Z" stroke="#0D01A0" stroke-width="1.5" stroke-linecap="round" stroke-linejoin="round"/>
<path d="M19.25 11C17.05 14.6667 14.3 16.5 11 16.5C7.7 16.5 4.95 14.6667 2.75 11C4.95 7.33333 7.7 5.5 11 5.5C14.3 5.5 17.05 7.33333 19.25 11Z" stroke="#0D01A0" stroke-width="1.5" stroke-linecap="round" stroke-linejoin="round"/>
</g>
<defs>
<clipPath id="clip0_294_1241">
<rect width="22" height="22" fill="white"/>
</clipPath>
</defs>
</svg>
