<svg width="22" height="22" viewBox="0 0 22 22" fill="none" xmlns="http://www.w3.org/2000/svg">
<g clip-path="url(#clip0_294_1255)">
<path d="M9.70289 9.70459C9.35913 10.0485 9.16605 10.5148 9.16614 11.0011C9.16622 11.4873 9.35946 11.9536 9.70335 12.2974C10.0472 12.6411 10.5136 12.8342 10.9998 12.8341C11.4861 12.8341 11.9524 12.6408 12.2961 12.2969" stroke="#0D01A0" stroke-width="1.5" stroke-linecap="round" stroke-linejoin="round"/>
<path d="M15.2909 15.2836C14.0051 16.0881 12.5168 16.51 11 16.5C7.7 16.5 4.95 14.6667 2.75 11C3.916 9.05669 5.236 7.62853 6.71 6.71553M9.33167 5.66503C9.88078 5.55386 10.4397 5.49858 11 5.50003C14.3 5.50003 17.05 7.33336 19.25 11C18.6395 12.0175 17.9859 12.8948 17.2902 13.6309" stroke="#0D01A0" stroke-width="1.5" stroke-linecap="round" stroke-linejoin="round"/>
<path d="M2.75 2.75L19.25 19.25" stroke="#0D01A0" stroke-width="1.5" stroke-linecap="round" stroke-linejoin="round"/>
</g>
<defs>
<clipPath id="clip0_294_1255">
<rect width="22" height="22" fill="white"/>
</clipPath>
</defs>
</svg>
