<svg width="26" height="26" viewBox="0 0 26 26" fill="none" xmlns="http://www.w3.org/2000/svg">
<path d="M7.66034 18.5086C6.61026 18.5034 5.74919 19.3536 5.74919 20.4009C5.74919 21.4378 6.59451 22.2725 7.63934 22.2777C8.69992 22.2777 9.55573 21.4378 9.55048 20.3905C9.54523 19.3485 8.70517 18.5138 7.66034 18.5086ZM7.66034 21.6918C6.94628 21.697 6.34249 21.106 6.33724 20.3957C6.33724 19.6803 6.92528 19.1048 7.64984 19.1048C8.37964 19.1048 8.95719 19.6803 8.95194 20.4061C8.95194 21.106 8.36914 21.6866 7.66034 21.6918ZM7.66034 18.5086C6.61026 18.5034 5.74919 19.3536 5.74919 20.4009C5.74919 21.4378 6.59451 22.2725 7.63934 22.2777C8.69992 22.2777 9.55573 21.4378 9.55048 20.3905C9.54523 19.3485 8.70517 18.5138 7.66034 18.5086ZM7.66034 21.6918C6.94628 21.697 6.34249 21.106 6.33724 20.3957C6.33724 19.6803 6.92528 19.1048 7.64984 19.1048C8.37964 19.1048 8.95719 19.6803 8.95194 20.4061C8.95194 21.106 8.36914 21.6866 7.66034 21.6918ZM7.66034 18.5086C6.61026 18.5034 5.74919 19.3536 5.74919 20.4009C5.74919 21.4378 6.59451 22.2725 7.63934 22.2777C8.69992 22.2777 9.55573 21.4378 9.55048 20.3905C9.54523 19.3485 8.70517 18.5138 7.66034 18.5086ZM7.66034 21.6918C6.94628 21.697 6.34249 21.106 6.33724 20.3957C6.33724 19.6803 6.92528 19.1048 7.64984 19.1048C8.37964 19.1048 8.95719 19.6803 8.95194 20.4061C8.95194 21.106 8.36914 21.6866 7.66034 21.6918ZM7.66034 18.5086C6.61026 18.5034 5.74919 19.3536 5.74919 20.4009C5.74919 21.4378 6.59451 22.2725 7.63934 22.2777C8.69992 22.2777 9.55573 21.4378 9.55048 20.3905C9.54523 19.3485 8.70517 18.5138 7.66034 18.5086ZM7.66034 21.6918C6.94628 21.697 6.34249 21.106 6.33724 20.3957C6.33724 19.6803 6.92528 19.1048 7.64984 19.1048C8.37964 19.1048 8.95719 19.6803 8.95194 20.4061C8.95194 21.106 8.36914 21.6866 7.66034 21.6918ZM7.66034 18.5086C6.61026 18.5034 5.74919 19.3536 5.74919 20.4009C5.74919 21.4378 6.59451 22.2725 7.63934 22.2777C8.69992 22.2777 9.55573 21.4378 9.55048 20.3905C9.54523 19.3485 8.70517 18.5138 7.66034 18.5086ZM7.66034 21.6918C6.94628 21.697 6.34249 21.106 6.33724 20.3957C6.33724 19.6803 6.92528 19.1048 7.64984 19.1048C8.37964 19.1048 8.95719 19.6803 8.95194 20.4061C8.95194 21.106 8.36914 21.6866 7.66034 21.6918ZM7.66034 18.5086C6.61026 18.5034 5.74919 19.3536 5.74919 20.4009C5.74919 21.4378 6.59451 22.2725 7.63934 22.2777C8.69992 22.2777 9.55573 21.4378 9.55048 20.3905C9.54523 19.3485 8.70517 18.5138 7.66034 18.5086ZM7.66034 21.6918C6.94628 21.697 6.34249 21.106 6.33724 20.3957C6.33724 19.6803 6.92528 19.1048 7.64984 19.1048C8.37964 19.1048 8.95719 19.6803 8.95194 20.4061C8.95194 21.106 8.36914 21.6866 7.66034 21.6918ZM7.66034 18.5086C6.61026 18.5034 5.74919 19.3536 5.74919 20.4009C5.74919 21.4378 6.59451 22.2725 7.63934 22.2777C8.69992 22.2777 9.55573 21.4378 9.55048 20.3905C9.54523 19.3485 8.70517 18.5138 7.66034 18.5086ZM7.66034 21.6918C6.94628 21.697 6.34249 21.106 6.33724 20.3957C6.33724 19.6803 6.92528 19.1048 7.64984 19.1048C8.37964 19.1048 8.95719 19.6803 8.95194 20.4061C8.95194 21.106 8.36914 21.6866 7.66034 21.6918ZM7.66034 18.5086C6.61026 18.5034 5.74919 19.3536 5.74919 20.4009C5.74919 21.4378 6.59451 22.2725 7.63934 22.2777C8.69992 22.2777 9.55573 21.4378 9.55048 20.3905C9.54523 19.3485 8.70517 18.5138 7.66034 18.5086ZM7.66034 21.6918C6.94628 21.697 6.34249 21.106 6.33724 20.3957C6.33724 19.6803 6.92528 19.1048 7.64984 19.1048C8.37964 19.1048 8.95719 19.6803 8.95194 20.4061C8.95194 21.106 8.36914 21.6866 7.66034 21.6918ZM7.66034 18.5086C6.61026 18.5034 5.74919 19.3536 5.74919 20.4009C5.74919 21.4378 6.59451 22.2725 7.63934 22.2777C8.69992 22.2777 9.55573 21.4378 9.55048 20.3905C9.54523 19.3485 8.70517 18.5138 7.66034 18.5086ZM7.66034 21.6918C6.94628 21.697 6.34249 21.106 6.33724 20.3957C6.33724 19.6803 6.92528 19.1048 7.64984 19.1048C8.37964 19.1048 8.95719 19.6803 8.95194 20.4061C8.95194 21.106 8.36914 21.6866 7.66034 21.6918ZM7.66034 18.5086C6.61026 18.5034 5.74919 19.3536 5.74919 20.4009C5.74919 21.4378 6.59451 22.2725 7.63934 22.2777C8.69992 22.2777 9.55573 21.4378 9.55048 20.3905C9.54523 19.3485 8.70517 18.5138 7.66034 18.5086ZM7.66034 21.6918C6.94628 21.697 6.34249 21.106 6.33724 20.3957C6.33724 19.6803 6.92528 19.1048 7.64984 19.1048C8.37964 19.1048 8.95719 19.6803 8.95194 20.4061C8.95194 21.106 8.36914 21.6866 7.66034 21.6918ZM7.66034 18.5086C6.61026 18.5034 5.74919 19.3536 5.74919 20.4009C5.74919 21.4378 6.59451 22.2725 7.63934 22.2777C8.69992 22.2777 9.55573 21.4378 9.55048 20.3905C9.54523 19.3485 8.70517 18.5138 7.66034 18.5086ZM7.66034 21.6918C6.94628 21.697 6.34249 21.106 6.33724 20.3957C6.33724 19.6803 6.92528 19.1048 7.64984 19.1048C8.37964 19.1048 8.95719 19.6803 8.95194 20.4061C8.95194 21.106 8.36914 21.6866 7.66034 21.6918ZM7.66034 18.5086C6.61026 18.5034 5.74919 19.3536 5.74919 20.4009C5.74919 21.4378 6.59451 22.2725 7.63934 22.2777C8.69992 22.2777 9.55573 21.4378 9.55048 20.3905C9.54523 19.3485 8.70517 18.5138 7.66034 18.5086ZM7.66034 21.6918C6.94628 21.697 6.34249 21.106 6.33724 20.3957C6.33724 19.6803 6.92528 19.1048 7.64984 19.1048C8.37964 19.1048 8.95719 19.6803 8.95194 20.4061C8.95194 21.106 8.36914 21.6866 7.66034 21.6918ZM7.66034 18.5086C6.61026 18.5034 5.74919 19.3536 5.74919 20.4009C5.74919 21.4378 6.59451 22.2725 7.63934 22.2777C8.69992 22.2777 9.55573 21.4378 9.55048 20.3905C9.54523 19.3485 8.70517 18.5138 7.66034 18.5086ZM7.66034 21.6918C6.94628 21.697 6.34249 21.106 6.33724 20.3957C6.33724 19.6803 6.92528 19.1048 7.64984 19.1048C8.37964 19.1048 8.95719 19.6803 8.95194 20.4061C8.95194 21.106 8.36914 21.6866 7.66034 21.6918ZM19.059 16.8651C18.1611 16.8496 17.4051 17.5857 17.4051 18.4775C17.4051 19.3536 18.1454 20.0898 19.0327 20.095C19.9253 20.1002 20.6603 19.3796 20.6761 18.493C20.6866 17.6117 19.9568 16.8807 19.059 16.8651ZM19.0327 19.4884C18.4552 19.4833 18.0089 19.0374 18.0089 18.4671C18.0089 17.8864 18.4709 17.4406 19.059 17.451C19.6365 17.4561 20.0723 17.9072 20.067 18.4827C20.0618 19.0478 19.6103 19.4884 19.0327 19.4884ZM19.059 16.8651C18.1611 16.8496 17.4051 17.5857 17.4051 18.4775C17.4051 19.3536 18.1454 20.0898 19.0327 20.095C19.9253 20.1002 20.6603 19.3796 20.6761 18.493C20.6866 17.6117 19.9568 16.8807 19.059 16.8651ZM19.0327 19.4884C18.4552 19.4833 18.0089 19.0374 18.0089 18.4671C18.0089 17.8864 18.4709 17.4406 19.059 17.451C19.6365 17.4561 20.0723 17.9072 20.067 18.4827C20.0618 19.0478 19.6103 19.4884 19.0327 19.4884ZM7.66034 18.5086C6.61026 18.5034 5.74919 19.3536 5.74919 20.4009C5.74919 21.4378 6.59451 22.2725 7.63934 22.2777C8.69992 22.2777 9.55573 21.4378 9.55048 20.3905C9.54523 19.3485 8.70517 18.5138 7.66034 18.5086ZM7.66034 21.6918C6.94628 21.697 6.34249 21.106 6.33724 20.3957C6.33724 19.6803 6.92528 19.1048 7.64984 19.1048C8.37964 19.1048 8.95719 19.6803 8.95194 20.4061C8.95194 21.106 8.36914 21.6866 7.66034 21.6918ZM7.66034 18.5086C6.61026 18.5034 5.74919 19.3536 5.74919 20.4009C5.74919 21.4378 6.59451 22.2725 7.63934 22.2777C8.69992 22.2777 9.55573 21.4378 9.55048 20.3905C9.54523 19.3485 8.70517 18.5138 7.66034 18.5086ZM7.66034 21.6918C6.94628 21.697 6.34249 21.106 6.33724 20.3957C6.33724 19.6803 6.92528 19.1048 7.64984 19.1048C8.37964 19.1048 8.95719 19.6803 8.95194 20.4061C8.95194 21.106 8.36914 21.6866 7.66034 21.6918ZM19.059 16.8651C18.1611 16.8496 17.4051 17.5857 17.4051 18.4775C17.4051 19.3536 18.1454 20.0898 19.0327 20.095C19.9253 20.1002 20.6603 19.3796 20.6761 18.493C20.6866 17.6117 19.9568 16.8807 19.059 16.8651ZM19.0327 19.4884C18.4552 19.4833 18.0089 19.0374 18.0089 18.4671C18.0089 17.8864 18.4709 17.4406 19.059 17.451C19.6365 17.4561 20.0723 17.9072 20.067 18.4827C20.0618 19.0478 19.6103 19.4884 19.0327 19.4884ZM19.059 16.8651C18.1611 16.8496 17.4051 17.5857 17.4051 18.4775C17.4051 19.3536 18.1454 20.0898 19.0327 20.095C19.9253 20.1002 20.6603 19.3796 20.6761 18.493C20.6866 17.6117 19.9568 16.8807 19.059 16.8651ZM19.0327 19.4884C18.4552 19.4833 18.0089 19.0374 18.0089 18.4671C18.0089 17.8864 18.4709 17.4406 19.059 17.451C19.6365 17.4561 20.0723 17.9072 20.067 18.4827C20.0618 19.0478 19.6103 19.4884 19.0327 19.4884ZM7.66034 18.5086C6.61026 18.5034 5.74919 19.3536 5.74919 20.4009C5.74919 21.4378 6.59451 22.2725 7.63934 22.2777C8.69992 22.2777 9.55573 21.4378 9.55048 20.3905C9.54523 19.3485 8.70517 18.5138 7.66034 18.5086ZM7.66034 21.6918C6.94628 21.697 6.34249 21.106 6.33724 20.3957C6.33724 19.6803 6.92528 19.1048 7.64984 19.1048C8.37964 19.1048 8.95719 19.6803 8.95194 20.4061C8.95194 21.106 8.36914 21.6866 7.66034 21.6918ZM7.66034 18.5086C6.61026 18.5034 5.74919 19.3536 5.74919 20.4009C5.74919 21.4378 6.59451 22.2725 7.63934 22.2777C8.69992 22.2777 9.55573 21.4378 9.55048 20.3905C9.54523 19.3485 8.70517 18.5138 7.66034 18.5086ZM7.66034 21.6918C6.94628 21.697 6.34249 21.106 6.33724 20.3957C6.33724 19.6803 6.92528 19.1048 7.64984 19.1048C8.37964 19.1048 8.95719 19.6803 8.95194 20.4061C8.95194 21.106 8.36914 21.6866 7.66034 21.6918ZM19.059 16.8651C18.1611 16.8496 17.4051 17.5857 17.4051 18.4775C17.4051 19.3536 18.1454 20.0898 19.0327 20.095C19.9253 20.1002 20.6603 19.3796 20.6761 18.493C20.6866 17.6117 19.9568 16.8807 19.059 16.8651ZM19.0327 19.4884C18.4552 19.4833 18.0089 19.0374 18.0089 18.4671C18.0089 17.8864 18.4709 17.4406 19.059 17.451C19.6365 17.4561 20.0723 17.9072 20.067 18.4827C20.0618 19.0478 19.6103 19.4884 19.0327 19.4884ZM19.059 16.8651C18.1611 16.8496 17.4051 17.5857 17.4051 18.4775C17.4051 19.3536 18.1454 20.0898 19.0327 20.095C19.9253 20.1002 20.6603 19.3796 20.6761 18.493C20.6866 17.6117 19.9568 16.8807 19.059 16.8651ZM19.0327 19.4884C18.4552 19.4833 18.0089 19.0374 18.0089 18.4671C18.0089 17.8864 18.4709 17.4406 19.059 17.451C19.6365 17.4561 20.0723 17.9072 20.067 18.4827C20.0618 19.0478 19.6103 19.4884 19.0327 19.4884ZM7.66034 18.5086C6.61026 18.5034 5.74919 19.3536 5.74919 20.4009C5.74919 21.4378 6.59451 22.2725 7.63934 22.2777C8.69992 22.2777 9.55573 21.4378 9.55048 20.3905C9.54523 19.3485 8.70517 18.5138 7.66034 18.5086ZM7.66034 21.6918C6.94628 21.697 6.34249 21.106 6.33724 20.3957C6.33724 19.6803 6.92528 19.1048 7.64984 19.1048C8.37964 19.1048 8.95719 19.6803 8.95194 20.4061C8.95194 21.106 8.36914 21.6866 7.66034 21.6918ZM7.66034 18.5086C6.61026 18.5034 5.74919 19.3536 5.74919 20.4009C5.74919 21.4378 6.59451 22.2725 7.63934 22.2777C8.69992 22.2777 9.55573 21.4378 9.55048 20.3905C9.54523 19.3485 8.70517 18.5138 7.66034 18.5086ZM7.66034 21.6918C6.94628 21.697 6.34249 21.106 6.33724 20.3957C6.33724 19.6803 6.92528 19.1048 7.64984 19.1048C8.37964 19.1048 8.95719 19.6803 8.95194 20.4061C8.95194 21.106 8.36914 21.6866 7.66034 21.6918ZM19.059 16.8651C18.1611 16.8496 17.4051 17.5857 17.4051 18.4775C17.4051 19.3536 18.1454 20.0898 19.0327 20.095C19.9253 20.1002 20.6603 19.3796 20.6761 18.493C20.6866 17.6117 19.9568 16.8807 19.059 16.8651ZM19.0327 19.4884C18.4552 19.4833 18.0089 19.0374 18.0089 18.4671C18.0089 17.8864 18.4709 17.4406 19.059 17.451C19.6365 17.4561 20.0723 17.9072 20.067 18.4827C20.0618 19.0478 19.6103 19.4884 19.0327 19.4884ZM19.059 16.8651C18.1611 16.8496 17.4051 17.5857 17.4051 18.4775C17.4051 19.3536 18.1454 20.0898 19.0327 20.095C19.9253 20.1002 20.6603 19.3796 20.6761 18.493C20.6866 17.6117 19.9568 16.8807 19.059 16.8651ZM19.0327 19.4884C18.4552 19.4833 18.0089 19.0374 18.0089 18.4671C18.0089 17.8864 18.4709 17.4406 19.059 17.451C19.6365 17.4561 20.0723 17.9072 20.067 18.4827C20.0618 19.0478 19.6103 19.4884 19.0327 19.4884ZM7.66034 18.5086C6.61026 18.5034 5.74919 19.3536 5.74919 20.4009C5.74919 21.4378 6.59451 22.2725 7.63934 22.2777C8.69992 22.2777 9.55573 21.4378 9.55048 20.3905C9.54523 19.3485 8.70517 18.5138 7.66034 18.5086ZM7.66034 21.6918C6.94628 21.697 6.34249 21.106 6.33724 20.3957C6.33724 19.6803 6.92528 19.1048 7.64984 19.1048C8.37964 19.1048 8.95719 19.6803 8.95194 20.4061C8.95194 21.106 8.36914 21.6866 7.66034 21.6918ZM25.9107 7.08724C25.3279 6.07109 24.7347 5.06012 24.1361 4.04916C23.9523 3.73809 23.5953 3.65514 23.2698 3.82104C23.0598 3.92991 22.8603 4.04916 22.6555 4.1684C22.267 4.39651 22.1672 4.72832 22.393 5.11197C22.4822 5.26232 22.4507 5.31416 22.3142 5.40748C22.1042 5.54746 22.0097 5.50599 21.8889 5.29342C21.5424 4.66092 21.0909 4.55205 20.4556 4.91496C19.794 5.29342 19.122 5.66152 18.4709 6.05554C18.2767 6.17478 18.1821 6.14367 18.1034 5.95185C17.8671 5.38156 17.4523 5.13789 16.8328 5.25713C16.817 5.26232 16.796 5.25713 16.7803 5.25713C16.6753 5.27269 16.6333 5.23639 16.628 5.11715C16.5913 4.55723 16.586 4.55723 17.1426 4.54686C17.5364 4.54168 17.8356 4.38615 18.0246 4.04397C18.2084 3.7018 18.1821 3.36481 17.9669 3.04337C17.9196 2.97598 17.8776 2.92932 17.9459 2.84637C18.1716 2.56641 18.1769 2.25015 18.0876 1.9028C18.4867 1.9028 18.87 1.90798 19.2532 1.9028C19.773 1.89243 20.1773 1.54507 20.2246 1.07328C20.2771 0.544471 19.9778 0.145268 19.437 0.0208417C19.3425 -0.0154494 19.248 0.0052884 19.1535 0.0052884C15.0004 0.0052884 10.8421 0.0052884 6.68901 0.0052884C6.45275 -0.0050805 6.24273 0.0363951 6.05897 0.197113C5.74919 0.466704 5.62843 0.912567 5.77019 1.3014C5.91195 1.69023 6.26898 1.94946 6.68376 1.95982C6.99879 1.96501 7.31381 1.95982 7.62359 1.95982C7.76535 1.95982 7.83885 2.00648 7.8126 2.16202C7.77585 2.35903 7.8231 2.54567 7.91761 2.71157C8.00687 2.87229 7.99111 3.00708 7.91236 3.17299C7.65509 3.7018 7.89136 4.28764 8.43215 4.53131C8.63166 4.61945 8.84168 4.59871 9.0517 4.60389C9.1357 4.60908 9.24596 4.58316 9.28271 4.68166C9.34047 4.82164 9.34047 4.97717 9.28271 5.11197C9.23546 5.23121 9.09895 5.17937 8.99919 5.18973C8.96244 5.19492 8.93094 5.19492 8.89418 5.18973C8.5004 5.13789 8.21163 5.27787 8.04362 5.6356C8.03312 5.65634 8.01737 5.67707 8.00162 5.69781C7.74435 6.07628 7.74435 6.07628 7.33481 5.84298C6.72577 5.49043 6.11147 5.14307 5.49717 4.79572C4.98263 4.50539 4.43134 4.65055 4.12157 5.14826C4.10582 5.169 4.09532 5.19492 4.08481 5.21566C4.02181 5.34008 3.9483 5.43859 3.78029 5.36082C3.61753 5.28306 3.67528 5.17937 3.72254 5.06012C3.81704 4.83201 3.84855 4.59352 3.68578 4.39651C3.38126 4.02323 2.96648 3.8003 2.49919 3.7018C2.19992 3.63959 1.9584 3.78993 1.80089 4.05434C1.33885 4.8009 0.897819 5.56302 0.456785 6.32513C0.288772 6.61546 0.0892569 6.89023 0 7.21685V7.57976C0.204766 7.92194 0.567044 8.0671 0.892569 8.25374C1.3441 8.51297 1.63288 8.44038 1.9269 8.00489C1.9584 7.95823 1.97415 7.86491 2.04241 7.89083C2.17892 7.94786 2.32068 8.01007 2.42044 8.11376C2.47819 8.17598 2.35743 8.2693 2.32068 8.35225C2.31018 8.37299 2.29443 8.39891 2.28393 8.41965C1.95315 8.99512 2.06866 9.43061 2.6462 9.76242C3.31826 10.1461 3.98506 10.5297 4.66761 10.9185C4.45234 11.2504 4.23708 11.577 4.02706 11.9036C3.95355 12.0228 3.85905 12.1162 3.73304 12.1887C0.708805 14.1018 0.420032 18.3997 3.17649 20.6964C3.30775 20.8053 3.36551 20.9245 3.39176 21.0801C3.9273 24.0404 7.09855 25.5387 9.77625 24.1026C9.83401 24.0715 9.89176 24.0093 9.96527 24.0352C10.2383 24.1233 10.5218 24.0819 10.7948 24.0767C10.9786 24.0715 11.0258 24.1285 11.0469 24.2996C11.1519 25.1965 11.9237 25.9327 12.8162 25.9897C13.8191 26.0571 14.6854 25.4557 14.9269 24.5381C14.9689 24.3877 14.9006 24.17 15.0477 24.0974C15.1842 24.0352 15.3732 24.0663 15.5359 24.0819C16.2815 24.1493 16.691 23.6256 16.649 22.9776C16.6175 22.3969 16.6438 21.8163 16.6438 21.1838C17.1163 21.5726 17.6099 21.8163 18.1559 21.9562C18.9067 22.1532 19.6418 22.0236 20.3768 21.8577C22.54 21.3652 23.9943 20.0847 24.5404 17.9642C25.0969 15.8179 24.4406 13.9722 22.7237 12.5517C22.2512 12.1628 21.8574 11.7481 21.5529 11.2296C21.5214 11.1778 21.4952 11.1207 21.4532 11.0793C21.3429 10.96 21.3691 10.8978 21.5162 10.8149C22.162 10.4571 22.7973 10.089 23.4378 9.72094C23.7633 9.5343 23.9156 9.25953 23.8998 8.88624C23.8893 8.65813 23.7686 8.47667 23.6531 8.29522C23.5691 8.16561 23.5428 8.07229 23.7161 8.01007C23.8473 7.96341 23.9576 7.7664 24.0994 8.03081C24.3094 8.41965 24.6611 8.49741 25.0549 8.28485C25.2597 8.17079 25.4645 8.06192 25.664 7.93231C25.9842 7.74567 26.0945 7.40349 25.9107 7.08724ZM6.87278 1.31695C6.77827 1.31695 6.67851 1.32214 6.58926 1.28066C6.42649 1.2029 6.35824 1.07328 6.37924 0.902198C6.40024 0.725927 6.50525 0.622238 6.68376 0.596315C6.76777 0.585946 6.85703 0.591131 6.94628 0.591131C8.96244 0.591131 10.9786 0.591131 12.9895 0.591131C15.0109 0.591131 17.0376 0.591131 19.059 0.591131C19.1482 0.591131 19.2322 0.585946 19.3215 0.596315C19.5105 0.622238 19.6208 0.74148 19.6365 0.922935C19.6523 1.09402 19.563 1.21845 19.4002 1.28585C19.3162 1.32214 19.2322 1.31695 19.143 1.31695C15.0529 1.31695 10.9628 1.31695 6.87278 1.31695ZM17.5416 2.27608C17.5364 2.4679 17.4366 2.6027 17.2266 2.62343C17.0901 2.63899 16.9483 2.64417 16.8118 2.64417C14.2706 2.64417 11.7294 2.64417 9.18821 2.64417C9.0517 2.64417 8.90994 2.6338 8.77343 2.61825C8.57916 2.59751 8.48465 2.47308 8.47415 2.28644C8.4689 2.0998 8.55291 1.97019 8.74717 1.9339C8.87843 1.91316 9.00969 1.9028 9.1357 1.9028C10.4273 1.9028 11.7189 1.9028 13.0105 1.9028C14.2916 1.9028 15.5779 1.9028 16.859 1.9028C16.9903 1.9028 17.1216 1.91316 17.2476 1.92872C17.4523 1.95982 17.5469 2.08944 17.5416 2.27608ZM8.94144 3.95584C8.64742 3.95584 8.4899 3.83659 8.47415 3.61885C8.4584 3.39073 8.60016 3.24038 8.86268 3.2352C9.58724 3.23001 10.3118 3.23001 11.0311 3.23001C11.6926 3.23001 12.3542 3.23001 13.021 3.23001V3.2352C14.3756 3.2352 15.725 3.2352 17.0743 3.2352C17.3893 3.2352 17.5469 3.36481 17.5469 3.59293C17.5469 3.82104 17.3788 3.96102 17.0796 3.96102C14.3651 3.95584 11.6559 3.95584 8.94144 3.95584ZM16.04 4.81645C16.019 5.25195 16.0347 5.25195 15.5832 5.25195H12.9948C12.0602 5.25195 11.1309 5.24676 10.1963 5.25713C10.0073 5.25713 9.96527 5.20529 9.97052 5.02383C9.98102 4.54168 9.97052 4.54168 10.4693 4.54168C12.2334 4.54168 13.9923 4.54686 15.7565 4.53649C15.9717 4.54168 16.0505 4.57797 16.04 4.81645ZM1.45961 7.63161C1.42286 7.69382 1.40711 7.78196 1.2916 7.8027C1.08158 7.67827 0.855816 7.55384 0.6458 7.40868C0.588045 7.3672 0.661551 7.2998 0.687803 7.25314C1.22859 6.32513 1.77464 5.39711 2.31543 4.46391C2.38893 4.33949 2.45194 4.31356 2.57795 4.39651C2.75646 4.51576 3.03998 4.58315 3.10299 4.74387C3.17124 4.91496 2.93498 5.11197 2.82997 5.29342C2.37318 6.07109 1.9164 6.85394 1.45961 7.63161ZM2.35218 7.36202C2.28393 7.28944 2.40469 7.2013 2.44669 7.12872C2.67246 6.7347 2.91922 6.34587 3.12924 5.94666C3.22375 5.77039 3.31301 5.83261 3.40226 5.91037C3.48627 5.98296 3.73304 5.95703 3.58603 6.19552C3.32876 6.61546 3.08724 7.04058 2.84047 7.46052C2.80897 7.50718 2.79847 7.57458 2.71446 7.58495C2.59895 7.51755 2.44669 7.46571 2.35218 7.36202ZM2.89297 9.2336C2.68296 9.11436 2.65145 8.96401 2.77221 8.76182C3.40751 7.67309 4.04281 6.58954 4.67811 5.5008C4.77787 5.3349 4.90913 5.23121 5.10864 5.34527C5.8857 5.78076 6.66801 6.22144 7.45557 6.66212C6.65226 7.89083 5.85945 9.10399 5.07189 10.3223C5.00363 10.426 4.95113 10.4053 4.86712 10.3586C4.20557 9.98016 3.54927 9.60688 2.89297 9.2336ZM3.76979 18.5241C3.53352 18.9907 3.40226 19.4884 3.33926 20.0535C2.40469 19.1152 1.8954 18.042 1.87439 16.7718C1.84289 15.1439 2.51494 13.8426 3.81179 12.8523C3.95355 12.7435 4.02181 12.7331 4.11632 12.9094C4.27908 13.2204 4.46809 13.5211 4.65186 13.8218C4.71486 13.9203 4.73061 13.9826 4.61511 14.0707C3.32876 15.0402 2.92973 16.8547 3.77504 18.2856C3.82229 18.3738 3.81179 18.4412 3.76979 18.5241ZM4.91438 14.5736C5.01414 14.501 5.05089 14.5166 5.10864 14.6151C5.40792 15.1283 5.70719 15.6416 6.01171 16.1548C6.06422 16.2482 6.06422 16.3052 5.98021 16.3726C5.89095 16.44 5.8122 16.5281 5.71769 16.58C5.42367 16.7355 5.1454 16.9066 4.89338 17.1191C4.64661 17.3213 4.42609 17.5546 4.21082 17.819C3.62803 16.7977 3.98506 15.2372 4.91438 14.5736ZM7.66034 24.0767C5.60743 24.0819 3.93255 22.428 3.93255 20.4009C3.93255 18.3634 5.58643 16.7251 7.64459 16.7199C9.70275 16.7148 11.3724 18.353 11.3724 20.3853C11.3724 22.4177 9.708 24.0715 7.66034 24.0767ZM13.2835 15.4446C14.5751 15.3512 15.4782 14.3662 15.6882 12.8161C15.7145 12.8212 15.7407 12.8212 15.7617 12.8316C16.817 13.4952 17.8724 14.164 18.9645 14.8587C18.5549 14.9106 18.1874 14.952 17.8356 15.0765C17.2213 15.2942 16.6858 15.626 16.2815 16.1289C15.893 16.6111 15.4572 17.0414 15.0214 17.4769C14.0816 18.4256 13.1365 19.3692 12.1967 20.3179C12.1389 20.3802 12.0759 20.4372 11.9709 20.5461C11.9604 19.1981 11.5089 18.0938 10.5323 17.2228C9.55574 16.357 8.4059 16.02 7.04079 16.1548C8.14863 15.0817 9.21971 14.0396 10.3065 12.9871C10.8316 14.7913 11.7662 15.5586 13.2835 15.4446ZM10.9418 12.8212C10.9418 11.691 11.8607 10.7838 13 10.7838C14.1498 10.7838 15.0844 11.7014 15.0844 12.8316C15.0844 13.9618 14.1393 14.8846 12.9948 14.8743C11.8554 14.8639 10.9366 13.9463 10.9418 12.8212ZM14.3809 24.2581C14.2653 24.9166 13.6878 25.4091 13.0158 25.4143C12.3595 25.4194 11.7662 24.9321 11.6401 24.2944C11.6034 24.1181 11.6559 24.0767 11.8344 24.0819C12.2334 24.0922 12.6325 24.087 13.0368 24.087C13.4358 24.087 13.8348 24.0922 14.2391 24.0819C14.3756 24.0819 14.4019 24.1181 14.3809 24.2581ZM16.0557 21.5207C16.04 22.0444 16.0557 22.5732 16.0505 23.0968C16.0452 23.3975 15.9455 23.5064 15.641 23.5012C14.2181 23.5012 12.8005 23.4908 11.3776 23.4908C11.1414 23.4908 10.9051 23.4908 10.6216 23.4908C11.1834 22.9361 11.5614 22.314 11.8029 21.5985C11.8659 21.4015 12.0444 21.2719 12.3122 21.2771C13.483 21.2926 14.6486 21.2874 15.8195 21.2771C16.019 21.2771 16.061 21.3341 16.0557 21.5207ZM12.6587 20.686C13.63 19.7736 14.5594 18.9026 15.4099 18.1042C15.3049 18.9493 15.5412 19.8462 16.1607 20.686H12.6587ZM19.0485 21.4793C17.3788 21.4844 15.998 20.1261 15.9927 18.4775C15.9875 16.8288 17.3631 15.4653 19.0327 15.4601C20.7023 15.4549 22.0832 16.8081 22.0884 18.4619C22.0884 20.1106 20.7181 21.4741 19.0485 21.4793ZM20.6603 15.0454C20.6866 15.0091 20.7076 14.9728 20.7286 14.9365C21.0121 14.4543 21.0174 14.4543 21.3954 14.8847C21.7787 15.315 22.0097 15.8178 22.0359 16.3985C21.6737 15.9267 21.2326 15.5586 20.7128 15.2787C20.5921 15.2113 20.5816 15.1439 20.6603 15.0454ZM21.9362 12.8627C21.9887 12.7694 22.0254 12.7383 22.1252 12.8109C24.7714 14.698 24.8134 18.5345 22.1567 20.4579C22.1462 20.4631 22.1305 20.4631 22.1095 20.4631C22.0779 20.4009 22.1357 20.3698 22.1567 20.3283C22.6135 19.5558 22.7763 18.7263 22.6187 17.845C22.582 17.648 22.5872 17.4613 22.6187 17.2591C22.8288 15.9889 22.4192 14.9365 21.4269 14.107C21.3061 14.0085 21.2904 13.9463 21.3691 13.8167C21.5687 13.5108 21.7524 13.1842 21.9362 12.8627ZM21.4689 12.1784C21.5372 12.2821 21.5529 12.3598 21.4847 12.4791C21.0384 13.2256 20.6026 13.9774 20.1668 14.7343C20.0985 14.8587 20.046 14.8587 19.9305 14.7861C18.5129 13.8789 17.0901 12.982 15.6672 12.0799C15.5832 12.028 15.5307 11.9606 15.4939 11.8673C15.0372 10.8097 14.0763 10.1564 12.9895 10.1927C11.8134 10.2342 10.9838 10.8045 10.5218 11.8777C10.4903 11.9451 10.4536 12.0228 10.4011 12.0747C9.1147 13.3293 7.82835 14.5788 6.521 15.8438C5.84895 14.6928 5.19265 13.5678 4.5311 12.448C4.45234 12.3132 4.52585 12.2406 4.5836 12.1524C5.52868 10.706 6.4685 9.25953 7.41357 7.81307C7.80735 7.21167 8.20113 6.61546 8.58441 6.00888C8.66842 5.87408 8.76292 5.83261 8.92044 5.83261C11.3041 5.83779 13.6826 5.83779 16.0662 5.83779C16.4128 5.83779 16.7645 5.84816 17.1111 5.83261C17.2791 5.82742 17.3736 5.88445 17.4628 6.02443C18.4867 7.62124 19.521 9.20768 20.5553 10.7993C20.8494 11.2607 21.1591 11.717 21.4689 12.1784ZM23.1595 9.19731C22.4822 9.58615 21.8049 9.97498 21.1276 10.3638C21.0331 10.4157 20.9964 10.3742 20.9491 10.3016C20.1826 9.12473 19.416 7.94786 18.6442 6.77618C18.5759 6.67249 18.6127 6.6362 18.7072 6.58435C19.4212 6.17996 20.1353 5.76521 20.8546 5.35564C21.0594 5.24158 21.2116 5.28306 21.3324 5.48525C21.9624 6.57398 22.603 7.65753 23.233 8.74627C23.2645 8.80329 23.2908 8.87069 23.3065 8.9018C23.3118 9.05733 23.2593 9.14028 23.1595 9.19731ZM23.3223 7.5694C23.212 7.62124 23.1963 7.502 23.1648 7.45015C22.918 7.0354 22.687 6.61546 22.4297 6.20589C22.309 6.01406 22.456 5.98814 22.561 5.9363C22.6607 5.88445 22.7658 5.72373 22.8865 5.94666C23.1175 6.37697 23.3748 6.79173 23.6216 7.21685C23.6426 7.25314 23.6636 7.28944 23.6951 7.35165C23.5691 7.42423 23.4483 7.50718 23.3223 7.5694ZM24.8764 7.71974C24.8134 7.76122 24.7399 7.85454 24.6454 7.77159C24.6086 7.74048 24.5876 7.68345 24.5614 7.64198C24.0311 6.7347 23.5008 5.82742 22.9653 4.92014C22.8655 4.75424 22.897 4.68166 23.0598 4.61426C23.2488 4.53649 23.4273 4.30319 23.6006 4.36022C23.7476 4.41207 23.8211 4.67129 23.9261 4.83719C24.3881 5.62523 24.8502 6.41326 25.3122 7.20648C25.3437 7.25833 25.3752 7.31017 25.4172 7.38276C25.2597 7.53829 25.0549 7.61087 24.8764 7.71974ZM19.059 16.8651C18.1611 16.8496 17.4051 17.5857 17.4051 18.4775C17.4051 19.3536 18.1454 20.0898 19.0327 20.095C19.9253 20.1002 20.6603 19.3796 20.6761 18.493C20.6866 17.6117 19.9568 16.8807 19.059 16.8651ZM19.0327 19.4884C18.4552 19.4833 18.0089 19.0374 18.0089 18.4671C18.0089 17.8864 18.4709 17.4406 19.059 17.451C19.6365 17.4561 20.0723 17.9072 20.067 18.4827C20.0618 19.0478 19.6103 19.4884 19.0327 19.4884ZM7.66034 18.5086C6.61026 18.5034 5.74919 19.3536 5.74919 20.4009C5.74919 21.4378 6.59451 22.2725 7.63934 22.2777C8.69992 22.2777 9.55573 21.4378 9.55048 20.3905C9.54523 19.3485 8.70517 18.5138 7.66034 18.5086ZM7.66034 21.6918C6.94628 21.697 6.34249 21.106 6.33724 20.3957C6.33724 19.6803 6.92528 19.1048 7.64984 19.1048C8.37964 19.1048 8.95719 19.6803 8.95194 20.4061C8.95194 21.106 8.36914 21.6866 7.66034 21.6918ZM7.66034 18.5086C6.61026 18.5034 5.74919 19.3536 5.74919 20.4009C5.74919 21.4378 6.59451 22.2725 7.63934 22.2777C8.69992 22.2777 9.55573 21.4378 9.55048 20.3905C9.54523 19.3485 8.70517 18.5138 7.66034 18.5086ZM7.66034 21.6918C6.94628 21.697 6.34249 21.106 6.33724 20.3957C6.33724 19.6803 6.92528 19.1048 7.64984 19.1048C8.37964 19.1048 8.95719 19.6803 8.95194 20.4061C8.95194 21.106 8.36914 21.6866 7.66034 21.6918ZM19.059 16.8651C18.1611 16.8496 17.4051 17.5857 17.4051 18.4775C17.4051 19.3536 18.1454 20.0898 19.0327 20.095C19.9253 20.1002 20.6603 19.3796 20.6761 18.493C20.6866 17.6117 19.9568 16.8807 19.059 16.8651ZM19.0327 19.4884C18.4552 19.4833 18.0089 19.0374 18.0089 18.4671C18.0089 17.8864 18.4709 17.4406 19.059 17.451C19.6365 17.4561 20.0723 17.9072 20.067 18.4827C20.0618 19.0478 19.6103 19.4884 19.0327 19.4884ZM19.059 16.8651C18.1611 16.8496 17.4051 17.5857 17.4051 18.4775C17.4051 19.3536 18.1454 20.0898 19.0327 20.095C19.9253 20.1002 20.6603 19.3796 20.6761 18.493C20.6866 17.6117 19.9568 16.8807 19.059 16.8651ZM19.0327 19.4884C18.4552 19.4833 18.0089 19.0374 18.0089 18.4671C18.0089 17.8864 18.4709 17.4406 19.059 17.451C19.6365 17.4561 20.0723 17.9072 20.067 18.4827C20.0618 19.0478 19.6103 19.4884 19.0327 19.4884ZM7.66034 18.5086C6.61026 18.5034 5.74919 19.3536 5.74919 20.4009C5.74919 21.4378 6.59451 22.2725 7.63934 22.2777C8.69992 22.2777 9.55573 21.4378 9.55048 20.3905C9.54523 19.3485 8.70517 18.5138 7.66034 18.5086ZM7.66034 21.6918C6.94628 21.697 6.34249 21.106 6.33724 20.3957C6.33724 19.6803 6.92528 19.1048 7.64984 19.1048C8.37964 19.1048 8.95719 19.6803 8.95194 20.4061C8.95194 21.106 8.36914 21.6866 7.66034 21.6918ZM7.66034 18.5086C6.61026 18.5034 5.74919 19.3536 5.74919 20.4009C5.74919 21.4378 6.59451 22.2725 7.63934 22.2777C8.69992 22.2777 9.55573 21.4378 9.55048 20.3905C9.54523 19.3485 8.70517 18.5138 7.66034 18.5086ZM7.66034 21.6918C6.94628 21.697 6.34249 21.106 6.33724 20.3957C6.33724 19.6803 6.92528 19.1048 7.64984 19.1048C8.37964 19.1048 8.95719 19.6803 8.95194 20.4061C8.95194 21.106 8.36914 21.6866 7.66034 21.6918ZM19.059 16.8651C18.1611 16.8496 17.4051 17.5857 17.4051 18.4775C17.4051 19.3536 18.1454 20.0898 19.0327 20.095C19.9253 20.1002 20.6603 19.3796 20.6761 18.493C20.6866 17.6117 19.9568 16.8807 19.059 16.8651ZM19.0327 19.4884C18.4552 19.4833 18.0089 19.0374 18.0089 18.4671C18.0089 17.8864 18.4709 17.4406 19.059 17.451C19.6365 17.4561 20.0723 17.9072 20.067 18.4827C20.0618 19.0478 19.6103 19.4884 19.0327 19.4884ZM19.059 16.8651C18.1611 16.8496 17.4051 17.5857 17.4051 18.4775C17.4051 19.3536 18.1454 20.0898 19.0327 20.095C19.9253 20.1002 20.6603 19.3796 20.6761 18.493C20.6866 17.6117 19.9568 16.8807 19.059 16.8651ZM19.0327 19.4884C18.4552 19.4833 18.0089 19.0374 18.0089 18.4671C18.0089 17.8864 18.4709 17.4406 19.059 17.451C19.6365 17.4561 20.0723 17.9072 20.067 18.4827C20.0618 19.0478 19.6103 19.4884 19.0327 19.4884ZM7.66034 18.5086C6.61026 18.5034 5.74919 19.3536 5.74919 20.4009C5.74919 21.4378 6.59451 22.2725 7.63934 22.2777C8.69992 22.2777 9.55573 21.4378 9.55048 20.3905C9.54523 19.3485 8.70517 18.5138 7.66034 18.5086ZM7.66034 21.6918C6.94628 21.697 6.34249 21.106 6.33724 20.3957C6.33724 19.6803 6.92528 19.1048 7.64984 19.1048C8.37964 19.1048 8.95719 19.6803 8.95194 20.4061C8.95194 21.106 8.36914 21.6866 7.66034 21.6918ZM7.66034 18.5086C6.61026 18.5034 5.74919 19.3536 5.74919 20.4009C5.74919 21.4378 6.59451 22.2725 7.63934 22.2777C8.69992 22.2777 9.55573 21.4378 9.55048 20.3905C9.54523 19.3485 8.70517 18.5138 7.66034 18.5086ZM7.66034 21.6918C6.94628 21.697 6.34249 21.106 6.33724 20.3957C6.33724 19.6803 6.92528 19.1048 7.64984 19.1048C8.37964 19.1048 8.95719 19.6803 8.95194 20.4061C8.95194 21.106 8.36914 21.6866 7.66034 21.6918ZM19.059 16.8651C18.1611 16.8496 17.4051 17.5857 17.4051 18.4775C17.4051 19.3536 18.1454 20.0898 19.0327 20.095C19.9253 20.1002 20.6603 19.3796 20.6761 18.493C20.6866 17.6117 19.9568 16.8807 19.059 16.8651ZM19.0327 19.4884C18.4552 19.4833 18.0089 19.0374 18.0089 18.4671C18.0089 17.8864 18.4709 17.4406 19.059 17.451C19.6365 17.4561 20.0723 17.9072 20.067 18.4827C20.0618 19.0478 19.6103 19.4884 19.0327 19.4884ZM19.059 16.8651C18.1611 16.8496 17.4051 17.5857 17.4051 18.4775C17.4051 19.3536 18.1454 20.0898 19.0327 20.095C19.9253 20.1002 20.6603 19.3796 20.6761 18.493C20.6866 17.6117 19.9568 16.8807 19.059 16.8651ZM19.0327 19.4884C18.4552 19.4833 18.0089 19.0374 18.0089 18.4671C18.0089 17.8864 18.4709 17.4406 19.059 17.451C19.6365 17.4561 20.0723 17.9072 20.067 18.4827C20.0618 19.0478 19.6103 19.4884 19.0327 19.4884ZM7.66034 18.5086C6.61026 18.5034 5.74919 19.3536 5.74919 20.4009C5.74919 21.4378 6.59451 22.2725 7.63934 22.2777C8.69992 22.2777 9.55573 21.4378 9.55048 20.3905C9.54523 19.3485 8.70517 18.5138 7.66034 18.5086ZM7.66034 21.6918C6.94628 21.697 6.34249 21.106 6.33724 20.3957C6.33724 19.6803 6.92528 19.1048 7.64984 19.1048C8.37964 19.1048 8.95719 19.6803 8.95194 20.4061C8.95194 21.106 8.36914 21.6866 7.66034 21.6918ZM7.66034 18.5086C6.61026 18.5034 5.74919 19.3536 5.74919 20.4009C5.74919 21.4378 6.59451 22.2725 7.63934 22.2777C8.69992 22.2777 9.55573 21.4378 9.55048 20.3905C9.54523 19.3485 8.70517 18.5138 7.66034 18.5086ZM7.66034 21.6918C6.94628 21.697 6.34249 21.106 6.33724 20.3957C6.33724 19.6803 6.92528 19.1048 7.64984 19.1048C8.37964 19.1048 8.95719 19.6803 8.95194 20.4061C8.95194 21.106 8.36914 21.6866 7.66034 21.6918ZM19.059 16.8651C18.1611 16.8496 17.4051 17.5857 17.4051 18.4775C17.4051 19.3536 18.1454 20.0898 19.0327 20.095C19.9253 20.1002 20.6603 19.3796 20.6761 18.493C20.6866 17.6117 19.9568 16.8807 19.059 16.8651ZM19.0327 19.4884C18.4552 19.4833 18.0089 19.0374 18.0089 18.4671C18.0089 17.8864 18.4709 17.4406 19.059 17.451C19.6365 17.4561 20.0723 17.9072 20.067 18.4827C20.0618 19.0478 19.6103 19.4884 19.0327 19.4884ZM19.059 16.8651C18.1611 16.8496 17.4051 17.5857 17.4051 18.4775C17.4051 19.3536 18.1454 20.0898 19.0327 20.095C19.9253 20.1002 20.6603 19.3796 20.6761 18.493C20.6866 17.6117 19.9568 16.8807 19.059 16.8651ZM19.0327 19.4884C18.4552 19.4833 18.0089 19.0374 18.0089 18.4671C18.0089 17.8864 18.4709 17.4406 19.059 17.451C19.6365 17.4561 20.0723 17.9072 20.067 18.4827C20.0618 19.0478 19.6103 19.4884 19.0327 19.4884ZM7.66034 18.5086C6.61026 18.5034 5.74919 19.3536 5.74919 20.4009C5.74919 21.4378 6.59451 22.2725 7.63934 22.2777C8.69992 22.2777 9.55573 21.4378 9.55048 20.3905C9.54523 19.3485 8.70517 18.5138 7.66034 18.5086ZM7.66034 21.6918C6.94628 21.697 6.34249 21.106 6.33724 20.3957C6.33724 19.6803 6.92528 19.1048 7.64984 19.1048C8.37964 19.1048 8.95719 19.6803 8.95194 20.4061C8.95194 21.106 8.36914 21.6866 7.66034 21.6918ZM7.66034 18.5086C6.61026 18.5034 5.74919 19.3536 5.74919 20.4009C5.74919 21.4378 6.59451 22.2725 7.63934 22.2777C8.69992 22.2777 9.55573 21.4378 9.55048 20.3905C9.54523 19.3485 8.70517 18.5138 7.66034 18.5086ZM7.66034 21.6918C6.94628 21.697 6.34249 21.106 6.33724 20.3957C6.33724 19.6803 6.92528 19.1048 7.64984 19.1048C8.37964 19.1048 8.95719 19.6803 8.95194 20.4061C8.95194 21.106 8.36914 21.6866 7.66034 21.6918ZM7.66034 18.5086C6.61026 18.5034 5.74919 19.3536 5.74919 20.4009C5.74919 21.4378 6.59451 22.2725 7.63934 22.2777C8.69992 22.2777 9.55573 21.4378 9.55048 20.3905C9.54523 19.3485 8.70517 18.5138 7.66034 18.5086ZM7.66034 21.6918C6.94628 21.697 6.34249 21.106 6.33724 20.3957C6.33724 19.6803 6.92528 19.1048 7.64984 19.1048C8.37964 19.1048 8.95719 19.6803 8.95194 20.4061C8.95194 21.106 8.36914 21.6866 7.66034 21.6918ZM7.66034 18.5086C6.61026 18.5034 5.74919 19.3536 5.74919 20.4009C5.74919 21.4378 6.59451 22.2725 7.63934 22.2777C8.69992 22.2777 9.55573 21.4378 9.55048 20.3905C9.54523 19.3485 8.70517 18.5138 7.66034 18.5086ZM7.66034 21.6918C6.94628 21.697 6.34249 21.106 6.33724 20.3957C6.33724 19.6803 6.92528 19.1048 7.64984 19.1048C8.37964 19.1048 8.95719 19.6803 8.95194 20.4061C8.95194 21.106 8.36914 21.6866 7.66034 21.6918ZM7.66034 18.5086C6.61026 18.5034 5.74919 19.3536 5.74919 20.4009C5.74919 21.4378 6.59451 22.2725 7.63934 22.2777C8.69992 22.2777 9.55573 21.4378 9.55048 20.3905C9.54523 19.3485 8.70517 18.5138 7.66034 18.5086ZM7.66034 21.6918C6.94628 21.697 6.34249 21.106 6.33724 20.3957C6.33724 19.6803 6.92528 19.1048 7.64984 19.1048C8.37964 19.1048 8.95719 19.6803 8.95194 20.4061C8.95194 21.106 8.36914 21.6866 7.66034 21.6918ZM7.66034 18.5086C6.61026 18.5034 5.74919 19.3536 5.74919 20.4009C5.74919 21.4378 6.59451 22.2725 7.63934 22.2777C8.69992 22.2777 9.55573 21.4378 9.55048 20.3905C9.54523 19.3485 8.70517 18.5138 7.66034 18.5086ZM7.66034 21.6918C6.94628 21.697 6.34249 21.106 6.33724 20.3957C6.33724 19.6803 6.92528 19.1048 7.64984 19.1048C8.37964 19.1048 8.95719 19.6803 8.95194 20.4061C8.95194 21.106 8.36914 21.6866 7.66034 21.6918ZM7.66034 18.5086C6.61026 18.5034 5.74919 19.3536 5.74919 20.4009C5.74919 21.4378 6.59451 22.2725 7.63934 22.2777C8.69992 22.2777 9.55573 21.4378 9.55048 20.3905C9.54523 19.3485 8.70517 18.5138 7.66034 18.5086ZM7.66034 21.6918C6.94628 21.697 6.34249 21.106 6.33724 20.3957C6.33724 19.6803 6.92528 19.1048 7.64984 19.1048C8.37964 19.1048 8.95719 19.6803 8.95194 20.4061C8.95194 21.106 8.36914 21.6866 7.66034 21.6918ZM7.66034 18.5086C6.61026 18.5034 5.74919 19.3536 5.74919 20.4009C5.74919 21.4378 6.59451 22.2725 7.63934 22.2777C8.69992 22.2777 9.55573 21.4378 9.55048 20.3905C9.54523 19.3485 8.70517 18.5138 7.66034 18.5086ZM7.66034 21.6918C6.94628 21.697 6.34249 21.106 6.33724 20.3957C6.33724 19.6803 6.92528 19.1048 7.64984 19.1048C8.37964 19.1048 8.95719 19.6803 8.95194 20.4061C8.95194 21.106 8.36914 21.6866 7.66034 21.6918ZM7.66034 18.5086C6.61026 18.5034 5.74919 19.3536 5.74919 20.4009C5.74919 21.4378 6.59451 22.2725 7.63934 22.2777C8.69992 22.2777 9.55573 21.4378 9.55048 20.3905C9.54523 19.3485 8.70517 18.5138 7.66034 18.5086ZM7.66034 21.6918C6.94628 21.697 6.34249 21.106 6.33724 20.3957C6.33724 19.6803 6.92528 19.1048 7.64984 19.1048C8.37964 19.1048 8.95719 19.6803 8.95194 20.4061C8.95194 21.106 8.36914 21.6866 7.66034 21.6918ZM7.66034 18.5086C6.61026 18.5034 5.74919 19.3536 5.74919 20.4009C5.74919 21.4378 6.59451 22.2725 7.63934 22.2777C8.69992 22.2777 9.55573 21.4378 9.55048 20.3905C9.54523 19.3485 8.70517 18.5138 7.66034 18.5086ZM7.66034 21.6918C6.94628 21.697 6.34249 21.106 6.33724 20.3957C6.33724 19.6803 6.92528 19.1048 7.64984 19.1048C8.37964 19.1048 8.95719 19.6803 8.95194 20.4061C8.95194 21.106 8.36914 21.6866 7.66034 21.6918ZM7.66034 18.5086C6.61026 18.5034 5.74919 19.3536 5.74919 20.4009C5.74919 21.4378 6.59451 22.2725 7.63934 22.2777C8.69992 22.2777 9.55573 21.4378 9.55048 20.3905C9.54523 19.3485 8.70517 18.5138 7.66034 18.5086ZM7.66034 21.6918C6.94628 21.697 6.34249 21.106 6.33724 20.3957C6.33724 19.6803 6.92528 19.1048 7.64984 19.1048C8.37964 19.1048 8.95719 19.6803 8.95194 20.4061C8.95194 21.106 8.36914 21.6866 7.66034 21.6918Z" fill="white"/>
<path d="M7.66035 18.5086C6.61027 18.5034 5.74921 19.3536 5.74921 20.4009C5.74921 21.4378 6.59452 22.2725 7.63935 22.2777C8.69993 22.2777 9.55575 21.4378 9.5505 20.3905C9.54525 19.3484 8.70518 18.5138 7.66035 18.5086ZM7.66035 21.6918C6.9463 21.697 6.3425 21.106 6.33725 20.3957C6.33725 19.6803 6.9253 19.1048 7.64985 19.1048C8.37966 19.1048 8.9572 19.6803 8.95195 20.4061C8.95195 21.106 8.36916 21.6866 7.66035 21.6918Z" fill="#FEFEFE"/>
<path d="M19.059 16.8651C18.1611 16.8496 17.4051 17.5857 17.4051 18.4775C17.4051 19.3536 18.1454 20.0898 19.0327 20.095C19.9253 20.1002 20.6603 19.3796 20.6761 18.493C20.6866 17.6117 19.9568 16.8807 19.059 16.8651ZM19.0327 19.4884C18.4552 19.4833 18.0089 19.0374 18.0089 18.4671C18.0089 17.8864 18.4709 17.4406 19.059 17.451C19.6365 17.4561 20.0723 17.9072 20.067 18.4827C20.0618 19.0478 19.6103 19.4884 19.0327 19.4884Z" fill="#FEFEFE"/>
<path d="M7.66035 18.5086C6.61027 18.5034 5.74921 19.3536 5.74921 20.4009C5.74921 21.4378 6.59452 22.2725 7.63935 22.2777C8.69993 22.2777 9.55575 21.4378 9.5505 20.3905C9.54525 19.3484 8.70518 18.5138 7.66035 18.5086ZM7.66035 21.6918C6.9463 21.697 6.3425 21.106 6.33725 20.3957C6.33725 19.6803 6.9253 19.1048 7.64985 19.1048C8.37966 19.1048 8.9572 19.6803 8.95195 20.4061C8.95195 21.106 8.36916 21.6866 7.66035 21.6918Z" fill="white"/>
<path d="M19.059 16.8651C18.1611 16.8496 17.4051 17.5857 17.4051 18.4775C17.4051 19.3536 18.1454 20.0898 19.0327 20.095C19.9253 20.1002 20.6603 19.3796 20.6761 18.493C20.6866 17.6117 19.9568 16.8807 19.059 16.8651ZM19.0327 19.4884C18.4552 19.4833 18.0089 19.0374 18.0089 18.4671C18.0089 17.8864 18.4709 17.4406 19.059 17.451C19.6365 17.4561 20.0723 17.9072 20.067 18.4827C20.0618 19.0478 19.6103 19.4884 19.0327 19.4884Z" fill="white"/>
</svg>
