<svg width="22" height="26" viewBox="0 0 22 26" fill="none" xmlns="http://www.w3.org/2000/svg">
<g clip-path="url(#clip0_639_1959)">
<path d="M21.9613 14.9887C21.9768 15.1774 21.9768 15.3661 21.9768 15.5547C21.9768 18.3774 21.9768 21.2 21.9768 24.0227C21.9768 24.9585 21.4655 25.6529 20.6134 25.8944C20.3733 25.9623 20.1176 25.9774 19.8697 25.9774C16.9028 25.9774 13.9359 25.9774 10.9768 25.9774C7.99438 25.9774 5.00424 25.9774 2.02185 25.9774C1.03804 25.9774 0.294381 25.434 0.0774797 24.5661C0.0310009 24.3849 0.0232544 24.1963 0.0232544 24.0076C0.0232544 21.1019 0.0232544 18.1887 0.0232544 15.283C0.0232544 14.0529 0.797902 13.2981 2.06833 13.2981C4.50072 13.2981 6.93311 13.2906 9.37325 13.3057C9.61339 13.3057 9.68311 13.2453 9.66762 13.0113C9.64438 12.6566 9.64438 12.2944 9.66762 11.9396C9.68311 11.7132 9.5979 11.6604 9.38875 11.683C9.23382 11.6981 9.07889 11.6906 8.92396 11.683C8.49016 11.6453 8.21903 11.3661 8.21128 10.9434C8.20354 10.5887 8.20354 10.2264 8.21128 9.87172C8.21128 9.56984 8.28875 9.49437 8.6141 9.49437C9.05565 9.48682 9.05565 9.48682 9.02466 9.04908C8.9472 7.91701 8.65283 6.8604 7.89368 5.96984C6.32114 4.12078 7.22748 1.64531 8.93171 0.588705C11.2789 -0.875446 14.6021 0.664177 14.8965 3.36606C14.9972 4.30946 14.7726 5.1321 14.1838 5.87172C13.5951 6.61135 13.1845 7.42644 13.0683 8.36984C13.0296 8.68682 13.0141 9.0038 12.9754 9.32078C12.9599 9.46418 13.0141 9.50946 13.1535 9.49437C13.2233 9.48682 13.293 9.49437 13.3549 9.49437C13.7268 9.49437 13.7965 9.56229 13.7965 9.92455C13.7965 10.2566 13.8042 10.5812 13.7965 10.9132C13.7887 11.3887 13.5099 11.6679 13.0373 11.6981C12.8204 11.7132 12.5183 11.6076 12.3944 11.7434C12.2472 11.9019 12.3556 12.1887 12.3479 12.4227C12.3402 12.6264 12.3634 12.8378 12.3402 13.0415C12.3169 13.268 12.4021 13.3208 12.6268 13.3208C15.0514 13.3132 17.4761 13.3132 19.9007 13.3132C20.2106 13.3132 20.5204 13.3283 20.8071 13.4566C21.4965 13.7359 21.8916 14.2491 21.9613 14.9887ZM21.3726 24.0151C21.3726 21.1019 21.3726 18.1812 21.3726 15.2604C21.3726 14.4 20.8535 13.8944 19.9704 13.8944C17.7627 13.8944 15.5472 13.8944 13.3317 13.8944C13.0141 13.8944 12.6965 13.9095 12.3789 13.9095C12.3092 14.234 12.3711 14.5585 12.3402 14.8906C12.3247 15.0566 12.3789 15.1246 12.5648 15.117C12.8437 15.1019 13.1226 15.1095 13.4014 15.1095C14.2458 15.117 14.7338 15.5925 14.7416 16.4076C14.7493 18.5585 14.7493 20.717 14.7416 22.8755C14.7416 23.6529 14.238 24.151 13.4402 24.1585C11.8056 24.1661 10.1711 24.1661 8.54438 24.1585C7.75424 24.151 7.25072 23.6529 7.24297 22.8755C7.23523 20.7095 7.23523 18.551 7.24297 16.3849C7.24297 15.6151 7.73875 15.1396 8.52114 15.117C8.82325 15.1095 9.11762 15.1095 9.41973 15.117C9.60565 15.1246 9.65213 15.0566 9.64438 14.8906C9.62889 14.6642 9.62889 14.4378 9.64438 14.2113C9.66762 13.9623 9.5979 13.8793 9.31903 13.8868C6.89438 13.9019 4.46973 13.8944 2.04509 13.8944C1.11551 13.8944 0.611987 14.3849 0.611987 15.283C0.611987 18.1736 0.62748 21.0642 0.60424 23.9472C0.596494 24.717 1.10776 25.3887 2.07607 25.3736C5.04297 25.3434 8.00987 25.3661 10.969 25.3661C13.9592 25.3661 16.9571 25.3661 19.9549 25.3661C20.8613 25.3736 21.3726 24.8755 21.3726 24.0151ZM14.1296 22.8604C14.1296 21.7887 14.1296 20.717 14.1296 19.6453V16.3698C14.1218 15.9547 13.8895 15.7208 13.4711 15.7132C13.2 15.7057 12.9289 15.7283 12.6578 15.7057C12.4254 15.6906 12.3479 15.7434 12.3479 15.9925C12.3634 16.7246 12.3556 17.4566 12.3556 18.1963C12.3479 19.0717 12.3479 19.9472 12.3402 20.8227C12.3247 21.683 11.1937 22.4453 10.2176 21.7887C9.76832 21.4868 9.62889 21.0491 9.63663 20.5434C9.64438 19.0264 9.62889 17.517 9.64438 16C9.64438 15.7585 9.57466 15.6906 9.34227 15.7132C9.09438 15.7359 8.83875 15.7132 8.59086 15.7208C8.09509 15.7208 7.87044 15.9396 7.87044 16.4302C7.87044 18.5736 7.87044 20.7246 7.87044 22.868C7.87044 23.3585 8.08734 23.5698 8.59861 23.5698C10.2021 23.5698 11.8056 23.5698 13.4092 23.5698C13.9127 23.5623 14.1296 23.351 14.1296 22.8604ZM13.719 5.45663C14.4162 4.58871 14.4627 3.63021 14.0676 2.63399C13.843 2.06795 13.4711 1.60003 12.9444 1.23776C12.5571 2.21889 12.6113 3.20003 12.7585 4.18116C12.8592 4.83776 12.4564 5.31323 11.7824 5.32833C11.2634 5.33587 10.7366 5.33587 10.2176 5.32833C9.54368 5.32078 9.13311 4.83776 9.23382 4.1887C9.381 3.20757 9.43523 2.22644 9.05565 1.25286C8.12607 1.78116 7.52185 3.18493 7.71551 4.27927C7.81621 4.86795 8.18804 5.32078 8.5134 5.7887C8.62185 5.93965 8.72255 6.00757 8.92396 6.00003C9.59016 5.96984 10.1944 6.40757 10.4035 7.01135C10.6127 7.61512 10.419 8.31701 9.87678 8.67172C9.62114 8.83776 9.59016 9.01889 9.62114 9.2755C9.63663 9.41889 9.69086 9.46418 9.83804 9.46418C10.5972 9.45663 11.3641 9.46418 12.1233 9.46418C12.1852 9.46418 12.2627 9.47927 12.3092 9.42644C12.4176 9.29814 12.3402 8.8604 12.1852 8.76229C11.6197 8.39248 11.3641 7.75097 11.5268 7.13965C11.6972 6.52078 12.224 6.03021 12.8902 6.02267C13.262 6.01512 13.4479 5.86418 13.6028 5.59248C13.6493 5.54719 13.6803 5.50191 13.719 5.45663ZM12.4021 11.0793C13.2078 11.0793 13.2 11.0793 13.1923 10.2868C13.1923 10.1132 13.1458 10.0604 12.9676 10.0679C12.3247 10.0755 11.674 10.0755 11.031 10.0755C11.031 10.083 11.031 10.083 11.031 10.0906C10.6127 10.0906 10.2021 10.0906 9.78382 10.0906C9.70635 10.0906 9.62889 10.083 9.55142 10.0755C8.79227 10.0453 8.80001 10.0453 8.80001 10.8C8.80001 11.0189 8.86973 11.0944 9.10213 11.0944C10.2021 11.0717 11.3021 11.0793 12.4021 11.0793ZM12.4564 8.21889C12.5648 7.63776 12.712 7.12455 12.9599 6.61135C12.5416 6.67172 12.2859 6.8755 12.162 7.21512C12.0225 7.58493 12.1387 7.90946 12.4564 8.21889ZM12.3479 1.08682C12.4021 0.935875 12.3556 0.890592 12.224 0.845309C11.9993 0.769837 11.7669 0.709459 11.5345 0.656629C11.3409 0.611346 11.2866 0.649082 11.2944 0.852856C11.3021 1.74342 11.2944 2.64154 11.3021 3.5321C11.3021 3.73587 11.2479 3.90191 11.0155 3.90946C10.7599 3.91701 10.6979 3.75097 10.6979 3.5321C10.7056 3.09437 10.6979 2.64908 10.6979 2.2038C10.6979 1.93965 10.6979 1.6755 10.6979 1.41135C10.6979 0.490592 10.6979 0.498139 9.79156 0.837761C9.62889 0.898139 9.5979 0.950969 9.65213 1.11701C9.88452 1.75852 9.98523 2.42267 9.95424 3.10946C9.93875 3.49437 9.88452 3.87927 9.83804 4.25663C9.79931 4.61135 9.92325 4.7472 10.2873 4.7472C10.7211 4.7472 11.1549 4.7472 11.5887 4.7472C12.1078 4.7472 12.2162 4.61889 12.131 4.11323C11.9683 3.09437 11.9838 2.0755 12.3479 1.08682ZM11.7437 11.9472C11.7514 11.7283 11.6817 11.6755 11.4726 11.683C11.1627 11.6981 10.8528 11.6981 10.543 11.683C10.3183 11.668 10.2486 11.7283 10.2564 11.9547C10.2718 13.3963 10.2641 14.8302 10.2641 16.2717H10.2951C10.2951 17.3359 10.2951 18.4 10.2951 19.4642C10.2951 19.8944 10.2873 20.3321 10.3028 20.7623C10.3183 21.2 10.7754 21.4944 11.2014 21.3585C11.5578 21.2453 11.7049 21.034 11.7049 20.6113C11.7127 18.7774 11.7127 16.9434 11.7204 15.1095C11.7204 14.0529 11.7204 13.0038 11.7437 11.9472ZM9.53593 8.2038C9.88452 7.87927 9.96973 7.52455 9.8148 7.16229C9.67537 6.84531 9.37325 6.63399 9.0479 6.64908C9.28804 7.12455 9.42748 7.63776 9.53593 8.2038Z" fill="white"/>
<path d="M20.0944 19.4491C20.1021 19.5623 20.0944 19.6755 20.0944 19.7887C20.0867 20.2642 19.7923 20.5661 19.3043 20.5736C18.8937 20.5812 18.4754 20.5736 18.0648 20.5736C17.6698 20.5736 17.2747 20.5812 16.8796 20.5736C16.3451 20.5661 16.0507 20.2717 16.043 19.7434C16.043 19.6378 16.0352 19.5321 16.043 19.434C16.0662 19.0113 16.3683 18.7095 16.8021 18.7095C17.6388 18.7019 18.4754 18.7019 19.3198 18.7095C19.7768 18.7095 20.0789 19.0113 20.0944 19.4491ZM19.1958 19.9925C19.4824 20.0076 19.4979 19.8415 19.4902 19.6378C19.4902 19.4415 19.4824 19.2906 19.2036 19.2981C18.4521 19.3132 17.7007 19.3132 16.9493 19.2981C16.655 19.2906 16.655 19.4491 16.655 19.6529C16.6472 19.8793 16.6937 20.0076 16.9648 19.9925C17.3289 19.9774 17.693 19.9925 18.0648 19.9925C18.4444 19.9849 18.8162 19.9698 19.1958 19.9925Z" fill="white"/>
<path d="M20.1021 16.6868C20.1021 16.7774 20.1021 16.8755 20.1021 16.9661C20.0944 17.4566 19.8078 17.7585 19.2965 17.7661C18.8859 17.7812 18.4676 17.7661 18.0571 17.7661C17.6697 17.7661 17.2824 17.7736 16.9028 17.7661C16.3451 17.7585 16.0585 17.4642 16.0507 16.9208C16.0507 16.8378 16.0507 16.7548 16.0507 16.6642C16.0662 16.2038 16.3528 15.9019 16.8254 15.8944C17.662 15.8793 18.4986 15.8793 19.343 15.8944C19.8078 15.917 20.0866 16.2265 20.1021 16.6868ZM19.4902 16.8378C19.4902 16.6717 19.5289 16.4906 19.25 16.4906C18.4676 16.4982 17.6852 16.4982 16.9106 16.4906C16.624 16.4831 16.6704 16.6717 16.6704 16.8302C16.6704 16.9963 16.624 17.1849 16.9106 17.1774C17.2979 17.1623 17.6775 17.1774 18.0648 17.1774C18.4599 17.1774 18.8549 17.1698 19.25 17.1774C19.5289 17.1925 19.4902 17.0038 19.4902 16.8378Z" fill="white"/>
<path d="M20.0944 22.234C20.1021 22.3472 20.0944 22.4604 20.0944 22.5736C20.0866 23.0642 19.7922 23.3585 19.2887 23.3811C19.2732 23.3811 19.25 23.3811 19.2268 23.3811H18.0725C17.6775 23.3811 17.2824 23.3887 16.8873 23.3811C16.3528 23.3736 16.0507 23.0793 16.043 22.5585C16.043 22.4377 16.0352 22.317 16.0507 22.1962C16.0894 21.8189 16.3528 21.5321 16.7401 21.5245C17.6232 21.5094 18.5141 21.5019 19.3972 21.5245C19.8077 21.5245 20.0789 21.8264 20.0944 22.234ZM19.2345 22.7774C19.5056 22.7849 19.4901 22.6189 19.4901 22.4453C19.4901 22.2642 19.5211 22.0755 19.2268 22.083C18.8394 22.0981 18.4599 22.083 18.0725 22.083C17.6852 22.083 17.2979 22.0906 16.9183 22.083C16.6162 22.0755 16.6704 22.2717 16.6627 22.4453C16.6549 22.6264 16.6549 22.7774 16.9183 22.7698C17.693 22.7623 18.4599 22.7623 19.2345 22.7774Z" fill="white"/>
<path d="M5.52327 21.5774C5.8951 21.751 6.05777 22.2189 5.93383 22.7623C5.85636 23.117 5.56974 23.351 5.16693 23.3661C4.75636 23.3812 4.33805 23.3661 3.92749 23.3661C3.53242 23.3661 3.13735 23.3736 2.74228 23.3661C2.20003 23.3585 1.90566 23.0642 1.89791 22.5434C1.89791 22.4227 1.89017 22.3019 1.89791 22.1736C1.9289 21.8114 2.19228 21.5246 2.55636 21.5019C3.4627 21.4642 4.36904 21.4717 5.27538 21.5019C5.36059 21.517 5.4458 21.5472 5.52327 21.5774ZM5.07397 22.7774C5.3451 22.7849 5.3451 22.634 5.33735 22.4529C5.3296 22.2793 5.39157 22.0755 5.08946 22.0906C4.70214 22.0982 4.31481 22.0906 3.93524 22.0906C3.54791 22.0906 3.16059 22.0982 2.78101 22.0906C2.48665 22.0831 2.51763 22.2642 2.51763 22.4453C2.51763 22.6189 2.49439 22.7849 2.77327 22.7774C3.53242 22.7623 4.30707 22.7623 5.07397 22.7774Z" fill="white"/>
<path d="M5.9493 16.8076C5.9493 16.9132 5.95704 17.0189 5.94155 17.117C5.88732 17.5094 5.58521 17.7736 5.13592 17.7736C4.33028 17.7811 3.5169 17.7811 2.71127 17.7736C2.19225 17.766 1.90563 17.4642 1.89789 16.951C1.89789 16.8679 1.89789 16.7849 1.89789 16.6943C1.90563 16.2038 2.19225 15.917 2.70352 15.8943C2.71902 15.8943 2.74225 15.8943 2.76549 15.8943H3.91972C4.2838 15.8943 4.65563 15.8943 5.01972 15.8943C5.67817 15.9019 5.9493 16.1736 5.9493 16.8076ZM5.33732 16.8377C5.33732 16.6793 5.39155 16.483 5.10493 16.4906C4.71761 16.4981 4.33028 16.4906 3.95071 16.4906C3.55563 16.4906 3.16056 16.4981 2.76549 16.4906C2.48662 16.483 2.51761 16.6642 2.51761 16.8302C2.51761 16.9962 2.47113 17.1774 2.75775 17.1774C3.54014 17.1698 4.32254 17.1698 5.09718 17.1774C5.37606 17.1849 5.33732 17.0038 5.33732 16.8377Z" fill="white"/>
<path d="M5.91056 19.2453C5.98028 19.5019 5.98028 19.766 5.91056 20.0226C5.82535 20.3623 5.56197 20.5585 5.19789 20.566C4.77183 20.5736 4.35352 20.566 3.92747 20.566C3.54014 20.566 3.15282 20.566 2.77324 20.566C2.19225 20.5585 1.90563 20.2792 1.89789 19.7208C1.89789 19.6302 1.89789 19.5321 1.89789 19.4415C1.91338 19.0189 2.21549 18.7094 2.6493 18.7019C3.50141 18.6943 4.34578 18.6943 5.19014 18.7019C5.55423 18.7094 5.82535 18.9132 5.91056 19.2453ZM5.33732 19.6226C5.34507 19.4415 5.34507 19.283 5.08169 19.2906C4.69437 19.3057 4.30704 19.2981 3.92747 19.2981C3.54014 19.2981 3.15282 19.3057 2.77324 19.2981C2.50211 19.2906 2.51761 19.4491 2.51761 19.6302C2.51761 19.8113 2.49437 19.9925 2.78099 19.9925C3.55563 19.9849 4.32254 19.9849 5.09718 19.9925C5.37606 19.9925 5.32958 19.7962 5.33732 19.6226Z" fill="white"/>
</g>
<defs>
<clipPath id="clip0_639_1959">
<rect width="22" height="26" fill="white"/>
</clipPath>
</defs>
</svg>
