<svg width="28" height="26" viewBox="0 0 28 26" fill="none" xmlns="http://www.w3.org/2000/svg">
<path d="M21.5396 20.4375C20.5889 20.4297 19.7862 21.2109 19.7784 22.1641C19.7707 23.1406 20.5422 23.9297 21.5163 23.9375C22.4826 23.9453 23.2697 23.1797 23.2775 22.2188C23.2853 21.2422 22.5138 20.4453 21.5396 20.4375ZM21.5396 23.3516C20.8928 23.3594 20.3707 22.8438 20.3629 22.2031C20.3551 21.5625 20.8772 21.0313 21.5163 21.0234C22.1553 21.0156 22.6852 21.5391 22.693 22.1875C22.7008 22.8281 22.1943 23.3516 21.5396 23.3516ZM21.5396 20.4375C20.5889 20.4297 19.7862 21.2109 19.7784 22.1641C19.7707 23.1406 20.5422 23.9297 21.5163 23.9375C22.4826 23.9453 23.2697 23.1797 23.2775 22.2188C23.2853 21.2422 22.5138 20.4453 21.5396 20.4375ZM21.5396 23.3516C20.8928 23.3594 20.3707 22.8438 20.3629 22.2031C20.3551 21.5625 20.8772 21.0313 21.5163 21.0234C22.1553 21.0156 22.6852 21.5391 22.693 22.1875C22.7008 22.8281 22.1943 23.3516 21.5396 23.3516ZM6.08627 20.2344C5.10436 20.2266 4.32506 21 4.32506 21.9766C4.32506 22.9375 5.09656 23.7266 6.05509 23.7344C7.01362 23.7422 7.82409 22.9453 7.82409 21.9844C7.82409 21.0234 7.0448 20.2422 6.08627 20.2344ZM6.07847 23.1563C5.43945 23.1641 4.90953 22.6406 4.90953 21.9922C4.90953 21.3438 5.41607 20.8281 6.06289 20.8203C6.7097 20.8125 7.23183 21.3359 7.23962 21.9766C7.23962 22.6172 6.7097 23.1563 6.07847 23.1563ZM21.5396 20.4375C20.5889 20.4297 19.7862 21.2109 19.7784 22.1641C19.7707 23.1406 20.5422 23.9297 21.5163 23.9375C22.4826 23.9453 23.2697 23.1797 23.2775 22.2188C23.2853 21.2422 22.5138 20.4453 21.5396 20.4375ZM21.5396 23.3516C20.8928 23.3594 20.3707 22.8438 20.3629 22.2031C20.3551 21.5625 20.8772 21.0313 21.5163 21.0234C22.1553 21.0156 22.6852 21.5391 22.693 22.1875C22.7008 22.8281 22.1943 23.3516 21.5396 23.3516ZM21.5396 20.4375C20.5889 20.4297 19.7862 21.2109 19.7784 22.1641C19.7707 23.1406 20.5422 23.9297 21.5163 23.9375C22.4826 23.9453 23.2697 23.1797 23.2775 22.2188C23.2853 21.2422 22.5138 20.4453 21.5396 20.4375ZM21.5396 23.3516C20.8928 23.3594 20.3707 22.8438 20.3629 22.2031C20.3551 21.5625 20.8772 21.0313 21.5163 21.0234C22.1553 21.0156 22.6852 21.5391 22.693 22.1875C22.7008 22.8281 22.1943 23.3516 21.5396 23.3516ZM6.08627 20.2344C5.10436 20.2266 4.32506 21 4.32506 21.9766C4.32506 22.9375 5.09656 23.7266 6.05509 23.7344C7.01362 23.7422 7.82409 22.9453 7.82409 21.9844C7.82409 21.0234 7.0448 20.2422 6.08627 20.2344ZM6.07847 23.1563C5.43945 23.1641 4.90953 22.6406 4.90953 21.9922C4.90953 21.3438 5.41607 20.8281 6.06289 20.8203C6.7097 20.8125 7.23183 21.3359 7.23962 21.9766C7.23962 22.6172 6.7097 23.1563 6.07847 23.1563ZM20.2304 11.5C20.1993 11.6719 20.2304 11.7969 20.3551 11.9219C20.659 12.2188 20.963 12.5234 21.2669 12.8359C21.4461 13.0156 21.6098 13.0313 21.789 12.8438C23.8152 10.8125 25.8413 8.78125 27.8675 6.75C28.0467 6.57031 28.0389 6.40625 27.8597 6.21875C25.8413 4.19531 23.8152 2.17188 21.7968 0.140625C21.6098 -0.046875 21.4383 -0.046875 21.2513 0.140625C19.2407 2.17188 17.2224 4.19531 15.1962 6.21875C15.017 6.39844 15.0092 6.5625 15.1962 6.74219C15.4845 7.03125 15.7807 7.3125 16.0612 7.60938C16.2171 7.78125 16.3963 7.82031 16.6067 7.77344C16.8951 7.71875 17.1834 7.67188 17.4639 7.625C17.7757 7.57031 18.0952 7.52344 18.4069 7.47656C16.8951 9.07031 15.3599 10.6016 13.8324 12.1406C13.6922 12.2813 13.6298 12.1953 13.5363 12.1016C12.2739 10.8359 11.0114 9.5625 9.74894 8.29688C9.6866 8.23438 9.60867 8.19531 9.59308 8.08594C10.2165 8.1875 10.84 8.28906 11.4634 8.40625C11.6582 8.44531 11.7985 8.40625 11.931 8.26563C12.2037 7.98438 12.4765 7.71094 12.757 7.4375C13.0454 7.14063 13.0454 7.0625 12.757 6.76563C11.6348 5.64063 10.5204 4.52344 9.39826 3.39844C8.50987 2.52344 7.63706 1.64844 6.76425 0.773438C6.53826 0.546875 6.42915 0.546875 6.20316 0.773438C6.05509 0.914063 5.91482 1.0625 5.76676 1.21094C3.91204 3.0625 2.05732 4.92188 0.202603 6.78125C-0.0545639 7.03906 -0.0701498 7.14844 0.148052 7.36719C2.16642 9.39063 4.18479 11.4141 6.21095 13.4453C6.40578 13.6406 6.57722 13.6328 6.75646 13.4453C7.037 13.1563 7.30976 12.875 7.59809 12.6016C7.75395 12.4531 7.8163 12.3047 7.76954 12.0859C7.65264 11.4688 7.56692 10.8438 7.45782 10.2031C7.51237 10.2344 7.53575 10.2422 7.55913 10.2656C8.87613 11.5781 10.1853 12.8984 11.5024 14.2109C11.6582 14.3672 11.5569 14.4297 11.4634 14.5234C10.3334 15.6484 9.20344 16.7813 8.08905 17.9141C7.88643 18.1172 7.7072 18.2188 7.38768 18.2109C6.51488 18.1641 5.64207 18.1953 4.76147 18.1953C4.58223 18.1953 4.44975 18.2422 4.32506 18.375C3.70163 19.0078 3.07819 19.6328 2.44697 20.2578C2.33007 20.375 2.27552 20.5 2.27552 20.6719C2.28332 21.5625 2.28332 22.4453 2.27552 23.3281C2.27552 23.4922 2.32228 23.625 2.43917 23.7422C3.07819 24.375 3.70942 25.0078 4.33286 25.6406C4.45754 25.7656 4.59782 25.8125 4.76926 25.8125C5.62648 25.8047 6.47591 25.8047 7.33313 25.8125C7.53575 25.8125 7.68382 25.7578 7.82409 25.6094C8.19036 25.2266 8.53325 24.8203 8.93848 24.5C9.69439 23.9219 9.99052 23.2109 9.86584 22.2578C9.7957 21.7109 9.89701 21.1484 9.83466 20.5938C9.80349 20.3281 9.89701 20.2109 10.0451 20.0625C11.1906 18.9141 12.344 17.7656 13.4818 16.6094C13.6376 16.4453 13.7233 16.4453 13.8792 16.6094C15.0637 17.8125 16.256 19 17.4406 20.1875C17.6276 20.375 17.7601 20.5234 17.7367 20.8594C17.6744 21.75 17.7211 22.6484 17.7133 23.5469C17.7133 23.7031 17.7679 23.8203 17.877 23.9375C18.5082 24.5703 19.1472 25.2031 19.7707 25.8359C19.8875 25.9531 20.02 26.0078 20.1837 26.0078C21.0643 26.0078 21.9527 26.0078 22.8333 26.0078C22.9969 26.0078 23.1294 25.9609 23.2463 25.8359C23.8697 25.2031 24.4932 24.5781 25.1244 23.9531C25.2491 23.8281 25.3114 23.6953 25.3036 23.5156C25.2958 22.6406 25.2958 21.7656 25.3036 20.8828C25.3036 20.6875 25.2413 20.5547 25.1088 20.4219C24.6958 20.0234 24.2516 19.6484 23.9009 19.1953C23.3788 18.5313 22.7553 18.2656 21.9137 18.3672C21.3292 18.4375 20.7292 18.3438 20.1369 18.3984C19.8642 18.4219 19.7239 18.3359 19.5524 18.1641C18.3445 16.9453 17.1366 15.7344 15.9209 14.5313C15.7651 14.3828 15.7651 14.3047 15.9209 14.1484C17.3938 12.6875 18.8511 11.2188 20.3162 9.75C20.3707 9.69531 20.4019 9.625 20.511 9.60938C20.5032 9.67969 20.5032 9.74219 20.4954 9.80469C20.4253 10.3672 20.3317 10.9375 20.2304 11.5ZM20.737 1.48438C20.963 1.28906 21.1734 1.07031 21.376 0.84375C21.4773 0.734375 21.5396 0.703125 21.6721 0.828125C23.5424 2.71094 25.4205 4.58594 27.322 6.49219C27.0025 6.80469 26.683 7.10156 26.3791 7.41406C26.27 7.52344 26.2232 7.46094 26.1531 7.39063C25.9193 7.15625 25.6855 6.92188 25.4517 6.6875C23.8775 5.10938 22.3111 3.53125 20.7292 1.96875C20.5188 1.76563 20.5344 1.65625 20.737 1.48438ZM1.58974 7.99219C1.36375 7.75 1.13775 7.51563 0.888381 7.28906C0.732522 7.14844 0.724729 7.07031 0.880588 6.91406C2.39242 5.42188 3.89645 3.91406 5.40049 2.40625C5.7122 2.09375 6.01613 1.78906 6.32785 1.47656C6.3746 1.42969 6.42136 1.38281 6.4837 1.32813C6.53826 1.375 6.57722 1.41406 6.62398 1.45313C6.88114 1.70313 7.12273 1.96875 7.38768 2.21094C7.50458 2.32031 7.48899 2.38281 7.38768 2.48438C5.54855 4.32031 3.71721 6.15625 1.89367 7.99219C1.76119 8.125 1.69885 8.10938 1.58974 7.99219ZM6.96687 9.50781C6.86556 9.60938 6.79542 9.71875 6.8188 9.86719C6.9279 10.5313 7.02142 11.1953 7.1539 11.8516C7.20065 12.0781 7.16948 12.2344 6.99025 12.3828C6.81101 12.5313 6.65515 12.8203 6.4837 12.8203C6.32005 12.8203 6.14082 12.5391 5.97716 12.375C4.76147 11.1563 3.54577 9.9375 2.33007 8.72656C2.1898 8.58594 2.17421 8.51563 2.32228 8.36719C4.13803 6.5625 5.95379 4.74219 7.76175 2.92188C7.89423 2.78906 7.95657 2.78125 8.08905 2.92188C9.42164 4.27344 10.762 5.60938 12.1024 6.95313C12.2271 7.07813 12.2037 7.13281 12.1024 7.26563C11.7517 7.74219 11.3309 7.88281 10.7542 7.70313C10.2944 7.5625 9.80349 7.53125 9.32033 7.45313C9.14109 7.42188 9.00861 7.46094 8.87613 7.59375C8.24491 8.23438 7.60589 8.875 6.96687 9.50781ZM7.84747 9.71094C7.76175 9.625 7.72278 9.57031 7.83188 9.46094C8.16698 9.14063 8.50207 8.80469 8.82158 8.46875C8.93069 8.35156 8.99303 8.375 9.09434 8.47656C10.4425 9.83594 11.7985 11.1875 13.1467 12.5469C13.1856 12.5859 13.2246 12.6328 13.2713 12.6797C13.2246 12.7344 13.1934 12.7734 13.1545 12.8203C12.8272 13.1484 12.4921 13.4766 12.1725 13.8125C12.0634 13.9219 12.0089 13.8828 11.9232 13.7969C10.5672 12.4375 9.20344 11.0703 7.84747 9.71094ZM9.23461 23.3047C9.08654 23.6797 8.65014 23.9375 8.34622 24.25C8.0345 24.5703 7.76175 25.0078 7.37989 25.1641C6.99025 25.3281 6.48371 25.2109 6.03171 25.2109C5.6031 25.2109 5.12773 25.3203 4.76926 25.1719C4.41079 25.0234 4.14583 24.6094 3.8419 24.3047C3.5146 23.9766 3.0704 23.6875 2.89896 23.2891C2.73531 22.8984 2.85999 22.3906 2.85999 21.9297C2.85999 21.5 2.75868 21.0313 2.90675 20.6641C3.05482 20.3047 3.46005 20.0547 3.75618 19.7578C4.08348 19.4297 4.37182 18.9844 4.76926 18.8125C5.15891 18.6484 5.66545 18.7656 6.12523 18.7734C6.55384 18.7734 7.02142 18.6719 7.38768 18.8203C7.74616 18.9688 7.99553 19.375 8.29167 19.6719C8.58 19.9609 8.86834 20.25 9.15668 20.5391C9.2502 20.625 9.28916 20.7188 9.28137 20.8438C9.27357 21.2266 9.28137 21.6016 9.28137 21.9844H9.27357C9.27357 22.4219 9.39047 22.9219 9.23461 23.3047ZM20.0668 19.1094C20.1681 19.0078 20.2772 18.9609 20.4253 18.9609C21.1656 18.9688 21.8981 18.9688 22.6384 18.9609C22.7865 18.9609 22.8878 19 22.9969 19.1016C23.5346 19.6484 24.0801 20.1953 24.6256 20.7344C24.7192 20.8281 24.7503 20.9141 24.7503 21.0391C24.7425 21.4297 24.7503 21.8203 24.7503 22.2109H24.7347C24.7347 22.6484 24.8516 23.1328 24.7036 23.5078C24.5477 23.8828 24.1269 24.1484 23.823 24.4531C23.5113 24.7734 23.2385 25.2031 22.8567 25.3594C22.4748 25.5234 21.976 25.4063 21.5319 25.4141C21.1734 25.4141 20.8149 25.4063 20.4564 25.4141C20.285 25.4219 20.1681 25.3594 20.0512 25.2422C19.5369 24.7109 19.0147 24.1953 18.4848 23.6719C18.3679 23.5625 18.329 23.4453 18.329 23.2891C18.3368 22.5469 18.3368 21.8125 18.329 21.0703C18.329 20.9219 18.3679 20.8203 18.4692 20.7109C18.9992 20.1875 19.5369 19.6484 20.0668 19.1094ZM19.342 18.7578C19.4356 18.8594 19.4511 18.9141 19.3498 19.0156C18.9758 19.3828 18.6173 19.7578 18.2432 20.1406C16.8873 18.7812 15.5625 17.4453 14.2299 16.1172C14.1208 16.0078 14.1442 15.9609 14.2377 15.8672C14.5728 15.5391 14.9001 15.2109 15.2274 14.875C15.3287 14.7734 15.3832 14.7813 15.4845 14.875C16.7626 16.1719 18.0562 17.4688 19.342 18.7578ZM20.0902 9.17188C17.5653 11.6953 15.0403 14.2266 12.5232 16.75C11.5335 17.7422 10.5438 18.7344 9.55412 19.7266C9.49178 19.7891 9.42943 19.8438 9.36709 19.8984C9.32033 19.8516 9.28137 19.8203 9.25019 19.7891C8.92289 19.4609 8.59559 19.125 8.26049 18.7969C8.15918 18.6953 8.15139 18.6328 8.26049 18.5469C8.29167 18.5234 8.31504 18.4922 8.34622 18.4688C11.853 14.9531 15.3599 11.4453 18.8589 7.92188C19.0225 7.75781 19.1083 7.72656 19.2719 7.91406C19.5291 8.20313 19.8096 8.48438 20.098 8.74219C20.2616 8.90625 20.2694 9 20.0902 9.17188ZM19.1706 7C19.0225 6.84375 18.8745 6.79688 18.6563 6.83594C18.0017 6.96094 17.3315 7.05469 16.6769 7.17188C16.5366 7.19531 16.4431 7.17969 16.3496 7.07031C16.1703 6.86719 15.8508 6.69531 15.8274 6.47656C15.8041 6.3125 16.1469 6.10156 16.334 5.92188C17.5107 4.72656 18.703 3.54688 19.8798 2.34375C20.059 2.16406 20.1369 2.17969 20.3006 2.35156C22.0852 4.15625 23.8775 5.95313 25.6777 7.74219C25.8258 7.89063 25.8491 7.96094 25.6855 8.11719C24.3607 9.42969 23.0437 10.75 21.7267 12.0781C21.5552 12.25 21.4695 12.2344 21.3292 12.0703C21.2046 11.9219 21.0565 11.7891 20.9162 11.6563C20.8617 11.6016 20.7993 11.5469 20.8227 11.4844C20.9318 10.8125 21.0253 10.1719 21.15 9.53125C21.2123 9.21094 21.1656 8.98438 20.9162 8.75781C20.3239 8.1875 19.7473 7.59375 19.1706 7ZM21.5163 23.9375C22.4826 23.9453 23.2697 23.1797 23.2775 22.2188C23.2853 21.2422 22.5138 20.4453 21.5396 20.4375C20.5889 20.4297 19.7862 21.2109 19.7784 22.1641C19.7707 23.1406 20.5499 23.9297 21.5163 23.9375ZM21.5241 21.0234C22.1631 21.0156 22.693 21.5391 22.7008 22.1875C22.7086 22.8359 22.1943 23.3516 21.5474 23.3594C20.9006 23.3672 20.3785 22.8516 20.3707 22.2109C20.3629 21.5625 20.8772 21.0313 21.5241 21.0234ZM6.08627 20.2344C5.10436 20.2266 4.32506 21 4.32506 21.9766C4.32506 22.9375 5.09656 23.7266 6.05509 23.7344C7.01362 23.7422 7.82409 22.9453 7.82409 21.9844C7.82409 21.0234 7.0448 20.2422 6.08627 20.2344ZM6.07847 23.1563C5.43945 23.1641 4.90953 22.6406 4.90953 21.9922C4.90953 21.3438 5.41607 20.8281 6.06289 20.8203C6.7097 20.8125 7.23183 21.3359 7.23962 21.9766C7.23962 22.6172 6.7097 23.1563 6.07847 23.1563ZM21.5396 20.4375C20.5889 20.4297 19.7862 21.2109 19.7784 22.1641C19.7707 23.1406 20.5422 23.9297 21.5163 23.9375C22.4826 23.9453 23.2697 23.1797 23.2775 22.2188C23.2853 21.2422 22.5138 20.4453 21.5396 20.4375ZM21.5396 23.3516C20.8928 23.3594 20.3707 22.8438 20.3629 22.2031C20.3551 21.5625 20.8772 21.0313 21.5163 21.0234C22.1553 21.0156 22.6852 21.5391 22.693 22.1875C22.7008 22.8281 22.1943 23.3516 21.5396 23.3516ZM21.5396 20.4375C20.5889 20.4297 19.7862 21.2109 19.7784 22.1641C19.7707 23.1406 20.5422 23.9297 21.5163 23.9375C22.4826 23.9453 23.2697 23.1797 23.2775 22.2188C23.2853 21.2422 22.5138 20.4453 21.5396 20.4375ZM21.5396 23.3516C20.8928 23.3594 20.3707 22.8438 20.3629 22.2031C20.3551 21.5625 20.8772 21.0313 21.5163 21.0234C22.1553 21.0156 22.6852 21.5391 22.693 22.1875C22.7008 22.8281 22.1943 23.3516 21.5396 23.3516Z" fill="white"/>
<path d="M21.5396 20.4375C20.5889 20.4297 19.7862 21.2109 19.7784 22.1641C19.7706 23.1406 20.5421 23.9297 21.5163 23.9375C22.4826 23.9453 23.2697 23.1797 23.2775 22.2187C23.2853 21.2422 22.5138 20.4453 21.5396 20.4375ZM21.5396 23.3516C20.8928 23.3594 20.3707 22.8437 20.3629 22.2031C20.3551 21.5625 20.8772 21.0312 21.5163 21.0234C22.1553 21.0156 22.6852 21.5391 22.693 22.1875C22.7008 22.8281 22.1942 23.3516 21.5396 23.3516Z" fill="#FEFEFE"/>
<path d="M6.08628 20.2344C5.10437 20.2266 4.32507 21 4.32507 21.9766C4.32507 22.9375 5.09657 23.7266 6.0551 23.7344C7.01363 23.7422 7.8241 22.9453 7.8241 21.9844C7.8241 21.0234 7.04481 20.2422 6.08628 20.2344ZM6.07848 23.1562C5.43946 23.1641 4.90954 22.6406 4.90954 21.9922C4.90954 21.3437 5.41608 20.8281 6.0629 20.8203C6.70971 20.8125 7.23184 21.3359 7.23963 21.9766C7.23963 22.6172 6.70971 23.1562 6.07848 23.1562Z" fill="#FEFEFE"/>
<path d="M21.5396 20.4375C20.5889 20.4297 19.7862 21.2109 19.7784 22.1641C19.7706 23.1406 20.5421 23.9297 21.5163 23.9375C22.4826 23.9453 23.2697 23.1797 23.2775 22.2187C23.2853 21.2422 22.5138 20.4453 21.5396 20.4375ZM21.5396 23.3516C20.8928 23.3594 20.3707 22.8437 20.3629 22.2031C20.3551 21.5625 20.8772 21.0312 21.5163 21.0234C22.1553 21.0156 22.6852 21.5391 22.693 22.1875C22.7008 22.8281 22.1942 23.3516 21.5396 23.3516Z" fill="white"/>
<path d="M6.08628 20.2344C5.10437 20.2266 4.32507 21 4.32507 21.9766C4.32507 22.9375 5.09657 23.7266 6.0551 23.7344C7.01363 23.7422 7.8241 22.9453 7.8241 21.9844C7.8241 21.0234 7.04481 20.2422 6.08628 20.2344ZM6.07848 23.1562C5.43946 23.1641 4.90954 22.6406 4.90954 21.9922C4.90954 21.3437 5.41608 20.8281 6.0629 20.8203C6.70971 20.8125 7.23184 21.3359 7.23963 21.9766C7.23963 22.6172 6.70971 23.1562 6.07848 23.1562Z" fill="white"/>
</svg>
