<svg width="32" height="32" viewBox="0 0 32 32" fill="none" xmlns="http://www.w3.org/2000/svg">
<g clip-path="url(#clip0_411_3740)">
<path d="M23.5428 22.2089L17.8855 27.8663C17.3855 28.3658 16.7076 28.6464 16.0008 28.6464C15.2941 28.6464 14.6162 28.3658 14.1162 27.8663L8.4575 22.2089C6.9658 20.7172 5.94995 18.8165 5.53842 16.7474C5.12689 14.6783 5.33815 12.5336 6.14551 10.5846C6.95286 8.63554 8.32003 6.96966 10.0741 5.79762C11.8283 4.62558 13.8905 4 16.0002 4C18.1098 4 20.1721 4.62558 21.9262 5.79762C23.6803 6.96966 25.0475 8.63554 25.8548 10.5846C26.6622 12.5336 26.8734 14.6783 26.4619 16.7474C26.0504 18.8165 25.0345 20.7172 23.5428 22.2089Z" fill="#0D01A0" stroke="#0D01A0" stroke-width="1.25" stroke-linecap="round" stroke-linejoin="round"/>
<path d="M12 14.666C12 15.7269 12.4214 16.7443 13.1716 17.4944C13.9217 18.2446 14.9391 18.666 16 18.666C17.0609 18.666 18.0783 18.2446 18.8284 17.4944C19.5786 16.7443 20 15.7269 20 14.666C20 13.6051 19.5786 12.5877 18.8284 11.8376C18.0783 11.0874 17.0609 10.666 16 10.666C14.9391 10.666 13.9217 11.0874 13.1716 11.8376C12.4214 12.5877 12 13.6051 12 14.666Z" stroke="white" stroke-width="1.25" stroke-linecap="round" stroke-linejoin="round"/>
</g>
<defs>
<clipPath id="clip0_411_3740">
<rect width="32" height="32" fill="white"/>
</clipPath>
</defs>
</svg>
