<svg width="20" height="20" viewBox="0 0 20 20" fill="none" xmlns="http://www.w3.org/2000/svg">
<g clip-path="url(#clip0_139_5877)">
<path d="M5 5.00008C5 4.77907 5.0878 4.56711 5.24408 4.41083C5.40036 4.25455 5.61232 4.16675 5.83333 4.16675H7.5C7.72101 4.16675 7.93298 4.25455 8.08926 4.41083C8.24554 4.56711 8.33333 4.77907 8.33333 5.00008V15.0001C8.33333 15.2211 8.24554 15.4331 8.08926 15.5893C7.93298 15.7456 7.72101 15.8334 7.5 15.8334H5.83333C5.61232 15.8334 5.40036 15.7456 5.24408 15.5893C5.0878 15.4331 5 15.2211 5 15.0001V5.00008Z" stroke="white" stroke-width="1.25" stroke-linecap="round" stroke-linejoin="round"/>
<path d="M11.667 5.00008C11.667 4.77907 11.7548 4.56711 11.9111 4.41083C12.0674 4.25455 12.2793 4.16675 12.5003 4.16675H14.167C14.388 4.16675 14.6 4.25455 14.7562 4.41083C14.9125 4.56711 15.0003 4.77907 15.0003 5.00008V15.0001C15.0003 15.2211 14.9125 15.4331 14.7562 15.5893C14.6 15.7456 14.388 15.8334 14.167 15.8334H12.5003C12.2793 15.8334 12.0674 15.7456 11.9111 15.5893C11.7548 15.4331 11.667 15.2211 11.667 15.0001V5.00008Z" stroke="white" stroke-width="1.25" stroke-linecap="round" stroke-linejoin="round"/>
</g>
<defs>
<clipPath id="clip0_139_5877">
<rect width="20" height="20" fill="white"/>
</clipPath>
</defs>
</svg>
