<svg width="24" height="24" viewBox="0 0 24 24" fill="none" xmlns="http://www.w3.org/2000/svg">
<g clip-path="url(#clip0_640_2125)">
<path d="M7.00553 8.93952C7.0111 9.44203 7.01666 9.44203 6.48771 9.44203C6.0033 9.44203 6.0033 9.44203 6.0033 9.89642V9.93919C6.0033 10.447 5.96433 10.4738 5.42424 10.4043C5.32401 10.3936 5.33515 10.3455 5.33515 10.2867C5.33515 10.0621 5.32958 9.83227 5.34072 9.60775C5.34629 9.48479 5.31845 9.43133 5.17368 9.44203C4.9454 9.45272 4.71711 9.44203 4.48883 9.44737C4.37747 9.45272 4.33849 9.42599 4.33292 9.30838C4.32736 8.80588 4.32179 8.80588 4.85074 8.80588C5.33515 8.80588 5.33515 8.80588 5.33515 8.35148V8.30872C5.33515 7.80086 5.37413 7.77413 5.91422 7.84363C6.01444 7.85432 6.0033 7.90243 6.0033 7.96124C6.0033 8.18576 6.00887 8.41563 5.99773 8.64016C5.99217 8.76311 6.02001 8.81657 6.16477 8.80588C6.39306 8.79518 6.62134 8.80588 6.84963 8.80053C6.96099 8.79518 6.99996 8.81657 7.00553 8.93952Z" fill="#777777"/>
<path d="M14.5612 12.0027C13.8819 12.0027 13.2027 11.9973 12.5178 12.008C12.3675 12.008 12.3229 11.9813 12.3229 11.8263C12.3285 10.7464 12.3285 9.66655 12.3285 8.5867C12.3285 8.34079 12.245 8.20715 12.0612 8.16973C11.8942 8.13765 11.755 8.22318 11.6548 8.43702C10.7917 10.3027 9.92871 12.163 9.06568 14.0287C8.90978 14.3709 9.04898 14.5687 9.4443 14.5687C10.1292 14.5687 10.8196 14.574 11.5044 14.5633C11.6325 14.5633 11.6659 14.59 11.6659 14.7183C11.6603 15.269 11.6603 15.8249 11.6603 16.3755C11.6603 16.9155 11.6659 17.4554 11.6603 17.9953C11.6603 18.1878 11.7105 18.3375 11.922 18.3963C12.0891 18.4444 12.2394 18.3481 12.3341 18.1397C13.1971 16.2686 14.0657 14.4029 14.9287 12.5319C15.0846 12.2005 14.9454 12.0027 14.5612 12.0027ZM12.3675 16.4985C12.3563 16.4985 12.3452 16.4931 12.3285 16.4931V15.3064C12.3285 14.9803 12.3285 14.6542 12.3285 14.3281C12.3285 14.0341 12.2116 13.9218 11.8998 13.9218C11.226 13.9218 10.5523 13.9218 9.84519 13.9218C10.4465 12.6228 11.0367 11.3451 11.6269 10.0675C11.6381 10.0728 11.6492 10.0782 11.6659 10.0782C11.6659 10.7892 11.6659 11.5055 11.6659 12.2165C11.6659 12.5373 11.7717 12.6388 12.1169 12.6388C12.7851 12.6388 13.4476 12.6388 14.1492 12.6388C13.5534 13.9379 12.9577 15.2155 12.3675 16.4985Z" fill="#777777"/>
<path d="M20.0012 8.9716C19.9956 9.44203 20.0012 9.44203 19.5056 9.44203H18.3196C17.8185 9.44203 17.3174 9.43669 16.8219 9.44738C16.6938 9.44738 16.6604 9.42065 16.6604 9.29235C16.6604 8.80053 16.6548 8.80054 17.1727 8.80054C18.0524 8.80054 18.9377 8.80588 19.8174 8.79519C19.9678 8.79519 20.0067 8.82726 20.0012 8.9716Z" fill="#777777"/>
<path d="M22 7.56565C22 6.97227 21.5713 6.56598 20.9532 6.56064C20.8085 6.56064 20.6637 6.54995 20.5134 6.56598C20.3742 6.57668 20.3185 6.5446 20.3296 6.39492C20.3408 6.13297 20.3408 5.87638 20.3296 5.61443C20.3241 5.41129 20.196 5.29368 19.9955 5.28299C19.9677 5.28299 19.9399 5.27765 19.912 5.28299C19.6893 5.32576 19.6503 5.22419 19.6615 5.03708C19.6782 4.81791 19.667 4.59873 19.667 4.37955C19.667 4.1283 19.5445 4.00534 19.2884 4.00534C18.6481 4 18.0078 4 17.3675 4C17.1225 4 17 4.12295 16.9944 4.35817C16.9889 4.58269 16.9777 4.81256 17 5.03708C17.0223 5.24557 16.9499 5.29368 16.7439 5.28299C16.4488 5.26695 16.3318 5.38991 16.3318 5.67858C16.3318 5.90311 16.3207 6.13297 16.3374 6.3575C16.3486 6.52322 16.2984 6.56598 16.1258 6.56064C14.1214 6.55529 12.1114 6.55529 10.1069 6.55529C9.34967 6.55529 8.59243 6.54995 7.83519 6.56064C7.70156 6.56064 7.65702 6.53391 7.66258 6.40026C7.67372 6.13832 7.66815 5.88172 7.66258 5.61978C7.65702 5.40594 7.52895 5.28834 7.3118 5.27765C7.25612 5.2723 7.20045 5.2723 7.14477 5.27765C7.02784 5.29368 6.98886 5.25626 6.99443 5.13865C7.00557 4.88206 7 4.62011 6.99443 4.35817C6.98886 4.12295 6.86637 3.99465 6.62695 3.99465C5.9922 4 5.35189 4 4.71158 4C4.45546 4 4.33296 4.12295 4.33296 4.3742C4.33296 4.58269 4.33296 4.78583 4.33296 4.99432C4.33296 5.2723 4.33296 5.2723 4.049 5.28299C3.79287 5.28834 3.67038 5.40594 3.67038 5.6572C3.67038 5.79084 3.67595 5.92449 3.67038 6.05813C3.66481 6.22385 3.74833 6.44838 3.63697 6.53391C3.53675 6.61944 3.30846 6.56598 3.13586 6.56598C2.39532 6.56064 2 6.94019 2 7.64584V18.9255C2 19.6258 2.40089 20.0053 3.13586 20.0053H11.9889C14.951 20.0053 17.9187 20.0053 20.8808 20.0053C21.5991 20.0053 22 19.6204 22 18.9255V11.9225C22 10.4738 22 9.01971 22 7.56565ZM17.6626 4.74306C17.6681 4.66822 17.6849 4.64149 17.7684 4.64149C18.1414 4.64684 18.52 4.64684 18.8931 4.64149C18.971 4.64149 19.01 4.66288 18.9989 4.74306C18.9989 4.74841 18.9989 4.75376 18.9989 4.76445C19.0267 5.28299 19.0267 5.28299 18.4811 5.28299H18.1693C17.618 5.28299 17.618 5.28299 17.6626 4.74306ZM17.5011 5.91914C18.1693 5.91914 18.8318 5.92449 19.5 5.9138C19.6336 5.9138 19.6726 5.94587 19.6726 6.07952C19.6726 6.56064 19.6726 6.56064 19.1715 6.56064H18.3363C17.941 6.56064 17.5457 6.55529 17.1503 6.56598C17.0334 6.56598 17 6.53391 17 6.42165C16.9889 5.91914 16.9833 5.91914 17.5011 5.91914ZM5.51893 4.64149H5.83073C6.38196 4.64149 6.38196 4.64149 6.33185 5.18142C6.33185 5.25626 6.30958 5.28299 6.23163 5.28299C5.85857 5.27765 5.47996 5.27765 5.1069 5.28299C5.02339 5.28299 4.98998 5.26161 5.00111 5.18142C5.00111 5.17608 5.00111 5.17073 5.00111 5.16004C4.97327 4.64149 4.97327 4.64149 5.51893 4.64149ZM4.83408 5.91914H5.68597C6.07572 5.91914 6.46548 5.92449 6.84967 5.9138C6.96659 5.9138 7 5.94587 7 6.05813C7.00557 6.55529 7.01114 6.55529 6.49889 6.55529C5.83073 6.55529 5.16815 6.54995 4.5 6.56064C4.36637 6.56064 4.32739 6.52856 4.32739 6.39492C4.33296 5.91914 4.32739 5.91914 4.83408 5.91914ZM21.3318 18.9041C21.3318 19.2676 21.2372 19.3585 20.8474 19.3585H3.14699C2.76281 19.3585 2.66815 19.2676 2.66815 18.9041C2.66815 15.1514 2.66815 11.3986 2.66815 7.64584C2.66815 7.29301 2.76837 7.20214 3.14143 7.20214H20.8641C21.2372 7.20214 21.3374 7.29836 21.3374 7.65118V18.9041H21.3318Z" fill="#777777"/>
<path d="M7.00553 8.93952C7.0111 9.44203 7.01666 9.44203 6.48771 9.44203C6.0033 9.44203 6.0033 9.44203 6.0033 9.89642V9.93919C6.0033 10.447 5.96433 10.4738 5.42424 10.4043C5.32401 10.3936 5.33515 10.3455 5.33515 10.2867C5.33515 10.0621 5.32958 9.83227 5.34072 9.60775C5.34629 9.48479 5.31845 9.43133 5.17368 9.44203C4.9454 9.45272 4.71711 9.44203 4.48883 9.44737C4.37747 9.45272 4.33849 9.42599 4.33292 9.30838C4.32736 8.80588 4.32179 8.80588 4.85074 8.80588C5.33515 8.80588 5.33515 8.80588 5.33515 8.35148V8.30872C5.33515 7.80086 5.37413 7.77413 5.91422 7.84363C6.01444 7.85432 6.0033 7.90243 6.0033 7.96124C6.0033 8.18576 6.00887 8.41563 5.99773 8.64016C5.99217 8.76311 6.02001 8.81657 6.16477 8.80588C6.39306 8.79518 6.62134 8.80588 6.84963 8.80053C6.96099 8.79518 6.99996 8.81657 7.00553 8.93952Z" fill="#FEFEFE"/>
<path d="M14.5612 12.0027C13.8819 12.0027 13.2027 11.9973 12.5178 12.008C12.3675 12.008 12.3229 11.9813 12.3229 11.8263C12.3285 10.7464 12.3285 9.66655 12.3285 8.5867C12.3285 8.34079 12.245 8.20715 12.0612 8.16973C11.8942 8.13765 11.755 8.22318 11.6548 8.43702C10.7917 10.3027 9.92871 12.163 9.06568 14.0287C8.90978 14.3709 9.04898 14.5687 9.4443 14.5687C10.1292 14.5687 10.8196 14.574 11.5044 14.5633C11.6325 14.5633 11.6659 14.59 11.6659 14.7183C11.6603 15.269 11.6603 15.8249 11.6603 16.3755C11.6603 16.9155 11.6659 17.4554 11.6603 17.9953C11.6603 18.1878 11.7105 18.3375 11.922 18.3963C12.0891 18.4444 12.2394 18.3481 12.3341 18.1397C13.1971 16.2686 14.0657 14.4029 14.9287 12.5319C15.0846 12.2005 14.9454 12.0027 14.5612 12.0027ZM12.3675 16.4985C12.3563 16.4985 12.3452 16.4931 12.3285 16.4931V15.3064C12.3285 14.9803 12.3285 14.6542 12.3285 14.3281C12.3285 14.0341 12.2116 13.9218 11.8998 13.9218C11.226 13.9218 10.5523 13.9218 9.84519 13.9218C10.4465 12.6228 11.0367 11.3451 11.6269 10.0675C11.6381 10.0728 11.6492 10.0782 11.6659 10.0782C11.6659 10.7892 11.6659 11.5055 11.6659 12.2165C11.6659 12.5373 11.7717 12.6388 12.1169 12.6388C12.7851 12.6388 13.4476 12.6388 14.1492 12.6388C13.5534 13.9379 12.9577 15.2155 12.3675 16.4985Z" fill="#FEFEFE"/>
<path d="M20.0012 8.9716C19.9956 9.44203 20.0012 9.44203 19.5056 9.44203H18.3196C17.8185 9.44203 17.3174 9.43669 16.8219 9.44738C16.6938 9.44738 16.6604 9.42065 16.6604 9.29235C16.6604 8.80053 16.6548 8.80054 17.1727 8.80054C18.0524 8.80054 18.9377 8.80588 19.8174 8.79519C19.9678 8.79519 20.0067 8.82726 20.0012 8.9716Z" fill="#FEFEFE"/>
<path d="M14.5612 12.0027C13.8819 12.0027 13.2027 11.9973 12.5178 12.008C12.3675 12.008 12.3229 11.9813 12.3229 11.8263C12.3285 10.7464 12.3285 9.66655 12.3285 8.5867C12.3285 8.34079 12.245 8.20715 12.0612 8.16973C11.8942 8.13765 11.755 8.22318 11.6548 8.43702C10.7917 10.3027 9.92871 12.163 9.06568 14.0287C8.90978 14.3709 9.04898 14.5687 9.4443 14.5687C10.1292 14.5687 10.8196 14.574 11.5044 14.5633C11.6325 14.5633 11.6659 14.59 11.6659 14.7183C11.6603 15.269 11.6603 15.8249 11.6603 16.3755C11.6603 16.9155 11.6659 17.4554 11.6603 17.9953C11.6603 18.1878 11.7105 18.3375 11.922 18.3963C12.0891 18.4444 12.2394 18.3481 12.3341 18.1397C13.1971 16.2686 14.0657 14.4029 14.9287 12.5319C15.0846 12.2005 14.9454 12.0027 14.5612 12.0027ZM12.3675 16.4985C12.3563 16.4985 12.3452 16.4931 12.3285 16.4931V15.3064C12.3285 14.9803 12.3285 14.6542 12.3285 14.3281C12.3285 14.0341 12.2116 13.9218 11.8998 13.9218C11.226 13.9218 10.5523 13.9218 9.84519 13.9218C10.4465 12.6228 11.0367 11.3451 11.6269 10.0675C11.6381 10.0728 11.6492 10.0782 11.6659 10.0782C11.6659 10.7892 11.6659 11.5055 11.6659 12.2165C11.6659 12.5373 11.7717 12.6388 12.1169 12.6388C12.7851 12.6388 13.4476 12.6388 14.1492 12.6388C13.5534 13.9379 12.9577 15.2155 12.3675 16.4985Z" fill="#777777"/>
<path d="M6.4821 9.44203C5.99769 9.44203 5.99769 9.44203 5.99769 9.89642V9.93919C5.99769 10.447 5.95871 10.4738 5.41862 10.4043C5.3184 10.3936 5.32954 10.3455 5.32954 10.2867C5.32954 10.0621 5.32397 9.83227 5.3351 9.60775C5.34067 9.48479 5.31283 9.43133 5.16807 9.44203C4.93978 9.45272 4.7115 9.44203 4.48321 9.44737C4.37185 9.45272 4.33288 9.42599 4.32731 9.30838C4.32174 8.80588 4.31617 8.80588 4.84513 8.80588C5.32954 8.80588 5.32954 8.80588 5.32954 8.35148V8.30872C5.32954 7.80086 5.36851 7.77413 5.9086 7.84363C6.00882 7.85432 5.99769 7.90243 5.99769 7.96124C5.99769 8.18576 6.00325 8.41563 5.99212 8.64016C5.98655 8.76311 6.01439 8.81657 6.15916 8.80588C6.38744 8.79518 6.61573 8.80588 6.84401 8.80053C6.95537 8.79518 6.99435 8.82191 6.99991 8.93952C7.01105 9.44203 7.01662 9.44203 6.4821 9.44203Z" fill="#777777"/>
<path d="M20.0012 8.9716C19.9956 9.44203 20.0012 9.44203 19.5056 9.44203H18.3196C17.8185 9.44203 17.3174 9.43669 16.8219 9.44738C16.6938 9.44738 16.6604 9.42065 16.6604 9.29235C16.6604 8.80053 16.6548 8.80054 17.1727 8.80054C18.0524 8.80054 18.9377 8.80588 19.8174 8.79519C19.9678 8.79519 20.0067 8.82726 20.0012 8.9716Z" fill="#777777"/>
</g>
<defs>
<clipPath id="clip0_640_2125">
<rect width="20" height="16" fill="white" transform="translate(2 4)"/>
</clipPath>
</defs>
</svg>
