<svg width="24" height="24" viewBox="0 0 24 24" fill="none" xmlns="http://www.w3.org/2000/svg">
<path d="M7.89257 16.2372C7.08481 16.2332 6.42246 16.8872 6.42246 17.6928C6.42246 18.4904 7.0727 19.1325 7.87641 19.1365C8.69225 19.1365 9.35057 18.4904 9.34653 17.6848C9.34249 16.8832 8.69628 16.2412 7.89257 16.2372ZM7.89257 18.6858C7.3433 18.6898 6.87884 18.2352 6.8748 17.6888C6.8748 17.1385 7.32714 16.6958 7.88449 16.6958C8.44588 16.6958 8.89015 17.1385 8.88611 17.6968C8.88611 18.2352 8.4378 18.6818 7.89257 18.6858ZM7.89257 16.2372C7.08481 16.2332 6.42246 16.8872 6.42246 17.6928C6.42246 18.4904 7.0727 19.1325 7.87641 19.1365C8.69225 19.1365 9.35057 18.4904 9.34653 17.6848C9.34249 16.8832 8.69628 16.2412 7.89257 16.2372ZM7.89257 18.6858C7.3433 18.6898 6.87884 18.2352 6.8748 17.6888C6.8748 17.1385 7.32714 16.6958 7.88449 16.6958C8.44588 16.6958 8.89015 17.1385 8.88611 17.6968C8.88611 18.2352 8.4378 18.6818 7.89257 18.6858ZM7.89257 16.2372C7.08481 16.2332 6.42246 16.8872 6.42246 17.6928C6.42246 18.4904 7.0727 19.1325 7.87641 19.1365C8.69225 19.1365 9.35057 18.4904 9.34653 17.6848C9.34249 16.8832 8.69628 16.2412 7.89257 16.2372ZM7.89257 18.6858C7.3433 18.6898 6.87884 18.2352 6.8748 17.6888C6.8748 17.1385 7.32714 16.6958 7.88449 16.6958C8.44588 16.6958 8.89015 17.1385 8.88611 17.6968C8.88611 18.2352 8.4378 18.6818 7.89257 18.6858ZM7.89257 16.2372C7.08481 16.2332 6.42246 16.8872 6.42246 17.6928C6.42246 18.4904 7.0727 19.1325 7.87641 19.1365C8.69225 19.1365 9.35057 18.4904 9.34653 17.6848C9.34249 16.8832 8.69628 16.2412 7.89257 16.2372ZM7.89257 18.6858C7.3433 18.6898 6.87884 18.2352 6.8748 17.6888C6.8748 17.1385 7.32714 16.6958 7.88449 16.6958C8.44588 16.6958 8.89015 17.1385 8.88611 17.6968C8.88611 18.2352 8.4378 18.6818 7.89257 18.6858ZM7.89257 16.2372C7.08481 16.2332 6.42246 16.8872 6.42246 17.6928C6.42246 18.4904 7.0727 19.1325 7.87641 19.1365C8.69225 19.1365 9.35057 18.4904 9.34653 17.6848C9.34249 16.8832 8.69628 16.2412 7.89257 16.2372ZM7.89257 18.6858C7.3433 18.6898 6.87884 18.2352 6.8748 17.6888C6.8748 17.1385 7.32714 16.6958 7.88449 16.6958C8.44588 16.6958 8.89015 17.1385 8.88611 17.6968C8.88611 18.2352 8.4378 18.6818 7.89257 18.6858ZM7.89257 16.2372C7.08481 16.2332 6.42246 16.8872 6.42246 17.6928C6.42246 18.4904 7.0727 19.1325 7.87641 19.1365C8.69225 19.1365 9.35057 18.4904 9.34653 17.6848C9.34249 16.8832 8.69628 16.2412 7.89257 16.2372ZM7.89257 18.6858C7.3433 18.6898 6.87884 18.2352 6.8748 17.6888C6.8748 17.1385 7.32714 16.6958 7.88449 16.6958C8.44588 16.6958 8.89015 17.1385 8.88611 17.6968C8.88611 18.2352 8.4378 18.6818 7.89257 18.6858ZM7.89257 16.2372C7.08481 16.2332 6.42246 16.8872 6.42246 17.6928C6.42246 18.4904 7.0727 19.1325 7.87641 19.1365C8.69225 19.1365 9.35057 18.4904 9.34653 17.6848C9.34249 16.8832 8.69628 16.2412 7.89257 16.2372ZM7.89257 18.6858C7.3433 18.6898 6.87884 18.2352 6.8748 17.6888C6.8748 17.1385 7.32714 16.6958 7.88449 16.6958C8.44588 16.6958 8.89015 17.1385 8.88611 17.6968C8.88611 18.2352 8.4378 18.6818 7.89257 18.6858ZM7.89257 16.2372C7.08481 16.2332 6.42246 16.8872 6.42246 17.6928C6.42246 18.4904 7.0727 19.1325 7.87641 19.1365C8.69225 19.1365 9.35057 18.4904 9.34653 17.6848C9.34249 16.8832 8.69628 16.2412 7.89257 16.2372ZM7.89257 18.6858C7.3433 18.6898 6.87884 18.2352 6.8748 17.6888C6.8748 17.1385 7.32714 16.6958 7.88449 16.6958C8.44588 16.6958 8.89015 17.1385 8.88611 17.6968C8.88611 18.2352 8.4378 18.6818 7.89257 18.6858ZM7.89257 16.2372C7.08481 16.2332 6.42246 16.8872 6.42246 17.6928C6.42246 18.4904 7.0727 19.1325 7.87641 19.1365C8.69225 19.1365 9.35057 18.4904 9.34653 17.6848C9.34249 16.8832 8.69628 16.2412 7.89257 16.2372ZM7.89257 18.6858C7.3433 18.6898 6.87884 18.2352 6.8748 17.6888C6.8748 17.1385 7.32714 16.6958 7.88449 16.6958C8.44588 16.6958 8.89015 17.1385 8.88611 17.6968C8.88611 18.2352 8.4378 18.6818 7.89257 18.6858ZM7.89257 16.2372C7.08481 16.2332 6.42246 16.8872 6.42246 17.6928C6.42246 18.4904 7.0727 19.1325 7.87641 19.1365C8.69225 19.1365 9.35057 18.4904 9.34653 17.6848C9.34249 16.8832 8.69628 16.2412 7.89257 16.2372ZM7.89257 18.6858C7.3433 18.6898 6.87884 18.2352 6.8748 17.6888C6.8748 17.1385 7.32714 16.6958 7.88449 16.6958C8.44588 16.6958 8.89015 17.1385 8.88611 17.6968C8.88611 18.2352 8.4378 18.6818 7.89257 18.6858ZM7.89257 16.2372C7.08481 16.2332 6.42246 16.8872 6.42246 17.6928C6.42246 18.4904 7.0727 19.1325 7.87641 19.1365C8.69225 19.1365 9.35057 18.4904 9.34653 17.6848C9.34249 16.8832 8.69628 16.2412 7.89257 16.2372ZM7.89257 18.6858C7.3433 18.6898 6.87884 18.2352 6.8748 17.6888C6.8748 17.1385 7.32714 16.6958 7.88449 16.6958C8.44588 16.6958 8.89015 17.1385 8.88611 17.6968C8.88611 18.2352 8.4378 18.6818 7.89257 18.6858ZM7.89257 16.2372C7.08481 16.2332 6.42246 16.8872 6.42246 17.6928C6.42246 18.4904 7.0727 19.1325 7.87641 19.1365C8.69225 19.1365 9.35057 18.4904 9.34653 17.6848C9.34249 16.8832 8.69628 16.2412 7.89257 16.2372ZM7.89257 18.6858C7.3433 18.6898 6.87884 18.2352 6.8748 17.6888C6.8748 17.1385 7.32714 16.6958 7.88449 16.6958C8.44588 16.6958 8.89015 17.1385 8.88611 17.6968C8.88611 18.2352 8.4378 18.6818 7.89257 18.6858ZM7.89257 16.2372C7.08481 16.2332 6.42246 16.8872 6.42246 17.6928C6.42246 18.4904 7.0727 19.1325 7.87641 19.1365C8.69225 19.1365 9.35057 18.4904 9.34653 17.6848C9.34249 16.8832 8.69628 16.2412 7.89257 16.2372ZM7.89257 18.6858C7.3433 18.6898 6.87884 18.2352 6.8748 17.6888C6.8748 17.1385 7.32714 16.6958 7.88449 16.6958C8.44588 16.6958 8.89015 17.1385 8.88611 17.6968C8.88611 18.2352 8.4378 18.6818 7.89257 18.6858ZM16.6607 14.973C15.9701 14.961 15.3885 15.5273 15.3885 16.2132C15.3885 16.8872 15.958 17.4535 16.6405 17.4575C17.3271 17.4615 17.8926 16.9072 17.9047 16.2252C17.9128 15.5472 17.3514 14.9849 16.6607 14.973ZM16.6405 16.9909C16.1963 16.9869 15.853 16.6439 15.853 16.2053C15.853 15.7586 16.2084 15.4156 16.6607 15.4236C17.105 15.4276 17.4402 15.7746 17.4362 16.2172C17.4321 16.6519 17.0848 16.9909 16.6405 16.9909ZM16.6607 14.973C15.9701 14.961 15.3885 15.5273 15.3885 16.2132C15.3885 16.8872 15.958 17.4535 16.6405 17.4575C17.3271 17.4615 17.8926 16.9072 17.9047 16.2252C17.9128 15.5472 17.3514 14.9849 16.6607 14.973ZM16.6405 16.9909C16.1963 16.9869 15.853 16.6439 15.853 16.2053C15.853 15.7586 16.2084 15.4156 16.6607 15.4236C17.105 15.4276 17.4402 15.7746 17.4362 16.2172C17.4321 16.6519 17.0848 16.9909 16.6405 16.9909ZM7.89257 16.2372C7.08481 16.2332 6.42246 16.8872 6.42246 17.6928C6.42246 18.4904 7.0727 19.1325 7.87641 19.1365C8.69225 19.1365 9.35057 18.4904 9.34653 17.6848C9.34249 16.8832 8.69628 16.2412 7.89257 16.2372ZM7.89257 18.6858C7.3433 18.6898 6.87884 18.2352 6.8748 17.6888C6.8748 17.1385 7.32714 16.6958 7.88449 16.6958C8.44588 16.6958 8.89015 17.1385 8.88611 17.6968C8.88611 18.2352 8.4378 18.6818 7.89257 18.6858ZM7.89257 16.2372C7.08481 16.2332 6.42246 16.8872 6.42246 17.6928C6.42246 18.4904 7.0727 19.1325 7.87641 19.1365C8.69225 19.1365 9.35057 18.4904 9.34653 17.6848C9.34249 16.8832 8.69628 16.2412 7.89257 16.2372ZM7.89257 18.6858C7.3433 18.6898 6.87884 18.2352 6.8748 17.6888C6.8748 17.1385 7.32714 16.6958 7.88449 16.6958C8.44588 16.6958 8.89015 17.1385 8.88611 17.6968C8.88611 18.2352 8.4378 18.6818 7.89257 18.6858ZM16.6607 14.973C15.9701 14.961 15.3885 15.5273 15.3885 16.2132C15.3885 16.8872 15.958 17.4535 16.6405 17.4575C17.3271 17.4615 17.8926 16.9072 17.9047 16.2252C17.9128 15.5472 17.3514 14.9849 16.6607 14.973ZM16.6405 16.9909C16.1963 16.9869 15.853 16.6439 15.853 16.2053C15.853 15.7586 16.2084 15.4156 16.6607 15.4236C17.105 15.4276 17.4402 15.7746 17.4362 16.2172C17.4321 16.6519 17.0848 16.9909 16.6405 16.9909ZM16.6607 14.973C15.9701 14.961 15.3885 15.5273 15.3885 16.2132C15.3885 16.8872 15.958 17.4535 16.6405 17.4575C17.3271 17.4615 17.8926 16.9072 17.9047 16.2252C17.9128 15.5472 17.3514 14.9849 16.6607 14.973ZM16.6405 16.9909C16.1963 16.9869 15.853 16.6439 15.853 16.2053C15.853 15.7586 16.2084 15.4156 16.6607 15.4236C17.105 15.4276 17.4402 15.7746 17.4362 16.2172C17.4321 16.6519 17.0848 16.9909 16.6405 16.9909ZM7.89257 16.2372C7.08481 16.2332 6.42246 16.8872 6.42246 17.6928C6.42246 18.4904 7.0727 19.1325 7.87641 19.1365C8.69225 19.1365 9.35057 18.4904 9.34653 17.6848C9.34249 16.8832 8.69628 16.2412 7.89257 16.2372ZM7.89257 18.6858C7.3433 18.6898 6.87884 18.2352 6.8748 17.6888C6.8748 17.1385 7.32714 16.6958 7.88449 16.6958C8.44588 16.6958 8.89015 17.1385 8.88611 17.6968C8.88611 18.2352 8.4378 18.6818 7.89257 18.6858ZM7.89257 16.2372C7.08481 16.2332 6.42246 16.8872 6.42246 17.6928C6.42246 18.4904 7.0727 19.1325 7.87641 19.1365C8.69225 19.1365 9.35057 18.4904 9.34653 17.6848C9.34249 16.8832 8.69628 16.2412 7.89257 16.2372ZM7.89257 18.6858C7.3433 18.6898 6.87884 18.2352 6.8748 17.6888C6.8748 17.1385 7.32714 16.6958 7.88449 16.6958C8.44588 16.6958 8.89015 17.1385 8.88611 17.6968C8.88611 18.2352 8.4378 18.6818 7.89257 18.6858ZM16.6607 14.973C15.9701 14.961 15.3885 15.5273 15.3885 16.2132C15.3885 16.8872 15.958 17.4535 16.6405 17.4575C17.3271 17.4615 17.8926 16.9072 17.9047 16.2252C17.9128 15.5472 17.3514 14.9849 16.6607 14.973ZM16.6405 16.9909C16.1963 16.9869 15.853 16.6439 15.853 16.2053C15.853 15.7586 16.2084 15.4156 16.6607 15.4236C17.105 15.4276 17.4402 15.7746 17.4362 16.2172C17.4321 16.6519 17.0848 16.9909 16.6405 16.9909ZM16.6607 14.973C15.9701 14.961 15.3885 15.5273 15.3885 16.2132C15.3885 16.8872 15.958 17.4535 16.6405 17.4575C17.3271 17.4615 17.8926 16.9072 17.9047 16.2252C17.9128 15.5472 17.3514 14.9849 16.6607 14.973ZM16.6405 16.9909C16.1963 16.9869 15.853 16.6439 15.853 16.2053C15.853 15.7586 16.2084 15.4156 16.6607 15.4236C17.105 15.4276 17.4402 15.7746 17.4362 16.2172C17.4321 16.6519 17.0848 16.9909 16.6405 16.9909ZM7.89257 16.2372C7.08481 16.2332 6.42246 16.8872 6.42246 17.6928C6.42246 18.4904 7.0727 19.1325 7.87641 19.1365C8.69225 19.1365 9.35057 18.4904 9.34653 17.6848C9.34249 16.8832 8.69628 16.2412 7.89257 16.2372ZM7.89257 18.6858C7.3433 18.6898 6.87884 18.2352 6.8748 17.6888C6.8748 17.1385 7.32714 16.6958 7.88449 16.6958C8.44588 16.6958 8.89015 17.1385 8.88611 17.6968C8.88611 18.2352 8.4378 18.6818 7.89257 18.6858ZM7.89257 16.2372C7.08481 16.2332 6.42246 16.8872 6.42246 17.6928C6.42246 18.4904 7.0727 19.1325 7.87641 19.1365C8.69225 19.1365 9.35057 18.4904 9.34653 17.6848C9.34249 16.8832 8.69628 16.2412 7.89257 16.2372ZM7.89257 18.6858C7.3433 18.6898 6.87884 18.2352 6.8748 17.6888C6.8748 17.1385 7.32714 16.6958 7.88449 16.6958C8.44588 16.6958 8.89015 17.1385 8.88611 17.6968C8.88611 18.2352 8.4378 18.6818 7.89257 18.6858ZM16.6607 14.973C15.9701 14.961 15.3885 15.5273 15.3885 16.2132C15.3885 16.8872 15.958 17.4535 16.6405 17.4575C17.3271 17.4615 17.8926 16.9072 17.9047 16.2252C17.9128 15.5472 17.3514 14.9849 16.6607 14.973ZM16.6405 16.9909C16.1963 16.9869 15.853 16.6439 15.853 16.2053C15.853 15.7586 16.2084 15.4156 16.6607 15.4236C17.105 15.4276 17.4402 15.7746 17.4362 16.2172C17.4321 16.6519 17.0848 16.9909 16.6405 16.9909ZM16.6607 14.973C15.9701 14.961 15.3885 15.5273 15.3885 16.2132C15.3885 16.8872 15.958 17.4535 16.6405 17.4575C17.3271 17.4615 17.8926 16.9072 17.9047 16.2252C17.9128 15.5472 17.3514 14.9849 16.6607 14.973ZM16.6405 16.9909C16.1963 16.9869 15.853 16.6439 15.853 16.2053C15.853 15.7586 16.2084 15.4156 16.6607 15.4236C17.105 15.4276 17.4402 15.7746 17.4362 16.2172C17.4321 16.6519 17.0848 16.9909 16.6405 16.9909ZM7.89257 16.2372C7.08481 16.2332 6.42246 16.8872 6.42246 17.6928C6.42246 18.4904 7.0727 19.1325 7.87641 19.1365C8.69225 19.1365 9.35057 18.4904 9.34653 17.6848C9.34249 16.8832 8.69628 16.2412 7.89257 16.2372ZM7.89257 18.6858C7.3433 18.6898 6.87884 18.2352 6.8748 17.6888C6.8748 17.1385 7.32714 16.6958 7.88449 16.6958C8.44588 16.6958 8.89015 17.1385 8.88611 17.6968C8.88611 18.2352 8.4378 18.6818 7.89257 18.6858ZM21.9313 7.45152C21.483 6.66987 21.0267 5.8922 20.5662 5.11453C20.4249 4.87525 20.1502 4.81144 19.8998 4.93906C19.7383 5.02281 19.5848 5.11453 19.4273 5.20626C19.1284 5.38173 19.0517 5.63697 19.2254 5.93208C19.294 6.04773 19.2698 6.08762 19.1648 6.1594C19.0032 6.26708 18.9305 6.23517 18.8376 6.07166C18.5711 5.58512 18.2237 5.50137 17.7351 5.78054C17.2262 6.07166 16.7092 6.35481 16.2084 6.6579C16.059 6.74963 15.9863 6.7257 15.9257 6.57814C15.7439 6.13946 15.4249 5.95202 14.9483 6.04375C14.9362 6.04773 14.92 6.04375 14.9079 6.04375C14.8271 6.05571 14.7948 6.02779 14.7908 5.93607C14.7625 5.50536 14.7585 5.50536 15.1866 5.49739C15.4895 5.4934 15.7197 5.37376 15.8651 5.11055C16.0065 4.84734 15.9863 4.58811 15.8207 4.34086C15.7843 4.28901 15.752 4.25312 15.8045 4.18931C15.9782 3.97396 15.9822 3.73069 15.9136 3.46349C16.2205 3.46349 16.5153 3.46748 16.8102 3.46349C17.21 3.45551 17.521 3.18831 17.5574 2.8254C17.5977 2.41862 17.3675 2.11154 16.9515 2.01583C16.8788 1.98791 16.8061 2.00387 16.7334 2.00387C13.5388 2.00387 10.3401 2.00387 7.1454 2.00387C6.96365 1.99589 6.8021 2.02779 6.66074 2.15142C6.42246 2.3588 6.32956 2.70177 6.43861 3.00088C6.54766 3.29998 6.82229 3.49938 7.14136 3.50736C7.38368 3.51134 7.62601 3.50736 7.8643 3.50736C7.97334 3.50736 8.02989 3.54325 8.00969 3.66289C7.98142 3.81443 8.01777 3.958 8.09047 4.08562C8.15913 4.20925 8.14701 4.31294 8.08643 4.44056C7.88853 4.84734 8.07028 5.29798 8.48627 5.48542C8.63974 5.55322 8.80129 5.53727 8.96284 5.54125C9.02746 5.54524 9.11228 5.5253 9.14055 5.60107C9.18498 5.70875 9.18498 5.82839 9.14055 5.93208C9.1042 6.02381 8.99919 5.98393 8.92246 5.9919C8.89418 5.99589 8.86995 5.99589 8.84168 5.9919C8.53877 5.95202 8.31664 6.0597 8.1874 6.33487C8.17932 6.35082 8.16721 6.36678 8.15509 6.38273C7.95719 6.67386 7.95719 6.67386 7.64216 6.49439C7.17367 6.22321 6.70113 5.95601 6.22859 5.68881C5.83279 5.46548 5.40872 5.57715 5.17044 5.96C5.15832 5.97595 5.15024 5.99589 5.14216 6.01184C5.0937 6.10755 5.03716 6.18333 4.90792 6.12351C4.78271 6.06369 4.82714 5.98393 4.86349 5.8922C4.93619 5.71673 4.96042 5.53328 4.83522 5.38173C4.60097 5.09459 4.28191 4.92311 3.92246 4.84734C3.69225 4.79948 3.50646 4.91513 3.3853 5.11852C3.02989 5.6928 2.69063 6.27904 2.35137 6.86528C2.22213 7.08861 2.06866 7.29998 2 7.55122V7.83039C2.15751 8.0936 2.43619 8.20526 2.68659 8.34883C3.03393 8.54823 3.25606 8.4924 3.48223 8.1574C3.50646 8.12151 3.51858 8.04973 3.57108 8.06967C3.67609 8.11354 3.78514 8.16139 3.86187 8.24115C3.9063 8.28901 3.81341 8.3608 3.78514 8.4246C3.77706 8.44056 3.76494 8.4605 3.75687 8.47645C3.50242 8.91912 3.59128 9.25412 4.03554 9.50935C4.5525 9.80446 5.06543 10.0996 5.59047 10.3987C5.42488 10.6539 5.25929 10.9052 5.09774 11.1564C5.0412 11.2481 4.9685 11.3199 4.87157 11.3758C2.54523 12.8473 2.3231 16.1534 4.44346 17.9201C4.54443 18.0039 4.58885 18.0956 4.60905 18.2152C5.021 20.4924 7.46042 21.6449 9.52019 20.5403C9.56462 20.5163 9.60905 20.4685 9.66559 20.4884C9.87561 20.5562 10.0937 20.5243 10.3037 20.5203C10.4451 20.5163 10.4814 20.5602 10.4976 20.6918C10.5784 21.3817 11.1721 21.948 11.8586 21.9919C12.63 22.0437 13.2964 21.5811 13.4822 20.8752C13.5145 20.7596 13.462 20.5921 13.5751 20.5363C13.6801 20.4884 13.8255 20.5123 13.9507 20.5243C14.5242 20.5761 14.8393 20.1734 14.8069 19.6749C14.7827 19.2282 14.8029 18.7815 14.8029 18.295C15.1664 18.5941 15.546 18.7815 15.9661 18.8892C16.5436 19.0408 17.109 18.9411 17.6745 18.8134C19.3384 18.4346 20.4572 17.4495 20.8772 15.8184C21.3053 14.1674 20.8005 12.7476 19.4798 11.6549C19.1163 11.3558 18.8134 11.0368 18.5792 10.638C18.5549 10.5981 18.5347 10.5542 18.5024 10.5223C18.4176 10.4306 18.4378 10.3827 18.5509 10.3189C19.0477 10.0437 19.5364 9.7606 20.0291 9.47745C20.2795 9.33388 20.3966 9.12251 20.3845 8.83537C20.3764 8.6599 20.2835 8.52032 20.1947 8.38074C20.13 8.28103 20.1099 8.20925 20.2431 8.16139C20.3441 8.1255 20.4289 7.97396 20.538 8.17735C20.6995 8.47645 20.9701 8.53627 21.273 8.37276C21.4305 8.28502 21.588 8.20127 21.7415 8.10157C21.9879 7.958 22.0727 7.69479 21.9313 7.45152ZM7.28675 3.01284C7.21406 3.01284 7.13732 3.01683 7.06866 2.98492C6.94346 2.9251 6.89095 2.8254 6.90711 2.6938C6.92326 2.5582 7.00404 2.47844 7.14136 2.4585C7.20598 2.45053 7.27464 2.45451 7.3433 2.45451C8.89418 2.45451 10.4451 2.45451 11.9919 2.45451C13.5469 2.45451 15.1058 2.45451 16.6607 2.45451C16.7294 2.45451 16.794 2.45053 16.8627 2.4585C17.0081 2.47844 17.0929 2.57017 17.105 2.70975C17.1171 2.84135 17.0485 2.93707 16.9233 2.98891C16.8586 3.01683 16.794 3.01284 16.7254 3.01284C13.5792 3.01284 10.433 3.01284 7.28675 3.01284ZM15.4935 3.75063C15.4895 3.89818 15.4128 4.00187 15.2512 4.01782C15.1462 4.02979 15.0372 4.03378 14.9321 4.03378C12.9774 4.03378 11.0226 4.03378 9.06785 4.03378C8.96284 4.03378 8.8538 4.0258 8.74879 4.01384C8.59935 3.99788 8.52666 3.90217 8.51858 3.7586C8.51454 3.61503 8.57916 3.51533 8.72859 3.48742C8.82956 3.47146 8.93053 3.46349 9.02746 3.46349C10.021 3.46349 11.0145 3.46349 12.0081 3.46349C12.9935 3.46349 13.983 3.46349 14.9685 3.46349C15.0695 3.46349 15.1704 3.47146 15.2674 3.48343C15.4249 3.50736 15.4976 3.60706 15.4935 3.75063ZM8.87803 5.04275C8.65186 5.04275 8.53069 4.95102 8.51858 4.78353C8.50646 4.60805 8.61551 4.4924 8.81745 4.48841C9.3748 4.48442 9.93215 4.48442 10.4855 4.48442C10.9943 4.48442 11.5032 4.48442 12.0162 4.48442V4.48841C13.0582 4.48841 14.0961 4.48841 15.1341 4.48841C15.3764 4.48841 15.4976 4.58811 15.4976 4.76359C15.4976 4.93906 15.3683 5.04674 15.1381 5.04674C13.0501 5.04275 10.9661 5.04275 8.87803 5.04275ZM14.3384 5.70476C14.3223 6.03976 14.3344 6.03976 13.9871 6.03976H11.996C11.2771 6.03976 10.5622 6.03577 9.8433 6.04375C9.6979 6.04375 9.66559 6.00387 9.66963 5.86428C9.67771 5.4934 9.66963 5.4934 10.0533 5.4934C11.4103 5.4934 12.7633 5.49739 14.1204 5.48941C14.2859 5.4934 14.3465 5.52131 14.3384 5.70476ZM3.12278 7.87027C3.09451 7.91812 3.08239 7.98592 2.99354 8.00187C2.83199 7.90616 2.65832 7.81045 2.49677 7.69878C2.45234 7.66688 2.50889 7.61503 2.52908 7.57914C2.94507 6.86528 3.36511 6.15142 3.7811 5.43358C3.83764 5.33786 3.88611 5.31792 3.98304 5.38173C4.12036 5.47346 4.33845 5.5253 4.38691 5.64893C4.43942 5.78054 4.25767 5.93208 4.1769 6.07166C3.82553 6.66987 3.47415 7.27206 3.12278 7.87027ZM3.80937 7.66289C3.75687 7.60706 3.84976 7.53926 3.88207 7.48343C4.05574 7.18034 4.24556 6.88123 4.40711 6.57415C4.47981 6.43856 4.54847 6.48642 4.61712 6.54624C4.68175 6.60207 4.87157 6.58213 4.75848 6.76558C4.56058 7.08861 4.3748 7.41563 4.18498 7.73866C4.16074 7.77455 4.15267 7.8264 4.08805 7.83437C3.99919 7.78253 3.88207 7.74265 3.80937 7.66289ZM4.22536 9.10257C4.06381 9.01085 4.03958 8.89519 4.13247 8.73966C4.62116 7.90217 5.10985 7.06867 5.59855 6.23118C5.67528 6.10357 5.77625 6.02381 5.92973 6.11154C6.52746 6.44654 7.12924 6.78552 7.73506 7.1245C7.11712 8.06967 6.50727 9.00287 5.90145 9.94006C5.84895 10.0198 5.80856 10.0039 5.74394 9.96797C5.23506 9.67685 4.73021 9.38971 4.22536 9.10257ZM4.89984 16.2491C4.71809 16.6081 4.61712 16.9909 4.56866 17.4256C3.84976 16.7038 3.458 15.8782 3.44184 14.9012C3.41761 13.6489 3.93457 12.6479 4.93215 11.8862C5.0412 11.8025 5.0937 11.7945 5.1664 11.9301C5.2916 12.1694 5.437 12.4007 5.57835 12.632C5.62682 12.7078 5.63893 12.7556 5.55008 12.8234C4.56058 13.5692 4.25363 14.965 4.90388 16.0657C4.94023 16.1335 4.93215 16.1853 4.89984 16.2491ZM5.78029 13.2102C5.85703 13.1544 5.8853 13.1664 5.92973 13.2422C6.15994 13.637 6.39015 14.0318 6.62439 14.4266C6.66478 14.4984 6.66478 14.5422 6.60016 14.5941C6.5315 14.6459 6.47092 14.7137 6.39822 14.7536C6.17205 14.8733 5.958 15.0049 5.76414 15.1684C5.57431 15.3239 5.40469 15.5034 5.2391 15.7068C4.79079 14.9211 5.06543 13.7207 5.78029 13.2102ZM7.89257 20.5203C6.31341 20.5243 5.02504 19.2521 5.02504 17.6928C5.02504 16.1255 6.29725 14.8653 7.88045 14.8613C9.46365 14.8573 10.748 16.1175 10.748 17.6808C10.748 19.2441 9.46769 20.5163 7.89257 20.5203ZM12.2181 13.8802C13.2116 13.8085 13.9063 13.0507 14.0679 11.8583C14.088 11.8623 14.1082 11.8623 14.1244 11.8703C14.9362 12.3807 15.748 12.8952 16.588 13.4296C16.273 13.4695 15.9903 13.5014 15.7197 13.5971C15.2472 13.7646 14.8352 14.0198 14.5242 14.4067C14.2254 14.7775 13.8901 15.1086 13.5549 15.4435C12.832 16.1734 12.105 16.8992 11.3821 17.629C11.3376 17.6768 11.2892 17.7207 11.2084 17.8045C11.2003 16.7676 10.853 15.9181 10.1018 15.2481C9.35057 14.5821 8.46607 14.3229 7.41599 14.4266C8.26818 13.6011 9.09208 12.7995 9.92811 11.9899C10.332 13.3777 11.0509 13.968 12.2181 13.8802ZM10.4168 11.8623C10.4168 10.9929 11.1236 10.295 12 10.295C12.8845 10.295 13.6034 11.0009 13.6034 11.8703C13.6034 12.7397 12.8764 13.4495 11.996 13.4416C11.1195 13.4336 10.4128 12.7277 10.4168 11.8623ZM13.0622 20.6599C12.9733 21.1664 12.5291 21.5452 12.0121 21.5492C11.5073 21.5532 11.0509 21.1783 10.954 20.6878C10.9257 20.5522 10.9661 20.5203 11.1034 20.5243C11.4103 20.5323 11.7173 20.5283 12.0283 20.5283C12.3352 20.5283 12.6422 20.5323 12.9532 20.5243C13.0582 20.5243 13.0784 20.5522 13.0622 20.6599ZM14.3506 18.5542C14.3384 18.957 14.3506 19.3638 14.3465 19.7666C14.3425 19.9979 14.2658 20.0816 14.0315 20.0776C12.937 20.0776 11.8465 20.0697 10.752 20.0697C10.5703 20.0697 10.3885 20.0697 10.1704 20.0697C10.6026 19.6429 10.8934 19.1644 11.0792 18.614C11.1276 18.4625 11.2649 18.3628 11.4709 18.3668C12.3716 18.3787 13.2682 18.3748 14.1688 18.3668C14.3223 18.3668 14.3546 18.4106 14.3506 18.5542ZM11.7375 17.9121C12.4847 17.2102 13.1995 16.5403 13.8538 15.9261C13.773 16.5761 13.9548 17.2661 14.4313 17.9121H11.7375ZM16.6527 18.5223C15.3683 18.5263 14.3061 17.4814 14.3021 16.2132C14.2981 14.945 15.3562 13.8962 16.6405 13.8922C17.9249 13.8882 18.9871 14.9291 18.9911 16.2013C18.9911 17.4695 17.937 18.5183 16.6527 18.5223ZM17.8926 13.5732C17.9128 13.5452 17.9289 13.5173 17.9451 13.4894C18.1632 13.1185 18.1672 13.1185 18.458 13.4495C18.7528 13.7805 18.9305 14.1674 18.9507 14.614C18.6721 14.2511 18.3328 13.968 17.933 13.7526C17.8401 13.7008 17.832 13.6489 17.8926 13.5732ZM18.874 11.8942C18.9144 11.8224 18.9426 11.7985 19.0194 11.8543C21.0549 13.306 21.0872 16.2571 19.0436 17.7367C19.0355 17.7407 19.0234 17.7407 19.0073 17.7407C18.983 17.6928 19.0275 17.6689 19.0436 17.637C19.395 17.0427 19.5202 16.4047 19.399 15.7267C19.3708 15.5752 19.3748 15.4316 19.399 15.276C19.5606 14.299 19.2456 13.4894 18.4822 12.8513C18.3893 12.7756 18.3772 12.7277 18.4378 12.628C18.5913 12.3927 18.7326 12.1415 18.874 11.8942ZM18.5145 11.3678C18.567 11.4475 18.5792 11.5074 18.5267 11.5991C18.1834 12.1734 17.8481 12.7516 17.5129 13.3339C17.4604 13.4296 17.42 13.4296 17.3312 13.3738C16.2407 12.6758 15.1462 11.9859 14.0517 11.292C13.9871 11.2521 13.9467 11.2003 13.9184 11.1285C13.567 10.3149 12.8279 9.81244 11.9919 9.84036C11.0872 9.87226 10.4491 10.3109 10.0937 11.1365C10.0695 11.1883 10.0412 11.2481 10.0008 11.288C9.01131 12.2531 8.02181 13.2142 7.01616 14.1873C6.49919 13.302 5.99435 12.4366 5.48546 11.5752C5.42488 11.4715 5.48142 11.4156 5.52585 11.3478C6.25283 10.2352 6.97577 9.12251 7.70275 8.00985C8.00565 7.54724 8.30856 7.08861 8.60339 6.62201C8.66801 6.51832 8.74071 6.48642 8.86187 6.48642C10.6955 6.49041 12.525 6.49041 14.3586 6.49041C14.6252 6.49041 14.8958 6.49838 15.1624 6.48642C15.2916 6.48243 15.3643 6.5263 15.433 6.63398C16.2205 7.86229 17.0162 9.08263 17.8118 10.307C18.038 10.6619 18.2763 11.0128 18.5145 11.3678ZM19.815 9.07465C19.294 9.37376 18.773 9.67286 18.252 9.97196C18.1793 10.0118 18.1511 9.97994 18.1147 9.92411C17.525 9.01882 16.9354 8.11354 16.3417 7.21224C16.2892 7.13248 16.3174 7.10456 16.3901 7.06468C16.9394 6.75362 17.4887 6.43457 18.042 6.11952C18.1995 6.03178 18.3166 6.06369 18.4095 6.21922C18.8942 7.05671 19.3869 7.89021 19.8716 8.72769C19.8958 8.77156 19.916 8.82341 19.9281 8.84734C19.9321 8.96698 19.8918 9.03079 19.815 9.07465ZM19.9402 7.82241C19.8554 7.86229 19.8433 7.77057 19.8191 7.73069C19.6292 7.41164 19.4515 7.08861 19.2536 6.77356C19.1607 6.626 19.2738 6.60606 19.3546 6.56618C19.4313 6.5263 19.5121 6.40267 19.605 6.57415C19.7827 6.90516 19.9806 7.22421 20.1704 7.55122C20.1866 7.57914 20.2027 7.60706 20.227 7.65491C20.13 7.71075 20.0372 7.77455 19.9402 7.82241ZM21.1357 7.93806C21.0872 7.96997 21.0307 8.04175 20.958 7.97794C20.9297 7.95402 20.9136 7.91015 20.8934 7.87824C20.4855 7.18034 20.0775 6.48243 19.6656 5.78452C19.5889 5.65691 19.6131 5.60107 19.7383 5.54923C19.8837 5.48941 20.021 5.30995 20.1543 5.35382C20.2674 5.3937 20.3239 5.5931 20.4047 5.72072C20.7601 6.3269 21.1155 6.93308 21.4709 7.54325C21.4952 7.58313 21.5194 7.62301 21.5517 7.67884C21.4305 7.79848 21.273 7.85431 21.1357 7.93806ZM16.6607 14.973C15.9701 14.961 15.3885 15.5273 15.3885 16.2132C15.3885 16.8872 15.958 17.4535 16.6405 17.4575C17.3271 17.4615 17.8926 16.9072 17.9047 16.2252C17.9128 15.5472 17.3514 14.9849 16.6607 14.973ZM16.6405 16.9909C16.1963 16.9869 15.853 16.6439 15.853 16.2053C15.853 15.7586 16.2084 15.4156 16.6607 15.4236C17.105 15.4276 17.4402 15.7746 17.4362 16.2172C17.4321 16.6519 17.0848 16.9909 16.6405 16.9909ZM7.89257 16.2372C7.08481 16.2332 6.42246 16.8872 6.42246 17.6928C6.42246 18.4904 7.0727 19.1325 7.87641 19.1365C8.69225 19.1365 9.35057 18.4904 9.34653 17.6848C9.34249 16.8832 8.69628 16.2412 7.89257 16.2372ZM7.89257 18.6858C7.3433 18.6898 6.87884 18.2352 6.8748 17.6888C6.8748 17.1385 7.32714 16.6958 7.88449 16.6958C8.44588 16.6958 8.89015 17.1385 8.88611 17.6968C8.88611 18.2352 8.4378 18.6818 7.89257 18.6858ZM7.89257 16.2372C7.08481 16.2332 6.42246 16.8872 6.42246 17.6928C6.42246 18.4904 7.0727 19.1325 7.87641 19.1365C8.69225 19.1365 9.35057 18.4904 9.34653 17.6848C9.34249 16.8832 8.69628 16.2412 7.89257 16.2372ZM7.89257 18.6858C7.3433 18.6898 6.87884 18.2352 6.8748 17.6888C6.8748 17.1385 7.32714 16.6958 7.88449 16.6958C8.44588 16.6958 8.89015 17.1385 8.88611 17.6968C8.88611 18.2352 8.4378 18.6818 7.89257 18.6858ZM16.6607 14.973C15.9701 14.961 15.3885 15.5273 15.3885 16.2132C15.3885 16.8872 15.958 17.4535 16.6405 17.4575C17.3271 17.4615 17.8926 16.9072 17.9047 16.2252C17.9128 15.5472 17.3514 14.9849 16.6607 14.973ZM16.6405 16.9909C16.1963 16.9869 15.853 16.6439 15.853 16.2053C15.853 15.7586 16.2084 15.4156 16.6607 15.4236C17.105 15.4276 17.4402 15.7746 17.4362 16.2172C17.4321 16.6519 17.0848 16.9909 16.6405 16.9909ZM16.6607 14.973C15.9701 14.961 15.3885 15.5273 15.3885 16.2132C15.3885 16.8872 15.958 17.4535 16.6405 17.4575C17.3271 17.4615 17.8926 16.9072 17.9047 16.2252C17.9128 15.5472 17.3514 14.9849 16.6607 14.973ZM16.6405 16.9909C16.1963 16.9869 15.853 16.6439 15.853 16.2053C15.853 15.7586 16.2084 15.4156 16.6607 15.4236C17.105 15.4276 17.4402 15.7746 17.4362 16.2172C17.4321 16.6519 17.0848 16.9909 16.6405 16.9909ZM7.89257 16.2372C7.08481 16.2332 6.42246 16.8872 6.42246 17.6928C6.42246 18.4904 7.0727 19.1325 7.87641 19.1365C8.69225 19.1365 9.35057 18.4904 9.34653 17.6848C9.34249 16.8832 8.69628 16.2412 7.89257 16.2372ZM7.89257 18.6858C7.3433 18.6898 6.87884 18.2352 6.8748 17.6888C6.8748 17.1385 7.32714 16.6958 7.88449 16.6958C8.44588 16.6958 8.89015 17.1385 8.88611 17.6968C8.88611 18.2352 8.4378 18.6818 7.89257 18.6858ZM7.89257 16.2372C7.08481 16.2332 6.42246 16.8872 6.42246 17.6928C6.42246 18.4904 7.0727 19.1325 7.87641 19.1365C8.69225 19.1365 9.35057 18.4904 9.34653 17.6848C9.34249 16.8832 8.69628 16.2412 7.89257 16.2372ZM7.89257 18.6858C7.3433 18.6898 6.87884 18.2352 6.8748 17.6888C6.8748 17.1385 7.32714 16.6958 7.88449 16.6958C8.44588 16.6958 8.89015 17.1385 8.88611 17.6968C8.88611 18.2352 8.4378 18.6818 7.89257 18.6858ZM16.6607 14.973C15.9701 14.961 15.3885 15.5273 15.3885 16.2132C15.3885 16.8872 15.958 17.4535 16.6405 17.4575C17.3271 17.4615 17.8926 16.9072 17.9047 16.2252C17.9128 15.5472 17.3514 14.9849 16.6607 14.973ZM16.6405 16.9909C16.1963 16.9869 15.853 16.6439 15.853 16.2053C15.853 15.7586 16.2084 15.4156 16.6607 15.4236C17.105 15.4276 17.4402 15.7746 17.4362 16.2172C17.4321 16.6519 17.0848 16.9909 16.6405 16.9909ZM16.6607 14.973C15.9701 14.961 15.3885 15.5273 15.3885 16.2132C15.3885 16.8872 15.958 17.4535 16.6405 17.4575C17.3271 17.4615 17.8926 16.9072 17.9047 16.2252C17.9128 15.5472 17.3514 14.9849 16.6607 14.973ZM16.6405 16.9909C16.1963 16.9869 15.853 16.6439 15.853 16.2053C15.853 15.7586 16.2084 15.4156 16.6607 15.4236C17.105 15.4276 17.4402 15.7746 17.4362 16.2172C17.4321 16.6519 17.0848 16.9909 16.6405 16.9909ZM7.89257 16.2372C7.08481 16.2332 6.42246 16.8872 6.42246 17.6928C6.42246 18.4904 7.0727 19.1325 7.87641 19.1365C8.69225 19.1365 9.35057 18.4904 9.34653 17.6848C9.34249 16.8832 8.69628 16.2412 7.89257 16.2372ZM7.89257 18.6858C7.3433 18.6898 6.87884 18.2352 6.8748 17.6888C6.8748 17.1385 7.32714 16.6958 7.88449 16.6958C8.44588 16.6958 8.89015 17.1385 8.88611 17.6968C8.88611 18.2352 8.4378 18.6818 7.89257 18.6858ZM7.89257 16.2372C7.08481 16.2332 6.42246 16.8872 6.42246 17.6928C6.42246 18.4904 7.0727 19.1325 7.87641 19.1365C8.69225 19.1365 9.35057 18.4904 9.34653 17.6848C9.34249 16.8832 8.69628 16.2412 7.89257 16.2372ZM7.89257 18.6858C7.3433 18.6898 6.87884 18.2352 6.8748 17.6888C6.8748 17.1385 7.32714 16.6958 7.88449 16.6958C8.44588 16.6958 8.89015 17.1385 8.88611 17.6968C8.88611 18.2352 8.4378 18.6818 7.89257 18.6858ZM16.6607 14.973C15.9701 14.961 15.3885 15.5273 15.3885 16.2132C15.3885 16.8872 15.958 17.4535 16.6405 17.4575C17.3271 17.4615 17.8926 16.9072 17.9047 16.2252C17.9128 15.5472 17.3514 14.9849 16.6607 14.973ZM16.6405 16.9909C16.1963 16.9869 15.853 16.6439 15.853 16.2053C15.853 15.7586 16.2084 15.4156 16.6607 15.4236C17.105 15.4276 17.4402 15.7746 17.4362 16.2172C17.4321 16.6519 17.0848 16.9909 16.6405 16.9909ZM16.6607 14.973C15.9701 14.961 15.3885 15.5273 15.3885 16.2132C15.3885 16.8872 15.958 17.4535 16.6405 17.4575C17.3271 17.4615 17.8926 16.9072 17.9047 16.2252C17.9128 15.5472 17.3514 14.9849 16.6607 14.973ZM16.6405 16.9909C16.1963 16.9869 15.853 16.6439 15.853 16.2053C15.853 15.7586 16.2084 15.4156 16.6607 15.4236C17.105 15.4276 17.4402 15.7746 17.4362 16.2172C17.4321 16.6519 17.0848 16.9909 16.6405 16.9909ZM7.89257 16.2372C7.08481 16.2332 6.42246 16.8872 6.42246 17.6928C6.42246 18.4904 7.0727 19.1325 7.87641 19.1365C8.69225 19.1365 9.35057 18.4904 9.34653 17.6848C9.34249 16.8832 8.69628 16.2412 7.89257 16.2372ZM7.89257 18.6858C7.3433 18.6898 6.87884 18.2352 6.8748 17.6888C6.8748 17.1385 7.32714 16.6958 7.88449 16.6958C8.44588 16.6958 8.89015 17.1385 8.88611 17.6968C8.88611 18.2352 8.4378 18.6818 7.89257 18.6858ZM7.89257 16.2372C7.08481 16.2332 6.42246 16.8872 6.42246 17.6928C6.42246 18.4904 7.0727 19.1325 7.87641 19.1365C8.69225 19.1365 9.35057 18.4904 9.34653 17.6848C9.34249 16.8832 8.69628 16.2412 7.89257 16.2372ZM7.89257 18.6858C7.3433 18.6898 6.87884 18.2352 6.8748 17.6888C6.8748 17.1385 7.32714 16.6958 7.88449 16.6958C8.44588 16.6958 8.89015 17.1385 8.88611 17.6968C8.88611 18.2352 8.4378 18.6818 7.89257 18.6858ZM16.6607 14.973C15.9701 14.961 15.3885 15.5273 15.3885 16.2132C15.3885 16.8872 15.958 17.4535 16.6405 17.4575C17.3271 17.4615 17.8926 16.9072 17.9047 16.2252C17.9128 15.5472 17.3514 14.9849 16.6607 14.973ZM16.6405 16.9909C16.1963 16.9869 15.853 16.6439 15.853 16.2053C15.853 15.7586 16.2084 15.4156 16.6607 15.4236C17.105 15.4276 17.4402 15.7746 17.4362 16.2172C17.4321 16.6519 17.0848 16.9909 16.6405 16.9909ZM16.6607 14.973C15.9701 14.961 15.3885 15.5273 15.3885 16.2132C15.3885 16.8872 15.958 17.4535 16.6405 17.4575C17.3271 17.4615 17.8926 16.9072 17.9047 16.2252C17.9128 15.5472 17.3514 14.9849 16.6607 14.973ZM16.6405 16.9909C16.1963 16.9869 15.853 16.6439 15.853 16.2053C15.853 15.7586 16.2084 15.4156 16.6607 15.4236C17.105 15.4276 17.4402 15.7746 17.4362 16.2172C17.4321 16.6519 17.0848 16.9909 16.6405 16.9909ZM7.89257 16.2372C7.08481 16.2332 6.42246 16.8872 6.42246 17.6928C6.42246 18.4904 7.0727 19.1325 7.87641 19.1365C8.69225 19.1365 9.35057 18.4904 9.34653 17.6848C9.34249 16.8832 8.69628 16.2412 7.89257 16.2372ZM7.89257 18.6858C7.3433 18.6898 6.87884 18.2352 6.8748 17.6888C6.8748 17.1385 7.32714 16.6958 7.88449 16.6958C8.44588 16.6958 8.89015 17.1385 8.88611 17.6968C8.88611 18.2352 8.4378 18.6818 7.89257 18.6858ZM7.89257 16.2372C7.08481 16.2332 6.42246 16.8872 6.42246 17.6928C6.42246 18.4904 7.0727 19.1325 7.87641 19.1365C8.69225 19.1365 9.35057 18.4904 9.34653 17.6848C9.34249 16.8832 8.69628 16.2412 7.89257 16.2372ZM7.89257 18.6858C7.3433 18.6898 6.87884 18.2352 6.8748 17.6888C6.8748 17.1385 7.32714 16.6958 7.88449 16.6958C8.44588 16.6958 8.89015 17.1385 8.88611 17.6968C8.88611 18.2352 8.4378 18.6818 7.89257 18.6858ZM7.89257 16.2372C7.08481 16.2332 6.42246 16.8872 6.42246 17.6928C6.42246 18.4904 7.0727 19.1325 7.87641 19.1365C8.69225 19.1365 9.35057 18.4904 9.34653 17.6848C9.34249 16.8832 8.69628 16.2412 7.89257 16.2372ZM7.89257 18.6858C7.3433 18.6898 6.87884 18.2352 6.8748 17.6888C6.8748 17.1385 7.32714 16.6958 7.88449 16.6958C8.44588 16.6958 8.89015 17.1385 8.88611 17.6968C8.88611 18.2352 8.4378 18.6818 7.89257 18.6858ZM7.89257 16.2372C7.08481 16.2332 6.42246 16.8872 6.42246 17.6928C6.42246 18.4904 7.0727 19.1325 7.87641 19.1365C8.69225 19.1365 9.35057 18.4904 9.34653 17.6848C9.34249 16.8832 8.69628 16.2412 7.89257 16.2372ZM7.89257 18.6858C7.3433 18.6898 6.87884 18.2352 6.8748 17.6888C6.8748 17.1385 7.32714 16.6958 7.88449 16.6958C8.44588 16.6958 8.89015 17.1385 8.88611 17.6968C8.88611 18.2352 8.4378 18.6818 7.89257 18.6858ZM7.89257 16.2372C7.08481 16.2332 6.42246 16.8872 6.42246 17.6928C6.42246 18.4904 7.0727 19.1325 7.87641 19.1365C8.69225 19.1365 9.35057 18.4904 9.34653 17.6848C9.34249 16.8832 8.69628 16.2412 7.89257 16.2372ZM7.89257 18.6858C7.3433 18.6898 6.87884 18.2352 6.8748 17.6888C6.8748 17.1385 7.32714 16.6958 7.88449 16.6958C8.44588 16.6958 8.89015 17.1385 8.88611 17.6968C8.88611 18.2352 8.4378 18.6818 7.89257 18.6858ZM7.89257 16.2372C7.08481 16.2332 6.42246 16.8872 6.42246 17.6928C6.42246 18.4904 7.0727 19.1325 7.87641 19.1365C8.69225 19.1365 9.35057 18.4904 9.34653 17.6848C9.34249 16.8832 8.69628 16.2412 7.89257 16.2372ZM7.89257 18.6858C7.3433 18.6898 6.87884 18.2352 6.8748 17.6888C6.8748 17.1385 7.32714 16.6958 7.88449 16.6958C8.44588 16.6958 8.89015 17.1385 8.88611 17.6968C8.88611 18.2352 8.4378 18.6818 7.89257 18.6858ZM7.89257 16.2372C7.08481 16.2332 6.42246 16.8872 6.42246 17.6928C6.42246 18.4904 7.0727 19.1325 7.87641 19.1365C8.69225 19.1365 9.35057 18.4904 9.34653 17.6848C9.34249 16.8832 8.69628 16.2412 7.89257 16.2372ZM7.89257 18.6858C7.3433 18.6898 6.87884 18.2352 6.8748 17.6888C6.8748 17.1385 7.32714 16.6958 7.88449 16.6958C8.44588 16.6958 8.89015 17.1385 8.88611 17.6968C8.88611 18.2352 8.4378 18.6818 7.89257 18.6858ZM7.89257 16.2372C7.08481 16.2332 6.42246 16.8872 6.42246 17.6928C6.42246 18.4904 7.0727 19.1325 7.87641 19.1365C8.69225 19.1365 9.35057 18.4904 9.34653 17.6848C9.34249 16.8832 8.69628 16.2412 7.89257 16.2372ZM7.89257 18.6858C7.3433 18.6898 6.87884 18.2352 6.8748 17.6888C6.8748 17.1385 7.32714 16.6958 7.88449 16.6958C8.44588 16.6958 8.89015 17.1385 8.88611 17.6968C8.88611 18.2352 8.4378 18.6818 7.89257 18.6858ZM7.89257 16.2372C7.08481 16.2332 6.42246 16.8872 6.42246 17.6928C6.42246 18.4904 7.0727 19.1325 7.87641 19.1365C8.69225 19.1365 9.35057 18.4904 9.34653 17.6848C9.34249 16.8832 8.69628 16.2412 7.89257 16.2372ZM7.89257 18.6858C7.3433 18.6898 6.87884 18.2352 6.8748 17.6888C6.8748 17.1385 7.32714 16.6958 7.88449 16.6958C8.44588 16.6958 8.89015 17.1385 8.88611 17.6968C8.88611 18.2352 8.4378 18.6818 7.89257 18.6858ZM7.89257 16.2372C7.08481 16.2332 6.42246 16.8872 6.42246 17.6928C6.42246 18.4904 7.0727 19.1325 7.87641 19.1365C8.69225 19.1365 9.35057 18.4904 9.34653 17.6848C9.34249 16.8832 8.69628 16.2412 7.89257 16.2372ZM7.89257 18.6858C7.3433 18.6898 6.87884 18.2352 6.8748 17.6888C6.8748 17.1385 7.32714 16.6958 7.88449 16.6958C8.44588 16.6958 8.89015 17.1385 8.88611 17.6968C8.88611 18.2352 8.4378 18.6818 7.89257 18.6858ZM7.89257 16.2372C7.08481 16.2332 6.42246 16.8872 6.42246 17.6928C6.42246 18.4904 7.0727 19.1325 7.87641 19.1365C8.69225 19.1365 9.35057 18.4904 9.34653 17.6848C9.34249 16.8832 8.69628 16.2412 7.89257 16.2372ZM7.89257 18.6858C7.3433 18.6898 6.87884 18.2352 6.8748 17.6888C6.8748 17.1385 7.32714 16.6958 7.88449 16.6958C8.44588 16.6958 8.89015 17.1385 8.88611 17.6968C8.88611 18.2352 8.4378 18.6818 7.89257 18.6858Z" fill="#777777"/>
<path d="M7.89248 16.2373C7.08472 16.2333 6.42236 16.8873 6.42236 17.6929C6.42236 18.4905 7.07261 19.1326 7.87632 19.1366C8.69215 19.1366 9.35047 18.4905 9.34643 17.6849C9.3424 16.8833 8.69619 16.2413 7.89248 16.2373ZM7.89248 18.6859C7.3432 18.6899 6.87874 18.2353 6.87471 17.6889C6.87471 17.1386 7.32705 16.6959 7.8844 16.6959C8.44579 16.6959 8.89005 17.1386 8.88601 17.6969C8.88601 18.2353 8.43771 18.682 7.89248 18.6859Z" fill="#FEFEFE"/>
<path d="M16.6606 14.9731C15.97 14.9611 15.3884 15.5274 15.3884 16.2134C15.3884 16.8873 15.9579 17.4536 16.6404 17.4576C17.327 17.4616 17.8925 16.9073 17.9046 16.2253C17.9127 15.5474 17.3513 14.985 16.6606 14.9731ZM16.6404 16.991C16.1962 16.987 15.8529 16.6441 15.8529 16.2054C15.8529 15.7587 16.2083 15.4158 16.6606 15.4237C17.1049 15.4277 17.4401 15.7747 17.4361 16.2173C17.432 16.652 17.0847 16.991 16.6404 16.991Z" fill="#FEFEFE"/>
<path d="M7.89248 16.2373C7.08472 16.2333 6.42236 16.8873 6.42236 17.6929C6.42236 18.4905 7.07261 19.1326 7.87632 19.1366C8.69215 19.1366 9.35047 18.4905 9.34643 17.6849C9.3424 16.8833 8.69619 16.2413 7.89248 16.2373ZM7.89248 18.6859C7.3432 18.6899 6.87874 18.2353 6.87471 17.6889C6.87471 17.1386 7.32705 16.6959 7.8844 16.6959C8.44579 16.6959 8.89005 17.1386 8.88601 17.6969C8.88601 18.2353 8.43771 18.682 7.89248 18.6859Z" fill="#777777"/>
<path d="M16.6606 14.9731C15.97 14.9611 15.3884 15.5274 15.3884 16.2134C15.3884 16.8873 15.9579 17.4536 16.6404 17.4576C17.327 17.4616 17.8925 16.9073 17.9046 16.2253C17.9127 15.5474 17.3513 14.985 16.6606 14.9731ZM16.6404 16.991C16.1962 16.987 15.8529 16.6441 15.8529 16.2054C15.8529 15.7587 16.2083 15.4158 16.6606 15.4237C17.1049 15.4277 17.4401 15.7747 17.4361 16.2173C17.432 16.652 17.0847 16.991 16.6404 16.991Z" fill="#777777"/>
</svg>
