<svg width="69" height="69" viewBox="0 0 69 69" fill="none" xmlns="http://www.w3.org/2000/svg">
<g clip-path="url(#clip0_123_2872)">
<path d="M40.25 8.625V20.125C40.25 20.8875 40.5529 21.6188 41.0921 22.1579C41.6312 22.6971 42.3625 23 43.125 23H54.625" stroke="#0D01A0" stroke-width="2" stroke-linecap="round" stroke-linejoin="round"/>
<path d="M48.875 60.375H20.125C18.6 60.375 17.1375 59.7692 16.0591 58.6909C14.9808 57.6125 14.375 56.15 14.375 54.625V14.375C14.375 12.85 14.9808 11.3875 16.0591 10.3091C17.1375 9.2308 18.6 8.625 20.125 8.625H40.25L54.625 23V54.625C54.625 56.15 54.0192 57.6125 52.9409 58.6909C51.8625 59.7692 50.4 60.375 48.875 60.375Z" stroke="#0D01A0" stroke-width="2" stroke-linecap="round" stroke-linejoin="round"/>
<path d="M25.875 43.125L31.625 48.875L43.125 37.375" stroke="#0D01A0" stroke-width="2" stroke-linecap="round" stroke-linejoin="round"/>
</g>
<defs>
<clipPath id="clip0_123_2872">
<rect width="69" height="69" fill="white"/>
</clipPath>
</defs>
</svg>
