<svg width="69" height="69" viewBox="0 0 69 69" fill="none" xmlns="http://www.w3.org/2000/svg">
<g clip-path="url(#clip0_123_2862)">
<path d="M48.875 23V14.375C48.875 13.6125 48.5721 12.8812 48.0329 12.3421C47.4938 11.8029 46.7625 11.5 46 11.5H17.25C15.725 11.5 14.2625 12.1058 13.1841 13.1841C12.1058 14.2625 11.5 15.725 11.5 17.25M11.5 17.25C11.5 18.775 12.1058 20.2375 13.1841 21.3159C14.2625 22.3942 15.725 23 17.25 23H51.75C52.5125 23 53.2438 23.3029 53.7829 23.8421C54.3221 24.3812 54.625 25.1125 54.625 25.875V34.5M11.5 17.25V51.75C11.5 53.275 12.1058 54.7375 13.1841 55.8159C14.2625 56.8942 15.725 57.5 17.25 57.5H51.75C52.5125 57.5 53.2438 57.1971 53.7829 56.6579C54.3221 56.1188 54.625 55.3875 54.625 54.625V46" stroke="#0D01A0" stroke-width="2" stroke-linecap="round" stroke-linejoin="round"/>
<path d="M57.5 34.5V46H46C44.475 46 43.0125 45.3942 41.9341 44.3159C40.8558 43.2375 40.25 41.775 40.25 40.25C40.25 38.725 40.8558 37.2625 41.9341 36.1841C43.0125 35.1058 44.475 34.5 46 34.5H57.5Z" stroke="#0D01A0" stroke-width="2" stroke-linecap="round" stroke-linejoin="round"/>
</g>
<defs>
<clipPath id="clip0_123_2862">
<rect width="69" height="69" fill="white"/>
</clipPath>
</defs>
</svg>
