<svg width="44" height="43" viewBox="0 0 44 43" fill="none" xmlns="http://www.w3.org/2000/svg">
<path d="M1 21.4474C1 24.1326 1.54318 26.7914 2.59853 29.2722C3.65388 31.753 5.20073 34.0071 7.15076 35.9058C9.10079 37.8046 11.4158 39.3107 13.9636 40.3383C16.5115 41.3659 19.2422 41.8947 22 41.8947C24.7578 41.8947 27.4885 41.3659 30.0364 40.3383C32.5842 39.3107 34.8992 37.8046 36.8492 35.9058C38.7993 34.0071 40.3461 31.753 41.4015 29.2722C42.4568 26.7914 43 24.1326 43 21.4474C43 18.7622 42.4568 16.1033 41.4015 13.6225C40.3461 11.1417 38.7993 8.88761 36.8492 6.9889C34.8992 5.09018 32.5842 3.58404 30.0364 2.55646C27.4885 1.52889 24.7578 1 22 1C19.2422 1 16.5115 1.52889 13.9636 2.55646C11.4158 3.58404 9.10079 5.09018 7.15076 6.9889C5.20073 8.88761 3.65388 11.1417 2.59853 13.6225C1.54318 16.1033 1 18.7622 1 21.4474Z" stroke="white" stroke-width="1.5" stroke-linecap="round" stroke-linejoin="round"/>
<path d="M15.4775 22.9412L20.8469 17.1883C21.481 16.5089 22.5187 16.5089 23.1528 17.1883L28.5222 22.9412" stroke="white" stroke-width="1.5" stroke-miterlimit="10" stroke-linecap="round" stroke-linejoin="round"/>
</svg>
