<svg width="30" height="30" viewBox="0 0 30 30" fill="none" xmlns="http://www.w3.org/2000/svg">
<g id="vuesax/linear/mouse-square">
<g id="mouse-square">
<path id="Vector" d="M27.5 15V11.25C27.5 5 25 2.5 18.75 2.5H11.25C5 2.5 2.5 5 2.5 11.25V18.75C2.5 25 5 27.5 11.25 27.5H15" stroke="#333" stroke-width="1.5" stroke-linecap="round" stroke-linejoin="round"/>
<path id="Vector_2" d="M26.2 22.3001L24.1625 22.9876C23.6 23.1751 23.15 23.6126 22.9625 24.1876L22.275 26.2251C21.6875 27.9876 19.2125 27.9501 18.6625 26.1876L16.35 18.7501C15.9 17.2751 17.2625 15.9001 18.725 16.3626L26.175 18.6751C27.925 19.2251 27.95 21.7126 26.2 22.3001Z" stroke="#333" stroke-width="1.5" stroke-linecap="round" stroke-linejoin="round"/>
</g>
</g>
</svg>
