<svg width="42" height="42" viewBox="0 0 42 42" fill="none" xmlns="http://www.w3.org/2000/svg">
<g id="vuesax/linear/cup">
<g id="cup">
<path id="Vector" d="M21.2625 28.875V32.55" stroke="#333" stroke-width="2" stroke-linecap="round" stroke-linejoin="round"/>
<path id="Vector_2" d="M12.5125 38.5H30.0125V36.75C30.0125 34.825 28.4375 33.25 26.5125 33.25H16.0125C14.0875 33.25 12.5125 34.825 12.5125 36.75V38.5V38.5Z" stroke="#333" stroke-width="2" stroke-miterlimit="10"/>
<path id="Vector_3" d="M10.7625 38.5H31.7625" stroke="#333" stroke-width="2" stroke-linecap="round" stroke-linejoin="round"/>
<path id="Vector_4" d="M21 28C14.2275 28 8.75 22.5225 8.75 15.75V10.5C8.75 6.6325 11.8825 3.5 15.75 3.5H26.25C30.1175 3.5 33.25 6.6325 33.25 10.5V15.75C33.25 22.5225 27.7725 28 21 28Z" stroke="#333" stroke-width="2" stroke-linecap="round" stroke-linejoin="round"/>
<path id="Vector_5" d="M9.5725 20.3875C8.26 19.9675 7.105 19.1975 6.195 18.2875C4.62 16.5375 3.57 14.4375 3.57 11.9875C3.57 9.53755 5.495 7.61255 7.945 7.61255H9.0825C8.7325 8.41755 8.5575 9.31005 8.5575 10.2375V15.4875C8.5575 17.2375 8.925 18.8825 9.5725 20.3875Z" stroke="#333" stroke-width="2" stroke-linecap="round" stroke-linejoin="round"/>
<path id="Vector_6" d="M32.4275 20.3875C33.74 19.9675 34.895 19.1975 35.805 18.2875C37.38 16.5375 38.43 14.4375 38.43 11.9875C38.43 9.53755 36.505 7.61255 34.055 7.61255H32.9175C33.2675 8.41755 33.4425 9.31005 33.4425 10.2375V15.4875C33.4425 17.2375 33.075 18.8825 32.4275 20.3875Z" stroke="#333" stroke-width="2" stroke-linecap="round" stroke-linejoin="round"/>
</g>
</g>
</svg>
