<svg width="20" height="20" viewBox="0 0 20 20" fill="none" xmlns="http://www.w3.org/2000/svg">
<g id="Group">
<g id="arrow-download-import">
<path id="Vector" fill-rule="evenodd" clip-rule="evenodd" d="M3.125 11.875V14.375C3.125 15.0381 3.38844 15.6741 3.85719 16.1428C4.32594 16.6116 4.96187 16.875 5.625 16.875H14.375C15.0381 16.875 15.6741 16.6116 16.1428 16.1428C16.6116 15.6741 16.875 15.0381 16.875 14.375C16.875 13.1878 16.875 11.875 16.875 11.875C16.875 11.53 16.595 11.25 16.25 11.25C15.905 11.25 15.625 11.53 15.625 11.875V14.375C15.625 14.7066 15.4934 15.0244 15.2587 15.2587C15.0244 15.4934 14.7066 15.625 14.375 15.625C12.015 15.625 7.985 15.625 5.625 15.625C5.29344 15.625 4.97563 15.4934 4.74125 15.2587C4.50656 15.0244 4.375 14.7066 4.375 14.375C4.375 13.1878 4.375 11.875 4.375 11.875C4.375 11.53 4.095 11.25 3.75 11.25C3.405 11.25 3.125 11.53 3.125 11.875ZM9.375 11.6163V3.75C9.375 3.405 9.655 3.125 10 3.125C10.345 3.125 10.625 3.405 10.625 3.75V11.6163L12.6831 9.55813C12.9269 9.31406 13.3231 9.31406 13.5669 9.55813C13.8109 9.80188 13.8109 10.1981 13.5669 10.4419L10.4419 13.5669L10.4231 13.5825L10.3494 13.6431L10.3472 13.6444L10.3437 13.6469L10.2919 13.6744L10.2431 13.7009L10.2394 13.7022L10.2353 13.7044L10.1725 13.7228L10.1259 13.7372L10.1225 13.7375C10.0822 13.7456 10.0409 13.7497 10 13.75L9.88062 13.7384L9.8775 13.7375L9.87406 13.7372L9.8275 13.7228L9.76469 13.7044L9.76062 13.7022L9.75688 13.7009L9.70813 13.6744L9.65625 13.6469L9.65281 13.6444L9.65063 13.6431L9.57687 13.5825L9.55813 13.5669L6.43313 10.4419C6.18906 10.1981 6.18906 9.80188 6.43313 9.55813C6.67688 9.31406 7.07312 9.31406 7.31687 9.55813L9.375 11.6163Z" fill="#0D01A0
"/>
</g>
</g>
</svg>
