<svg width="28" height="30" viewBox="0 0 28 30" fill="none" xmlns="http://www.w3.org/2000/svg">
<g id="10-File Security">
<path id="Vector" d="M3.6875 22.0313C3.68748 21.9697 3.6996 21.9087 3.72315 21.8519C3.7467 21.795 3.78123 21.7433 3.82476 21.6998C3.86829 21.6562 3.91997 21.6217 3.97685 21.5982C4.03373 21.5746 4.09469 21.5625 4.15625 21.5625H11.6562C11.7806 21.5625 11.8998 21.6119 11.9877 21.6998C12.0756 21.7877 12.125 21.9069 12.125 22.0313C12.125 22.1556 12.0756 22.2748 11.9877 22.3627C11.8998 22.4506 11.7806 22.5 11.6562 22.5H4.15625C4.09469 22.5 4.03373 22.4879 3.97685 22.4644C3.91997 22.4408 3.86829 22.4063 3.82476 22.3628C3.78123 22.3192 3.7467 22.2675 3.72315 22.2107C3.6996 22.1538 3.68748 22.0928 3.6875 22.0313ZM4.15625 19.6875H6.96875C7.09307 19.6875 7.2123 19.6381 7.30021 19.5502C7.38811 19.4623 7.4375 19.3431 7.4375 19.2188C7.4375 19.0944 7.38811 18.9752 7.30021 18.8873C7.2123 18.7994 7.09307 18.75 6.96875 18.75H4.15625C4.03193 18.75 3.9127 18.7994 3.82479 18.8873C3.73689 18.9752 3.6875 19.0944 3.6875 19.2188C3.6875 19.3431 3.73689 19.4623 3.82479 19.5502C3.9127 19.6381 4.03193 19.6875 4.15625 19.6875ZM11.6562 15.9375H4.15625C4.03193 15.9375 3.9127 15.9869 3.82479 16.0748C3.73689 16.1627 3.6875 16.2819 3.6875 16.4063C3.6875 16.5306 3.73689 16.6498 3.82479 16.7377C3.9127 16.8256 4.03193 16.875 4.15625 16.875H11.6562C11.7806 16.875 11.8998 16.8256 11.9877 16.7377C12.0756 16.6498 12.125 16.5306 12.125 16.4063C12.125 16.2819 12.0756 16.1627 11.9877 16.0748C11.8998 15.9869 11.7806 15.9375 11.6562 15.9375ZM17.2812 10.3125H4.15625C4.03193 10.3125 3.9127 10.3619 3.82479 10.4498C3.73689 10.5377 3.6875 10.6569 3.6875 10.7813C3.6875 10.9056 3.73689 11.0248 3.82479 11.1127C3.9127 11.2006 4.03193 11.25 4.15625 11.25H17.2812C17.4056 11.25 17.5248 11.2006 17.6127 11.1127C17.7006 11.0248 17.75 10.9056 17.75 10.7813C17.75 10.6569 17.7006 10.5377 17.6127 10.4498C17.5248 10.3619 17.4056 10.3125 17.2812 10.3125ZM4.15625 5.62501H14C14.1243 5.62501 14.2435 5.57562 14.3315 5.48772C14.4194 5.39981 14.4688 5.28058 14.4688 5.15626C14.4688 5.03194 14.4194 4.91271 14.3315 4.8248C14.2435 4.7369 14.1243 4.68751 14 4.68751H4.15625C4.03193 4.68751 3.9127 4.7369 3.82479 4.8248C3.73689 4.91271 3.6875 5.03194 3.6875 5.15626C3.6875 5.28058 3.73689 5.39981 3.82479 5.48772C3.9127 5.57562 4.03193 5.62501 4.15625 5.62501ZM17.2812 13.125H14.4688C14.3444 13.125 14.2252 13.1744 14.1373 13.2623C14.0494 13.3502 14 13.4694 14 13.5938C14 13.7181 14.0494 13.8373 14.1373 13.9252C14.2252 14.0131 14.3444 14.0625 14.4688 14.0625H17.2812C17.4056 14.0625 17.5248 14.0131 17.6127 13.9252C17.7006 13.8373 17.75 13.7181 17.75 13.5938C17.75 13.4694 17.7006 13.3502 17.6127 13.2623C17.5248 13.1744 17.4056 13.125 17.2812 13.125ZM4.15625 8.43751H6.96875C7.09307 8.43751 7.2123 8.38812 7.30021 8.30022C7.38811 8.21231 7.4375 8.09308 7.4375 7.96876C7.4375 7.84444 7.38811 7.72521 7.30021 7.6373C7.2123 7.5494 7.09307 7.50001 6.96875 7.50001H4.15625C4.03193 7.50001 3.9127 7.5494 3.82479 7.6373C3.73689 7.72521 3.6875 7.84444 3.6875 7.96876C3.6875 8.09308 3.73689 8.21231 3.82479 8.30022C3.9127 8.38812 4.03193 8.43751 4.15625 8.43751ZM17.2812 7.50001H8.84375C8.71943 7.50001 8.6002 7.5494 8.51229 7.6373C8.42439 7.72521 8.375 7.84444 8.375 7.96876C8.375 8.09308 8.42439 8.21231 8.51229 8.30022C8.6002 8.38812 8.71943 8.43751 8.84375 8.43751H17.2812C17.4056 8.43751 17.5248 8.38812 17.6127 8.30022C17.7006 8.21231 17.75 8.09308 17.75 7.96876C17.75 7.84444 17.7006 7.72521 17.6127 7.6373C17.5248 7.5494 17.4056 7.50001 17.2812 7.50001ZM13.0625 13.5938C13.0625 13.5322 13.0504 13.4712 13.0269 13.4144C13.0033 13.3575 12.9688 13.3058 12.9252 13.2623C12.8817 13.2187 12.83 13.1842 12.7732 13.1607C12.7163 13.1371 12.6553 13.125 12.5938 13.125H4.15625C4.03193 13.125 3.9127 13.1744 3.82479 13.2623C3.73689 13.3502 3.6875 13.4694 3.6875 13.5938C3.6875 13.7181 3.73689 13.8373 3.82479 13.9252C3.9127 14.0131 4.03193 14.0625 4.15625 14.0625H12.5938C12.6553 14.0625 12.7163 14.0504 12.7732 14.0269C12.83 14.0033 12.8817 13.9688 12.9252 13.9253C12.9688 13.8817 13.0033 13.83 13.0269 13.7732C13.0504 13.7163 13.0625 13.6553 13.0625 13.5938ZM11.6562 18.75H8.84375C8.71943 18.75 8.6002 18.7994 8.51229 18.8873C8.42439 18.9752 8.375 19.0944 8.375 19.2188C8.375 19.3431 8.42439 19.4623 8.51229 19.5502C8.6002 19.6381 8.71943 19.6875 8.84375 19.6875H11.6562C11.7806 19.6875 11.8998 19.6381 11.9877 19.5502C12.0756 19.4623 12.125 19.3431 12.125 19.2188C12.125 19.0944 12.0756 18.9752 11.9877 18.8873C11.8998 18.7994 11.7806 18.75 11.6562 18.75ZM14.4688 25.7813C14.4688 25.8428 14.4567 25.9038 14.4331 25.9607C14.4096 26.0175 14.375 26.0692 14.3315 26.1128C14.288 26.1563 14.2363 26.1908 14.1794 26.2144C14.1225 26.2379 14.0616 26.25 14 26.25H3.21875C2.59737 26.2493 2.00165 26.0021 1.56227 25.5627C1.12289 25.1234 0.875729 24.5276 0.875 23.9063V3.28126C0.875729 2.65988 1.12289 2.06416 1.56227 1.62478C2.00165 1.1854 2.59737 0.938239 3.21875 0.937509H15.5669C15.8749 0.936643 16.1799 0.996865 16.4645 1.11469C16.749 1.23251 17.0073 1.4056 17.2245 1.62393L19.8759 4.27575C20.0942 4.49286 20.2673 4.7511 20.3851 5.03554C20.503 5.31998 20.5633 5.62497 20.5625 5.93286V12.6563C20.5625 12.7806 20.5131 12.8998 20.4252 12.9877C20.3373 13.0756 20.2181 13.125 20.0938 13.125C19.9694 13.125 19.8502 13.0756 19.7623 12.9877C19.6744 12.8998 19.625 12.7806 19.625 12.6563V5.93286C19.624 5.82916 19.6113 5.72589 19.5873 5.62501H17.2812C16.9084 5.6246 16.551 5.47631 16.2873 5.21268C16.0237 4.94904 15.8754 4.59159 15.875 4.21876V1.91154C15.774 1.88809 15.6706 1.87584 15.5669 1.87501H3.21875C2.84591 1.87542 2.48847 2.0237 2.22483 2.28734C1.9612 2.55097 1.81291 2.90842 1.8125 3.28126V23.9063C1.81291 24.2791 1.9612 24.6365 2.22483 24.9002C2.48847 25.1638 2.84591 25.3121 3.21875 25.3125H14C14.0616 25.3125 14.1225 25.3246 14.1794 25.3482C14.2363 25.3717 14.288 25.4062 14.3315 25.4498C14.375 25.4933 14.4096 25.545 14.4331 25.6019C14.4567 25.6587 14.4688 25.7197 14.4688 25.7813ZM16.8125 2.53768V4.21876C16.8126 4.34304 16.8621 4.4622 16.9499 4.55008C17.0378 4.63796 17.157 4.68739 17.2812 4.68751H18.962L16.8125 2.53768ZM27.125 16.4063V21.0938C27.125 26.892 20.7712 29.0188 20.7072 29.0396C20.6131 29.0701 20.5119 29.0701 20.4178 29.0396C20.3538 29.0188 14 26.892 14 21.0938V16.4063C14 16.3447 14.0121 16.2837 14.0356 16.2269C14.0592 16.17 14.0937 16.1183 14.1373 16.0748C14.1808 16.0312 14.2325 15.9967 14.2893 15.9732C14.3462 15.9496 14.4072 15.9375 14.4688 15.9375C16.5381 15.9041 18.5556 15.2849 20.2874 14.1518C20.3675 14.094 20.4637 14.0629 20.5625 14.0629C20.6613 14.0629 20.7575 14.094 20.8376 14.1518C22.5694 15.2849 24.5869 15.9041 26.6562 15.9375C26.7178 15.9375 26.7788 15.9496 26.8357 15.9732C26.8925 15.9967 26.9442 16.0312 26.9877 16.0748C27.0313 16.1183 27.0658 16.17 27.0894 16.2269C27.1129 16.2837 27.125 16.3447 27.125 16.4063ZM26.1875 16.8645C24.1936 16.7565 22.259 16.1479 20.5625 15.0948C18.866 16.1479 16.9314 16.7565 14.9375 16.8645V21.0938C14.9375 25.7446 19.6671 27.7565 20.5625 28.0955C21.4579 27.7565 26.1875 25.7446 26.1875 21.0938V16.8645ZM17.6127 21.2311C17.5245 21.1445 17.4057 21.0963 17.2821 21.0968C17.1586 21.0974 17.0402 21.1467 16.9528 21.2341C16.8655 21.3215 16.8161 21.4398 16.8156 21.5634C16.815 21.687 16.8633 21.8057 16.9498 21.8939L19.2936 24.2377C19.3371 24.2812 19.3888 24.3157 19.4456 24.3393C19.5025 24.3629 19.5635 24.375 19.625 24.375C19.6866 24.375 19.7475 24.3629 19.8044 24.3393C19.8613 24.3157 19.9129 24.2812 19.9564 24.2377L24.1752 20.0189C24.2622 19.9308 24.3108 19.8119 24.3104 19.6881C24.31 19.5643 24.2606 19.4457 24.1731 19.3582C24.0856 19.2706 23.9669 19.2213 23.8431 19.2209C23.7193 19.2205 23.6004 19.2691 23.5123 19.3561L19.625 23.2434L17.6127 21.2311Z" fill="white"/>
</g>
</svg>
