<svg width="20" height="16" viewBox="0 0 20 16" fill="none" xmlns="http://www.w3.org/2000/svg">
<path d="M1 8H13M1 2H13M1 14H13M17 8C17 8.5523 17.4477 9 18 9C18.5523 9 19 8.5523 19 8C19 7.4477 18.5523 7 18 7C17.4477 7 17 7.4477 17 8ZM17 2C17 2.55228 17.4477 3 18 3C18.5523 3 19 2.55228 19 2C19 1.44772 18.5523 1 18 1C17.4477 1 17 1.44772 17 2ZM17 14C17 14.5523 17.4477 15 18 15C18.5523 15 19 14.5523 19 14C19 13.4477 18.5523 13 18 13C17.4477 13 17 13.4477 17 14Z" stroke="#333" stroke-linecap="round" stroke-linejoin="round"/>
</svg>
