<svg width="42" height="42" viewBox="0 0 42 42" fill="none" xmlns="http://www.w3.org/2000/svg">
<g id="vuesax/linear/like">
<g id="like">
<path id="Vector" d="M13.09 32.1124L18.515 36.3124C19.215 37.0124 20.79 37.3624 21.84 37.3624H28.49C30.59 37.3624 32.865 35.7874 33.39 33.6874L37.59 20.9124C38.465 18.4624 36.89 16.3624 34.265 16.3624H27.265C26.215 16.3624 25.34 15.4874 25.515 14.2624L26.39 8.66244C26.74 7.08744 25.69 5.33744 24.115 4.81244C22.715 4.28744 20.965 4.98744 20.265 6.03744L13.09 16.7124" stroke="#333" stroke-width="2" stroke-miterlimit="10"/>
<path id="Vector_2" d="M4.165 32.1125V14.9625C4.165 12.5125 5.215 11.6375 7.665 11.6375H9.415C11.865 11.6375 12.915 12.5125 12.915 14.9625V32.1125C12.915 34.5625 11.865 35.4375 9.415 35.4375H7.665C5.215 35.4375 4.165 34.5625 4.165 32.1125Z" stroke="#333" stroke-width="2" stroke-linecap="round" stroke-linejoin="round"/>
</g>
</g>
</svg>
