<svg width="32" height="32" viewBox="0 0 32 32" fill="none" xmlns="http://www.w3.org/2000/svg">
<g id="notification">
<path id="Vector" d="M16.0261 3.87988C11.6128 3.87988 8.02611 7.46655 8.02611 11.8799V15.7332C8.02611 16.5465 7.67945 17.7865 7.26611 18.4799L5.73278 21.0265C4.78611 22.5999 5.43945 24.3465 7.17278 24.9332C12.9194 26.8532 19.1194 26.8532 24.8661 24.9332C26.4794 24.3999 27.1861 22.4932 26.3061 21.0265L24.7728 18.4799C24.3728 17.7865 24.0261 16.5465 24.0261 15.7332V11.8799C24.0261 7.47988 20.4261 3.87988 16.0261 3.87988Z" stroke="white" stroke-width="1.5" stroke-miterlimit="10" stroke-linecap="round"/>
<path id="Vector_2" d="M18.4932 4.26655C18.0799 4.14655 17.6532 4.05321 17.2132 3.99988C15.9332 3.83988 14.7065 3.93321 13.5599 4.26655C13.9465 3.27988 14.9065 2.58655 16.0265 2.58655C17.1465 2.58655 18.1065 3.27988 18.4932 4.26655Z" stroke="#333" stroke-width="1.5" stroke-miterlimit="10" stroke-linecap="round" stroke-linejoin="round"/>
<path id="Vector_3" d="M20.0261 25.4135C20.0261 27.6135 18.2261 29.4135 16.0261 29.4135C14.9327 29.4135 13.9194 28.9601 13.1994 28.2401C12.4794 27.5201 12.0261 26.5068 12.0261 25.4135" stroke="#333" stroke-width="1.5" stroke-miterlimit="10"/>
</g>
</svg>
