<svg width="42" height="42" viewBox="0 0 42 42" fill="none" xmlns="http://www.w3.org/2000/svg">
<g id="vuesax/linear/security-safe">
<g id="security-safe">
<path id="Vector" d="M36.5925 19.46C36.5925 28.0175 30.38 36.0325 21.8925 38.3775C21.315 38.535 20.685 38.535 20.1075 38.3775C11.62 36.0325 5.4075 28.0175 5.4075 19.46V11.7775C5.4075 10.3425 6.49253 8.715 7.84003 8.1725L17.5875 4.18256C19.775 3.29006 22.2425 3.29006 24.43 4.18256L34.1775 8.1725C35.5075 8.715 36.61 10.3425 36.61 11.7775L36.5925 19.46Z" stroke="#333" stroke-width="2" stroke-linecap="round" stroke-linejoin="round"/>
<g id="Group">
<path id="Vector_2" d="M21 21.875C22.933 21.875 24.5 20.308 24.5 18.375C24.5 16.442 22.933 14.875 21 14.875C19.067 14.875 17.5 16.442 17.5 18.375C17.5 20.308 19.067 21.875 21 21.875Z" stroke="#333" stroke-width="2" stroke-miterlimit="10" stroke-linecap="round" stroke-linejoin="round"/>
<path id="Vector_3" d="M21 21.875V27.125" stroke="#333" stroke-width="2" stroke-miterlimit="10" stroke-linecap="round" stroke-linejoin="round"/>
</g>
</g>
</g>
</svg>
