<svg width="18" height="18" viewBox="0 0 18 18" fill="none" xmlns="http://www.w3.org/2000/svg">
<g id="Group">
<g id="Group_2">
<g id="Group_3">
<path id="Vector" d="M17.7601 3.36739C17.5492 3.26449 17.2932 3.35234 17.1903 3.56568L16.7737 4.42407L16.4399 4.26342L16.8791 3.35984C16.8791 3.35734 16.8816 3.35484 16.8816 3.35229C16.8841 3.34729 16.8866 3.33974 16.8891 3.33474C16.9569 3.16659 17.0347 2.9683 17.0623 2.7449C17.1477 2.07977 16.8942 1.37699 16.3822 0.862449C15.8952 0.37301 15.1498 0.0969166 14.4419 0.139566C14.2939 0.149616 14.1358 0.177215 13.9726 0.224914C13.7141 0.300212 13.4606 0.430709 13.2221 0.613955C13.0514 0.744452 12.813 0.967847 12.6498 1.28159C12.6498 1.28409 12.6473 1.28659 12.6473 1.28914C12.6473 1.29169 12.6448 1.29414 12.6448 1.29414L11.0887 4.50436C11.0811 4.51691 11.0736 4.52946 11.0661 4.54451C11.0585 4.55706 11.0535 4.57211 11.0485 4.58716L7.01752 12.8951C6.95728 13.0206 6.92718 13.1612 6.93218 13.3017V13.3042L7.02252 15.9823C7.03257 16.2433 7.13047 16.4868 7.29362 16.6775L7.05517 17.1594C6.94978 17.3703 7.03762 17.6263 7.24842 17.7317C7.30867 17.7618 7.37392 17.7769 7.43666 17.7769C7.59481 17.7769 7.74541 17.6891 7.82071 17.5385L8.0516 17.0691C8.08675 17.0716 8.11935 17.0741 8.1545 17.0741C8.39044 17.0741 8.62384 17.0013 8.81963 16.8558L10.9832 15.2695C11.0284 15.2369 11.071 15.1967 11.1087 15.1566C11.1162 15.149 11.1212 15.1415 11.1288 15.134C11.1765 15.0788 11.2166 15.016 11.2493 14.9507L16.0659 5.0289L16.3997 5.18955L14.2537 9.60954C14.1508 9.82039 14.2387 10.0764 14.452 10.1793C14.5122 10.2094 14.575 10.2219 14.6377 10.2219C14.7959 10.2219 14.949 10.1341 15.0218 9.98099L17.3259 5.2347C17.3385 5.21715 17.351 5.19705 17.3611 5.17695C17.3711 5.15685 17.3761 5.1393 17.3837 5.1192L17.9585 3.93453C18.0613 3.72628 17.9709 3.47029 17.7601 3.36739ZM8.31269 16.1706C8.23489 16.2258 8.137 16.2383 8.04915 16.2057C8.0366 16.1982 8.02405 16.1907 8.009 16.1831C8.00145 16.1806 7.99645 16.1781 7.9889 16.1756C7.9161 16.1254 7.87095 16.0451 7.8684 15.9572L7.80816 14.2128C8.37289 14.6521 9.02298 14.9683 9.71571 15.144L8.31269 16.1706ZM10.5565 14.4212C9.52997 14.3208 8.57119 13.8539 7.85835 13.106L11.6434 5.30504L14.3466 6.61271L10.5565 14.4212ZM16.214 2.63701C16.1989 2.75495 16.1512 2.88045 16.1035 2.99845L14.723 5.84223L12.0173 4.53456L13.4028 1.67823C13.4781 1.54018 13.596 1.40213 13.7416 1.29169C13.8922 1.17624 14.0529 1.09089 14.206 1.04569C14.3089 1.01559 14.4068 0.997995 14.4896 0.992995C14.9539 0.965395 15.4584 1.15114 15.7747 1.46738C16.096 1.78863 16.2642 2.23792 16.214 2.63701Z" fill="#0D01A0
"/>
<path id="Vector_2" d="M5.71644 17.0113C5.60849 17.0088 5.48299 17.0113 5.3525 17.0113C4.66981 17.0188 3.39724 17.0314 2.99065 16.577C2.92035 16.4992 2.83001 16.3587 2.86265 16.0675C2.95805 15.2468 3.41984 14.3833 3.82648 13.6228L3.89423 13.4948C4.02728 13.2463 4.16532 12.9953 4.30082 12.7494C4.68986 12.0466 5.09145 11.3187 5.41019 10.5532C5.64614 9.98845 5.77664 9.45636 5.79924 8.97692C5.82933 8.33439 5.66874 7.77465 5.32235 7.31281C4.90821 6.75812 4.30332 6.35148 3.47504 6.06539C2.78731 5.82694 2.02932 5.70395 1.36169 5.5935C1.0605 5.5433 0.774354 5.4981 0.51081 5.4429C0.279915 5.39521 0.0540208 5.5458 0.00882229 5.77675C-0.0388764 6.00764 0.11172 6.23354 0.342664 6.27873C0.623758 6.33648 0.91745 6.38413 1.22614 6.43433C2.49366 6.64268 3.93188 6.87607 4.63966 7.82235C5.0588 8.38208 5.0538 9.19027 4.62211 10.2243C4.32092 10.9472 3.93188 11.6525 3.55289 12.3352C3.41734 12.5812 3.27679 12.8372 3.14125 13.0907L3.0735 13.2162C2.62926 14.0445 2.12727 14.9832 2.01432 15.9646C1.95912 16.4339 2.07457 16.8305 2.35567 17.1442C2.9455 17.7993 4.11262 17.8646 5.0187 17.8646C5.13665 17.8646 5.25215 17.8646 5.36004 17.8621C5.48804 17.8621 5.60604 17.8596 5.70644 17.8621C5.70894 17.8621 5.70894 17.8621 5.71144 17.8621C5.94488 17.8621 6.13563 17.6738 6.13813 17.4404C6.14063 17.2096 5.95233 17.0138 5.71644 17.0113Z" fill="#0D01A0
"/>
</g>
</g>
</g>
</svg>
