<svg width="42" height="42" viewBox="0 0 42 42" fill="none" xmlns="http://www.w3.org/2000/svg">
<g id="vuesax/linear/24-support">
<g id="24-support">
<path id="Vector" d="M31.5 33.005H30.17C28.77 33.005 27.44 33.5475 26.46 34.5275L23.4675 37.4851C22.1025 38.8326 19.88 38.8326 18.515 37.4851L15.5225 34.5275C14.5425 33.5475 13.195 33.005 11.8125 33.005H10.5C7.595 33.005 5.25 30.6776 5.25 27.8076V8.71503C5.25 5.84503 7.595 3.51758 10.5 3.51758H31.5C34.405 3.51758 36.75 5.84503 36.75 8.71503V27.8076C36.75 30.6601 34.405 33.005 31.5 33.005Z" stroke="#333" stroke-width="2" stroke-miterlimit="10" stroke-linecap="round" stroke-linejoin="round"/>
<g id="Group">
<path id="Vector_2" d="M12.25 16.0301C12.25 14.4026 13.58 13.0725 15.2075 13.0725C16.835 13.0725 18.165 14.4026 18.165 16.0301C18.165 19.3201 13.4925 19.6701 12.46 22.8026C12.25 23.4501 12.7925 24.0976 13.475 24.0976H18.165" stroke="#333" stroke-width="2" stroke-linecap="round" stroke-linejoin="round"/>
<path id="Vector_3" d="M28.07 24.08V14.0876C28.07 13.6326 27.7725 13.23 27.335 13.1075C26.8975 12.985 26.425 13.16 26.18 13.545C24.92 15.575 23.555 17.885 22.365 19.915C22.1725 20.2475 22.1725 20.685 22.365 21.0175C22.5575 21.35 22.925 21.5599 23.3275 21.5599H29.75" stroke="#333" stroke-width="2" stroke-linecap="round" stroke-linejoin="round"/>
</g>
</g>
</g>
</svg>
