<svg width="132" height="132" viewBox="0 0 132 132" fill="none" xmlns="http://www.w3.org/2000/svg">
<g id="vuesax/linear/user-search">
<g id="user-search">
<path id="Vector" d="M66 66C81.1878 66 93.5 53.6878 93.5 38.5C93.5 23.3122 81.1878 11 66 11C50.8122 11 38.5 23.3122 38.5 38.5C38.5 53.6878 50.8122 66 66 66Z" stroke="#333" stroke-width="2.5" stroke-linecap="round" stroke-linejoin="round"/>
<path id="Vector_2" d="M18.7549 121C18.7549 99.715 39.93 82.5 66 82.5" stroke="#333" stroke-width="2.5" stroke-linecap="round" stroke-linejoin="round"/>
<g id="Group">
<path id="Vector_3" d="M100.1 117.7C109.82 117.7 117.7 109.82 117.7 100.1C117.7 90.3799 109.82 82.5 100.1 82.5C90.3799 82.5 82.5 90.3799 82.5 100.1C82.5 109.82 90.3799 117.7 100.1 117.7Z" stroke="#333" stroke-width="2.5" stroke-linecap="round" stroke-linejoin="round"/>
<path id="Vector_4" d="M121 121L115.5 115.5" stroke="#333" stroke-width="2.5" stroke-linecap="round" stroke-linejoin="round"/>
</g>
</g>
</g>
</svg>
