<svg width="30" height="30" viewBox="0 0 30 30" fill="none" xmlns="http://www.w3.org/2000/svg">
<g id="vuesax/linear/verify">
<g id="verify">
<path id="Vector" d="M10.475 15.0001L13.4875 18.0251L19.525 11.9751" stroke="#FAFAFA" stroke-width="1.5" stroke-linecap="round" stroke-linejoin="round"/>
<path id="Vector_2" d="M13.4375 3.0624C14.3 2.3249 15.7125 2.3249 16.5875 3.0624L18.5625 4.7624C18.9375 5.0874 19.6375 5.3499 20.1375 5.3499H22.2625C23.5875 5.3499 24.675 6.4374 24.675 7.7624V9.8874C24.675 10.3749 24.9375 11.0874 25.2625 11.4624L26.9625 13.4374C27.7 14.2999 27.7 15.7124 26.9625 16.5874L25.2625 18.5624C24.9375 18.9374 24.675 19.6374 24.675 20.1374V22.2624C24.675 23.5874 23.5875 24.6749 22.2625 24.6749H20.1375C19.65 24.6749 18.9375 24.9374 18.5625 25.2624L16.5875 26.9624C15.725 27.6999 14.3125 27.6999 13.4375 26.9624L11.4625 25.2624C11.0875 24.9374 10.3875 24.6749 9.88748 24.6749H7.72498C6.39998 24.6749 5.31248 23.5874 5.31248 22.2624V20.1249C5.31248 19.6374 5.04998 18.9374 4.73748 18.5624L3.04998 16.5749C2.32498 15.7124 2.32498 14.3124 3.04998 13.4499L4.73748 11.4624C5.04998 11.0874 5.31248 10.3874 5.31248 9.8999V7.7499C5.31248 6.4249 6.39998 5.3374 7.72498 5.3374H9.88748C10.375 5.3374 11.0875 5.0749 11.4625 4.7499L13.4375 3.0624Z" stroke="#FAFAFA" stroke-width="1.5" stroke-linecap="round" stroke-linejoin="round"/>
</g>
</g>
</svg>
