<svg width="18" height="18" viewBox="0 0 18 18" fill="none" xmlns="http://www.w3.org/2000/svg">
<g clip-path="url(#clip0_149_9058)">
<path d="M7.35972 8.36597L1.48655 14.1886C0.837817 14.8317 0.837817 15.8745 1.48655 16.5176C2.13528 17.1608 3.18708 17.1608 3.83581 16.5176L9.70897 10.6951" stroke="#0D01A0
" stroke-linecap="round" stroke-linejoin="round"/>
<path d="M13.2925 10.9951L16.5138 14.1886C17.1626 14.8317 17.1626 15.8745 16.5138 16.5176C15.8651 17.1608 14.8133 17.1608 14.1646 16.5176L9.00781 11.4054" stroke="#0D01A0
" stroke-linecap="round" stroke-linejoin="round"/>
<path d="M4.60398 4.49355L2.84203 5.07581L1.08008 2.16452L2.25471 1L5.1913 2.74677L4.60398 4.49355ZM4.60398 4.49355L6.95474 6.82406" stroke="#0D01A0
" stroke-linecap="round" stroke-linejoin="round"/>
<path d="M7.35945 8.36609C6.6586 6.59322 6.79562 4.26703 8.24046 2.83465C9.68528 1.40226 12.3516 1.08788 13.82 1.96126L11.2944 4.46506L11.0597 7.02681L13.6436 6.7941L16.1692 4.29029C17.0502 5.74594 16.7331 8.38939 15.2883 9.82176C13.8434 11.2541 11.497 11.39 9.70878 10.6951" stroke="#0D01A0
" stroke-linecap="round" stroke-linejoin="round"/>
</g>
<defs>
<clipPath id="clip0_149_9058">
<rect width="18" height="18" fill="white"/>
</clipPath>
</defs>
</svg>
