<svg width="30" height="30" viewBox="0 0 30 30" fill="none" xmlns="http://www.w3.org/2000/svg">
<path d="M3.125 15H7.35246C8.20896 15 8.99196 15.4839 9.375 16.25C9.75804 17.0161 10.541 17.5 11.3975 17.5H18.6025C19.459 17.5 20.242 17.0161 20.625 16.25C21.008 15.4839 21.791 15 22.6475 15H26.875M11.2082 5H18.7917C20.1379 5 20.8109 5 21.4051 5.20495C21.9306 5.3862 22.4093 5.682 22.8064 6.07094C23.2554 6.51075 23.5564 7.11275 24.1584 8.31671L26.8665 13.7331C27.1028 14.2056 27.2209 14.4419 27.3042 14.6894C27.3782 14.9094 27.4316 15.1356 27.4638 15.3654C27.5 15.624 27.5 15.8881 27.5 16.4164V19C27.5 21.1003 27.5 22.1502 27.0913 22.9525C26.7318 23.6581 26.1581 24.2318 25.4525 24.5913C24.6502 25 23.6003 25 21.5 25H8.5C6.3998 25 5.3497 25 4.54754 24.5913C3.84193 24.2318 3.26825 23.6581 2.90873 22.9525C2.5 22.1502 2.5 21.1003 2.5 19V16.4164C2.5 15.8881 2.5 15.624 2.53621 15.3654C2.56839 15.1356 2.6218 14.9094 2.69578 14.6894C2.77908 14.4419 2.8972 14.2056 3.13344 13.7331L5.84164 8.31671C6.44362 7.11274 6.74462 6.51075 7.19369 6.07094C7.59079 5.682 8.06939 5.3862 8.59486 5.20495C9.18906 5 9.86211 5 11.2082 5Z" stroke="#333" stroke-linecap="round" stroke-linejoin="round"/>
</svg>
