<svg width="102" height="132" viewBox="0 0 102 132" fill="none" xmlns="http://www.w3.org/2000/svg">
<path d="M6.73781 109.328V107.872L12.0338 105.824L12.3538 107.136L8.03381 108.784L10.6738 111.44C11.1858 111.952 11.6231 112.389 11.9858 112.752C12.3591 113.104 12.6791 113.397 12.9458 113.632C13.2125 113.867 13.4418 114.048 13.6338 114.176C13.8365 114.304 14.0178 114.4 14.1778 114.464C14.3378 114.528 14.4978 114.565 14.6578 114.576C14.8178 114.587 14.9938 114.592 15.1858 114.592C15.3245 114.592 15.4151 114.651 15.4578 114.768C15.5111 114.875 15.5378 115.045 15.5378 115.28C15.5378 115.525 15.5111 115.707 15.4578 115.824C15.4151 115.941 15.3245 116 15.1858 116C14.8765 116 14.5938 115.979 14.3378 115.936C14.0925 115.893 13.8471 115.808 13.6018 115.68C13.3565 115.552 13.0898 115.371 12.8018 115.136C12.5138 114.901 12.1725 114.592 11.7778 114.208C11.7778 114.528 11.7191 114.8 11.6018 115.024C11.4951 115.248 11.3458 115.435 11.1538 115.584C10.9618 115.723 10.7325 115.829 10.4658 115.904C10.2098 115.968 9.93781 116 9.64981 116H3.58581C3.14848 116 2.76981 115.936 2.44981 115.808C2.14048 115.669 1.88448 115.488 1.68181 115.264C1.48981 115.04 1.34581 114.779 1.24981 114.48C1.16448 114.181 1.12181 113.867 1.12181 113.536V111.328H2.43381V113.216C2.43381 113.643 2.53515 113.979 2.73781 114.224C2.94048 114.469 3.32448 114.592 3.88981 114.592H9.50581C9.90048 114.592 10.1725 114.512 10.3218 114.352C10.4711 114.192 10.5458 113.995 10.5458 113.76C10.5458 113.589 10.5138 113.413 10.4498 113.232C10.3858 113.04 10.2311 112.821 9.98581 112.576L6.73781 109.328ZM16.3477 114.592C17.1797 114.592 17.5957 114.203 17.5957 113.424V111.376H18.9077V113.424C18.9077 113.637 18.9397 113.819 19.0037 113.968C19.0784 114.117 19.1744 114.24 19.2917 114.336C19.409 114.421 19.5424 114.485 19.6917 114.528C19.8517 114.571 20.0117 114.592 20.1717 114.592H20.6197C20.865 114.592 20.9877 114.821 20.9877 115.28C20.9877 115.76 20.865 116 20.6197 116H20.1237C19.7397 116 19.377 115.931 19.0357 115.792C18.705 115.653 18.4277 115.381 18.2037 114.976C17.9584 115.381 17.6757 115.653 17.3557 115.792C17.0464 115.931 16.7104 116 16.3477 116H15.1797C15.041 116 14.9504 115.947 14.9077 115.84C14.8544 115.723 14.8277 115.552 14.8277 115.328C14.8277 115.072 14.8544 114.885 14.9077 114.768C14.9504 114.651 15.041 114.592 15.1797 114.592H16.3477ZM19.6597 119.168H18.2517V117.824H19.6597V119.168ZM17.4837 119.168H16.0597V117.824H17.4837V119.168ZM22.0732 114.592C22.4572 114.592 22.7559 114.491 22.9692 114.288C23.1932 114.085 23.3052 113.797 23.3052 113.424V111.376H24.6172V113.488C24.6172 114.299 24.3985 114.923 23.9612 115.36C23.5345 115.787 22.9372 116 22.1692 116H20.6172C20.4785 116 20.3879 115.947 20.3452 115.84C20.2919 115.723 20.2652 115.552 20.2652 115.328C20.2652 115.072 20.2919 114.885 20.3452 114.768C20.3879 114.651 20.4785 114.592 20.6172 114.592H22.0732ZM24.1692 109.408H22.6012V108.032H24.1692V109.408ZM27.8122 118.48C28.2495 118.48 28.6335 118.411 28.9642 118.272C29.2949 118.144 29.5669 117.968 29.7802 117.744C30.0042 117.52 30.1749 117.259 30.2922 116.96C30.4095 116.661 30.4789 116.341 30.5002 116H29.1402C28.5962 116 28.1482 115.941 27.7962 115.824C27.4442 115.707 27.1669 115.536 26.9642 115.312C26.7615 115.088 26.6175 114.816 26.5322 114.496C26.4575 114.165 26.4202 113.797 26.4202 113.392C26.4202 112.987 26.4789 112.603 26.5962 112.24C26.7135 111.867 26.8842 111.541 27.1082 111.264C27.3322 110.987 27.6095 110.768 27.9402 110.608C28.2815 110.437 28.6762 110.352 29.1242 110.352C29.4762 110.352 29.8122 110.411 30.1322 110.528C30.4629 110.645 30.7509 110.832 30.9962 111.088C31.2415 111.333 31.4335 111.659 31.5722 112.064C31.7215 112.469 31.7962 112.96 31.7962 113.536V115.744C31.7962 116.288 31.7055 116.811 31.5242 117.312C31.3535 117.813 31.0975 118.251 30.7562 118.624C30.4255 119.008 30.0202 119.312 29.5402 119.536C29.0602 119.76 28.5162 119.872 27.9082 119.872H26.2442L26.1482 118.48H27.8122ZM27.6682 113.312C27.6682 113.771 27.7749 114.101 27.9882 114.304C28.2122 114.496 28.6389 114.592 29.2682 114.592H30.5322V113.6C30.5322 112.928 30.3989 112.448 30.1322 112.16C29.8762 111.861 29.5135 111.712 29.0442 111.712C28.6069 111.712 28.2655 111.856 28.0202 112.144C27.7855 112.421 27.6682 112.811 27.6682 113.312ZM36.3089 113.472C36.3089 113.824 36.4209 114.101 36.6449 114.304C36.8796 114.496 37.1783 114.592 37.5409 114.592H37.7169C37.9516 114.592 38.0689 114.821 38.0689 115.28C38.0689 115.76 37.9516 116 37.7169 116H37.5409C37.3063 116 37.0716 115.957 36.8369 115.872C36.6023 115.787 36.4049 115.632 36.2449 115.408V115.744C36.2449 116.341 36.1489 116.891 35.9569 117.392C35.7649 117.904 35.4983 118.341 35.1569 118.704C34.8263 119.077 34.4316 119.365 33.9729 119.568C33.5143 119.771 33.0129 119.872 32.4689 119.872H32.0529L31.9409 118.48H32.2289C32.7196 118.48 33.1356 118.4 33.4769 118.24C33.8289 118.091 34.1169 117.888 34.3409 117.632C34.5649 117.376 34.7303 117.083 34.8369 116.752C34.9436 116.432 34.9969 116.096 34.9969 115.744V111.376H36.3089V113.472ZM38.8789 114.592C39.7109 114.592 40.1269 114.203 40.1269 113.424V111.376H41.4389V113.424C41.4389 113.637 41.4709 113.819 41.5349 113.968C41.6096 114.117 41.7056 114.24 41.8229 114.336C41.9403 114.421 42.0736 114.485 42.2229 114.528C42.3829 114.571 42.5429 114.592 42.7029 114.592H43.1509C43.3963 114.592 43.5189 114.821 43.5189 115.28C43.5189 115.76 43.3963 116 43.1509 116H42.6549C42.2709 116 41.9083 115.931 41.5669 115.792C41.2363 115.653 40.9589 115.381 40.7349 114.976C40.4896 115.381 40.2069 115.653 39.8869 115.792C39.5776 115.931 39.2416 116 38.8789 116H37.7109C37.5723 116 37.4816 115.947 37.4389 115.84C37.3856 115.723 37.3589 115.552 37.3589 115.328C37.3589 115.072 37.3856 114.885 37.4389 114.768C37.4816 114.651 37.5723 114.592 37.7109 114.592H38.8789ZM42.3829 109.408H40.9269V108.064H42.3829V109.408ZM40.2389 109.408H38.7829V108.064H40.2389V109.408ZM47.2444 114.592C47.6391 114.592 47.9111 114.512 48.0604 114.352C48.2098 114.192 48.2844 113.995 48.2844 113.76C48.2844 113.589 48.2524 113.413 48.1884 113.232C48.1351 113.04 47.9858 112.821 47.7404 112.576L44.4764 109.328V107.872L49.7884 105.824L50.0924 107.136L45.7724 108.784L48.4124 111.44C48.9244 111.952 49.3618 112.389 49.7244 112.752C50.0978 113.104 50.4178 113.397 50.6844 113.632C50.9511 113.867 51.1804 114.048 51.3724 114.176C51.5751 114.304 51.7564 114.4 51.9164 114.464C52.0764 114.528 52.2364 114.565 52.3964 114.576C52.5564 114.587 52.7324 114.592 52.9244 114.592C53.0631 114.592 53.1538 114.651 53.1964 114.768C53.2498 114.875 53.2764 115.045 53.2764 115.28C53.2764 115.525 53.2498 115.707 53.1964 115.824C53.1538 115.941 53.0631 116 52.9244 116C52.6151 116 52.3324 115.979 52.0764 115.936C51.8311 115.893 51.5858 115.808 51.3404 115.68C51.0951 115.552 50.8284 115.371 50.5404 115.136C50.2524 114.901 49.9164 114.592 49.5324 114.208C49.5324 114.528 49.4738 114.8 49.3564 115.024C49.2391 115.248 49.0844 115.435 48.8924 115.584C48.7004 115.723 48.4764 115.829 48.2204 115.904C47.9644 115.968 47.6871 116 47.3884 116H43.1484C43.0098 116 42.9191 115.947 42.8764 115.84C42.8231 115.723 42.7964 115.552 42.7964 115.328C42.7964 115.072 42.8231 114.885 42.8764 114.768C42.9191 114.651 43.0098 114.592 43.1484 114.592H47.2444ZM53.3297 114.592C53.7137 114.592 54.0124 114.491 54.2257 114.288C54.4497 114.085 54.5617 113.797 54.5617 113.424V106.08H55.8737V113.488C55.8737 114.299 55.655 114.923 55.2177 115.36C54.791 115.787 54.1937 116 53.4257 116H52.9297C52.791 116 52.7004 115.947 52.6577 115.84C52.6044 115.723 52.5777 115.552 52.5777 115.328C52.5777 115.072 52.6044 114.885 52.6577 114.768C52.7004 114.651 52.791 114.592 52.9297 114.592H53.3297ZM58.0017 106.08H59.3137V116H58.0017V106.08ZM69.3982 112.096C69.6755 112.416 69.8782 112.736 70.0062 113.056C70.1342 113.365 70.1982 113.669 70.1982 113.968C70.1982 114.256 70.1449 114.523 70.0382 114.768C69.9315 115.013 69.7769 115.227 69.5742 115.408C69.3822 115.589 69.1369 115.733 68.8382 115.84C68.5395 115.947 68.1982 116 67.8142 116H63.4302L63.3502 114.592H67.6222C67.9635 114.592 68.2249 114.517 68.4062 114.368C68.5875 114.208 68.6782 114.005 68.6782 113.76C68.6782 113.483 68.5555 113.211 68.3102 112.944L65.4622 109.696L66.4862 108.736L69.3982 112.096ZM72.0486 106.08H73.3606V116H72.0486V106.08ZM81.0857 112.096C81.363 112.416 81.5657 112.736 81.6937 113.056C81.8217 113.365 81.8857 113.669 81.8857 113.968C81.8857 114.256 81.8324 114.523 81.7257 114.768C81.619 115.013 81.4644 115.227 81.2617 115.408C81.0697 115.589 80.8244 115.733 80.5257 115.84C80.227 115.947 79.8857 116 79.5017 116H75.1177L75.0377 114.592H79.3097C79.651 114.592 79.9124 114.517 80.0937 114.368C80.275 114.208 80.3657 114.005 80.3657 113.76C80.3657 113.483 80.243 113.211 79.9977 112.944L77.1497 109.696L78.1737 108.736L81.0857 112.096ZM85.5121 115.744C85.5121 116.341 85.4107 116.891 85.2081 117.392C85.0161 117.904 84.7494 118.341 84.4081 118.704C84.0667 119.077 83.6614 119.365 83.1921 119.568C82.7227 119.771 82.2161 119.872 81.6721 119.872H80.6961L80.6161 118.48H81.3521C81.8641 118.48 82.3014 118.4 82.6641 118.24C83.0161 118.091 83.3041 117.888 83.5281 117.632C83.7627 117.376 83.9334 117.083 84.0401 116.752C84.1467 116.432 84.2001 116.096 84.2001 115.744V111.376H85.5121V115.744ZM87.4704 106.08H88.7824V116H87.4704V106.08ZM92.6516 115.744C92.6516 116.341 92.5556 116.891 92.3636 117.392C92.1716 117.904 91.9049 118.341 91.5636 118.704C91.2329 119.077 90.8329 119.365 90.3636 119.568C89.9049 119.771 89.4036 119.872 88.8596 119.872H87.8836L87.8036 118.48H88.5396C89.0516 118.48 89.4889 118.4 89.8516 118.24C90.2036 118.091 90.4916 117.888 90.7156 117.632C90.9502 117.376 91.1209 117.083 91.2276 116.752C91.3342 116.432 91.3876 116.096 91.3876 115.744V111.376H92.6996V113.472C92.6996 113.824 92.8116 114.101 93.0356 114.304C93.2702 114.496 93.5742 114.592 93.9476 114.592H94.1236C94.3582 114.592 94.4756 114.821 94.4756 115.28C94.4756 115.76 94.3582 116 94.1236 116H93.9476C93.7129 116 93.4782 115.957 93.2436 115.872C93.0089 115.787 92.8116 115.632 92.6516 115.408V115.744ZM96.2292 114.592C96.5385 114.592 96.7892 114.597 96.9812 114.608C97.1732 114.608 97.3919 114.624 97.6372 114.656C97.1359 114.475 96.7412 114.293 96.4532 114.112C96.1652 113.92 95.9465 113.723 95.7972 113.52C95.6585 113.307 95.5679 113.077 95.5252 112.832C95.4825 112.587 95.4612 112.309 95.4612 112C95.4612 111.712 95.5145 111.413 95.6212 111.104C95.7385 110.795 95.9092 110.517 96.1332 110.272C96.3572 110.016 96.6345 109.808 96.9652 109.648C97.3065 109.488 97.6959 109.408 98.1332 109.408C98.5492 109.408 98.9225 109.461 99.2532 109.568C99.5945 109.675 99.8825 109.856 100.117 110.112C100.363 110.357 100.549 110.683 100.677 111.088C100.816 111.483 100.885 111.968 100.885 112.544V113.312C100.885 114.144 100.635 114.8 100.133 115.28C99.6425 115.76 98.8639 116 97.7972 116H94.1172C93.9785 116 93.8879 115.947 93.8452 115.84C93.7919 115.723 93.7652 115.552 93.7652 115.328C93.7652 115.072 93.7919 114.885 93.8452 114.768C93.8879 114.651 93.9785 114.592 94.1172 114.592H96.2292ZM98.0692 110.832C97.8452 110.832 97.6479 110.875 97.4772 110.96C97.3065 111.035 97.1572 111.136 97.0292 111.264C96.9119 111.392 96.8212 111.541 96.7572 111.712C96.7039 111.872 96.6772 112.037 96.6772 112.208C96.6772 112.389 96.6932 112.56 96.7252 112.72C96.7679 112.869 96.8692 113.024 97.0292 113.184C97.1999 113.344 97.4559 113.515 97.7972 113.696C98.1385 113.867 98.6079 114.064 99.2052 114.288C99.3332 114.171 99.4292 114.011 99.4932 113.808C99.5679 113.605 99.6052 113.387 99.6052 113.152V112.672C99.6052 112.107 99.4879 111.659 99.2532 111.328C99.0292 110.997 98.6345 110.832 98.0692 110.832ZM99.8772 107.904H98.4212V106.56H99.8772V107.904ZM97.7332 107.904H96.2772V106.56H97.7332V107.904Z" fill="white"/>
<path d="M79 43.75V23.8C79 17.9194 79 14.9792 77.8555 12.7331C76.8489 10.7574 75.2427 9.1511 73.267 8.14443C71.0207 7 68.0807 7 62.2 7H39.8C33.9194 7 30.9792 7 28.7331 8.14443C26.7574 9.1511 25.1511 10.7574 24.1444 12.7331C23 14.9792 23 17.9194 23 23.8V60.2C23 66.0807 23 69.0207 24.1444 71.267C25.1511 73.2427 26.7574 74.8489 28.7331 75.8555C30.9792 77 33.9194 77 39.8 77H51M58 38.5H37M44 52.5H37M65 24.5H37M59.75 66.5L66.75 73.5L82.5 57.75" stroke="white" stroke-width="2.12" stroke-linecap="round" stroke-linejoin="round"/>
</svg>
