<svg width="106" height="132" viewBox="0 0 106 132" fill="none" xmlns="http://www.w3.org/2000/svg">
<path d="M6.95656 109.328V107.872L12.2526 105.824L12.5726 107.136L8.25256 108.784L10.8926 111.44C11.4046 111.952 11.8419 112.389 12.2046 112.752C12.5779 113.104 12.8979 113.397 13.1646 113.632C13.4312 113.867 13.6606 114.048 13.8526 114.176C14.0552 114.304 14.2366 114.4 14.3966 114.464C14.5566 114.528 14.7166 114.565 14.8766 114.576C15.0366 114.587 15.2126 114.592 15.4046 114.592C15.5432 114.592 15.6339 114.651 15.6766 114.768C15.7299 114.875 15.7566 115.045 15.7566 115.28C15.7566 115.525 15.7299 115.707 15.6766 115.824C15.6339 115.941 15.5432 116 15.4046 116C15.0952 116 14.8126 115.979 14.5566 115.936C14.3112 115.893 14.0659 115.808 13.8206 115.68C13.5752 115.552 13.3086 115.371 13.0206 115.136C12.7326 114.901 12.3912 114.592 11.9966 114.208C11.9966 114.528 11.9379 114.8 11.8206 115.024C11.7139 115.248 11.5646 115.435 11.3726 115.584C11.1806 115.723 10.9512 115.829 10.6846 115.904C10.4286 115.968 10.1566 116 9.86856 116H3.80456C3.36723 116 2.98856 115.936 2.66856 115.808C2.35923 115.669 2.10323 115.488 1.90056 115.264C1.70856 115.04 1.56456 114.779 1.46856 114.48C1.38323 114.181 1.34056 113.867 1.34056 113.536V111.328H2.65256V113.216C2.65256 113.643 2.7539 113.979 2.95656 114.224C3.15923 114.469 3.54323 114.592 4.10856 114.592H9.72456C10.1192 114.592 10.3912 114.512 10.5406 114.352C10.6899 114.192 10.7646 113.995 10.7646 113.76C10.7646 113.589 10.7326 113.413 10.6686 113.232C10.6046 113.04 10.4499 112.821 10.2046 112.576L6.95656 109.328ZM16.5664 114.592C17.3984 114.592 17.8144 114.203 17.8144 113.424V111.376H19.1264V113.424C19.1264 113.637 19.1584 113.819 19.2224 113.968C19.2971 114.117 19.3931 114.24 19.5104 114.336C19.6278 114.421 19.7611 114.485 19.9104 114.528C20.0704 114.571 20.2304 114.592 20.3904 114.592H20.8384C21.0838 114.592 21.2064 114.821 21.2064 115.28C21.2064 115.76 21.0838 116 20.8384 116H20.3424C19.9584 116 19.5958 115.931 19.2544 115.792C18.9238 115.653 18.6464 115.381 18.4224 114.976C18.1771 115.381 17.8944 115.653 17.5744 115.792C17.2651 115.931 16.9291 116 16.5664 116H15.3984C15.2598 116 15.1691 115.947 15.1264 115.84C15.0731 115.723 15.0464 115.552 15.0464 115.328C15.0464 115.072 15.0731 114.885 15.1264 114.768C15.1691 114.651 15.2598 114.592 15.3984 114.592H16.5664ZM19.8784 119.168H18.4704V117.824H19.8784V119.168ZM17.7024 119.168H16.2784V117.824H17.7024V119.168ZM22.2919 114.592C22.6759 114.592 22.9746 114.491 23.1879 114.288C23.4119 114.085 23.5239 113.797 23.5239 113.424V111.376H24.8359V113.488C24.8359 114.299 24.6173 114.923 24.1799 115.36C23.7533 115.787 23.1559 116 22.3879 116H20.8359C20.6973 116 20.6066 115.947 20.5639 115.84C20.5106 115.723 20.4839 115.552 20.4839 115.328C20.4839 115.072 20.5106 114.885 20.5639 114.768C20.6066 114.651 20.6973 114.592 20.8359 114.592H22.2919ZM24.3879 109.408H22.8199V108.032H24.3879V109.408ZM28.0309 118.48C28.4683 118.48 28.8523 118.411 29.1829 118.272C29.5136 118.144 29.7856 117.968 29.9989 117.744C30.2229 117.52 30.3936 117.259 30.5109 116.96C30.6283 116.661 30.6976 116.341 30.7189 116H29.3589C28.8149 116 28.3669 115.941 28.0149 115.824C27.6629 115.707 27.3856 115.536 27.1829 115.312C26.9803 115.088 26.8363 114.816 26.7509 114.496C26.6763 114.165 26.6389 113.797 26.6389 113.392C26.6389 112.987 26.6976 112.603 26.8149 112.24C26.9323 111.867 27.1029 111.541 27.3269 111.264C27.5509 110.987 27.8283 110.768 28.1589 110.608C28.5003 110.437 28.8949 110.352 29.3429 110.352C29.6949 110.352 30.0309 110.411 30.3509 110.528C30.6816 110.645 30.9696 110.832 31.2149 111.088C31.4603 111.333 31.6523 111.659 31.7909 112.064C31.9403 112.469 32.0149 112.96 32.0149 113.536V115.744C32.0149 116.288 31.9243 116.811 31.7429 117.312C31.5723 117.813 31.3163 118.251 30.9749 118.624C30.6443 119.008 30.2389 119.312 29.7589 119.536C29.2789 119.76 28.7349 119.872 28.1269 119.872H26.4629L26.3669 118.48H28.0309ZM27.8869 113.312C27.8869 113.771 27.9936 114.101 28.2069 114.304C28.4309 114.496 28.8576 114.592 29.4869 114.592H30.7509V113.6C30.7509 112.928 30.6176 112.448 30.3509 112.16C30.0949 111.861 29.7323 111.712 29.2629 111.712C28.8256 111.712 28.4843 111.856 28.2389 112.144C28.0043 112.421 27.8869 112.811 27.8869 113.312ZM36.5277 113.472C36.5277 113.824 36.6397 114.101 36.8637 114.304C37.0984 114.496 37.397 114.592 37.7597 114.592H37.9357C38.1704 114.592 38.2877 114.821 38.2877 115.28C38.2877 115.76 38.1704 116 37.9357 116H37.7597C37.525 116 37.2904 115.957 37.0557 115.872C36.821 115.787 36.6237 115.632 36.4637 115.408V115.744C36.4637 116.341 36.3677 116.891 36.1757 117.392C35.9837 117.904 35.717 118.341 35.3757 118.704C35.045 119.077 34.6504 119.365 34.1917 119.568C33.733 119.771 33.2317 119.872 32.6877 119.872H32.2717L32.1597 118.48H32.4477C32.9384 118.48 33.3544 118.4 33.6957 118.24C34.0477 118.091 34.3357 117.888 34.5597 117.632C34.7837 117.376 34.949 117.083 35.0557 116.752C35.1624 116.432 35.2157 116.096 35.2157 115.744V111.376H36.5277V113.472ZM39.0977 114.592C39.9297 114.592 40.3457 114.203 40.3457 113.424V111.376H41.6577V113.424C41.6577 113.637 41.6897 113.819 41.7537 113.968C41.8284 114.117 41.9244 114.24 42.0417 114.336C42.159 114.421 42.2924 114.485 42.4417 114.528C42.6017 114.571 42.7617 114.592 42.9217 114.592H43.3697C43.615 114.592 43.7377 114.821 43.7377 115.28C43.7377 115.76 43.615 116 43.3697 116H42.8737C42.4897 116 42.127 115.931 41.7857 115.792C41.455 115.653 41.1777 115.381 40.9537 114.976C40.7084 115.381 40.4257 115.653 40.1057 115.792C39.7964 115.931 39.4604 116 39.0977 116H37.9297C37.791 116 37.7004 115.947 37.6577 115.84C37.6044 115.723 37.5777 115.552 37.5777 115.328C37.5777 115.072 37.6044 114.885 37.6577 114.768C37.7004 114.651 37.791 114.592 37.9297 114.592H39.0977ZM42.6017 109.408H41.1457V108.064H42.6017V109.408ZM40.4577 109.408H39.0017V108.064H40.4577V109.408ZM47.4632 114.592C47.8579 114.592 48.1299 114.512 48.2792 114.352C48.4285 114.192 48.5032 113.995 48.5032 113.76C48.5032 113.589 48.4712 113.413 48.4072 113.232C48.3539 113.04 48.2045 112.821 47.9592 112.576L44.6952 109.328V107.872L50.0072 105.824L50.3112 107.136L45.9912 108.784L48.6312 111.44C49.1432 111.952 49.5805 112.389 49.9432 112.752C50.3165 113.104 50.6365 113.397 50.9032 113.632C51.1699 113.867 51.3992 114.048 51.5912 114.176C51.7939 114.304 51.9752 114.4 52.1352 114.464C52.2952 114.528 52.4552 114.565 52.6152 114.576C52.7752 114.587 52.9512 114.592 53.1432 114.592C53.2819 114.592 53.3725 114.651 53.4152 114.768C53.4685 114.875 53.4952 115.045 53.4952 115.28C53.4952 115.525 53.4685 115.707 53.4152 115.824C53.3725 115.941 53.2819 116 53.1432 116C52.8339 116 52.5512 115.979 52.2952 115.936C52.0499 115.893 51.8045 115.808 51.5592 115.68C51.3139 115.552 51.0472 115.371 50.7592 115.136C50.4712 114.901 50.1352 114.592 49.7512 114.208C49.7512 114.528 49.6925 114.8 49.5752 115.024C49.4579 115.248 49.3032 115.435 49.1112 115.584C48.9192 115.723 48.6952 115.829 48.4392 115.904C48.1832 115.968 47.9059 116 47.6072 116H43.3672C43.2285 116 43.1379 115.947 43.0952 115.84C43.0419 115.723 43.0152 115.552 43.0152 115.328C43.0152 115.072 43.0419 114.885 43.0952 114.768C43.1379 114.651 43.2285 114.592 43.3672 114.592H47.4632ZM53.5484 114.592C53.9324 114.592 54.2311 114.491 54.4444 114.288C54.6684 114.085 54.7804 113.797 54.7804 113.424V106.08H56.0924V113.488C56.0924 114.299 55.8738 114.923 55.4364 115.36C55.0098 115.787 54.4124 116 53.6444 116H53.1484C53.0098 116 52.9191 115.947 52.8764 115.84C52.8231 115.723 52.7964 115.552 52.7964 115.328C52.7964 115.072 52.8231 114.885 52.8764 114.768C52.9191 114.651 53.0098 114.592 53.1484 114.592H53.5484ZM58.2204 106.08H59.5324V116H58.2204V106.08ZM71.8409 114.592C72.6623 114.592 73.0729 114.203 73.0729 113.424V111.376H74.3849V113.424C74.3849 113.637 74.4223 113.819 74.4969 113.968C74.5716 114.117 74.6676 114.24 74.7849 114.336C74.9023 114.421 75.0356 114.485 75.1849 114.528C75.3449 114.571 75.5049 114.592 75.6649 114.592H75.9529C76.0916 114.592 76.1823 114.651 76.2249 114.768C76.2783 114.875 76.3049 115.045 76.3049 115.28C76.3049 115.525 76.2783 115.707 76.2249 115.824C76.1823 115.941 76.0916 116 75.9529 116H75.6329C75.2383 116 74.8703 115.931 74.5289 115.792C74.1983 115.653 73.9209 115.381 73.6969 114.976C73.4516 115.381 73.1689 115.653 72.8489 115.792C72.5289 115.931 72.1929 116 71.8409 116H66.2889C65.8516 116 65.4729 115.936 65.1529 115.808C64.8436 115.669 64.5876 115.488 64.3849 115.264C64.1929 115.04 64.0489 114.779 63.9529 114.48C63.8676 114.181 63.8249 113.867 63.8249 113.536V111.328H65.1369V113.216C65.1369 113.632 65.2383 113.968 65.4409 114.224C65.6436 114.469 66.0276 114.592 66.5929 114.592H71.8409ZM70.8969 110.016H69.4409V108.672H70.8969V110.016ZM68.7529 110.016H67.2969V108.672H68.7529V110.016ZM80.5533 115.072C80.276 115.243 80.004 115.387 79.7373 115.504C79.4706 115.621 79.1826 115.717 78.8733 115.792C78.5746 115.867 78.244 115.92 77.8813 115.952C77.5186 115.984 77.1026 116 76.6333 116H75.9453C75.8066 116 75.716 115.947 75.6733 115.84C75.62 115.723 75.5933 115.552 75.5933 115.328C75.5933 115.072 75.62 114.885 75.6733 114.768C75.716 114.651 75.8066 114.592 75.9453 114.592H76.6813C77.0866 114.592 77.444 114.581 77.7533 114.56C78.0733 114.539 78.3666 114.501 78.6333 114.448C78.9 114.395 79.1506 114.325 79.3853 114.24C79.62 114.144 79.86 114.027 80.1053 113.888L82.4893 112.512C82.404 112.32 82.3186 112.155 82.2333 112.016C82.1586 111.867 82.0573 111.739 81.9293 111.632C81.8013 111.525 81.6466 111.445 81.4653 111.392C81.284 111.339 81.0546 111.312 80.7773 111.312H77.2893L77.3853 109.904H80.9693C81.2573 109.904 81.5453 109.941 81.8333 110.016C82.132 110.091 82.4093 110.24 82.6653 110.464C82.932 110.688 83.1773 111.008 83.4013 111.424C83.6253 111.84 83.812 112.389 83.9613 113.072L80.5533 115.072ZM80.7293 108.16H79.1613V106.784H80.7293V108.16ZM85.7673 106.08H87.0793V116H85.7673V106.08ZM94.8044 112.096C95.0818 112.416 95.2844 112.736 95.4124 113.056C95.5404 113.365 95.6044 113.669 95.6044 113.968C95.6044 114.256 95.5511 114.523 95.4444 114.768C95.3378 115.013 95.1831 115.227 94.9804 115.408C94.7884 115.589 94.5431 115.733 94.2444 115.84C93.9458 115.947 93.6044 116 93.2204 116H88.8364L88.7564 114.592H93.0284C93.3698 114.592 93.6311 114.517 93.8124 114.368C93.9938 114.208 94.0844 114.005 94.0844 113.76C94.0844 113.483 93.9618 113.211 93.7164 112.944L90.8684 109.696L91.8924 108.736L94.8044 112.096ZM99.1828 115.744C99.1828 116.341 99.0868 116.891 98.8948 117.392C98.7028 117.904 98.4361 118.341 98.0948 118.704C97.7641 119.077 97.3641 119.365 96.8948 119.568C96.4361 119.771 95.9348 119.872 95.3908 119.872H94.4148L94.3348 118.48H95.0708C95.5828 118.48 96.0201 118.4 96.3828 118.24C96.7348 118.091 97.0228 117.888 97.2468 117.632C97.4815 117.376 97.6521 117.083 97.7588 116.752C97.8655 116.432 97.9188 116.096 97.9188 115.744V111.376H99.2308V113.472C99.2308 113.824 99.3428 114.101 99.5668 114.304C99.8015 114.496 100.105 114.592 100.479 114.592H100.655C100.889 114.592 101.007 114.821 101.007 115.28C101.007 115.76 100.889 116 100.655 116H100.479C100.244 116 100.009 115.957 99.7748 115.872C99.5401 115.787 99.3428 115.632 99.1828 115.408V115.744ZM102.104 114.592C102.488 114.592 102.787 114.491 103 114.288C103.224 114.085 103.336 113.797 103.336 113.424V111.376H104.648V113.488C104.648 114.299 104.43 114.923 103.992 115.36C103.566 115.787 102.968 116 102.2 116H100.648C100.51 116 100.419 115.947 100.376 115.84C100.323 115.723 100.296 115.552 100.296 115.328C100.296 115.072 100.323 114.885 100.376 114.768C100.419 114.651 100.51 114.592 100.648 114.592H102.104ZM103.304 121.232H101.832V119.888H103.304V121.232ZM104.36 119.168H102.904V117.824H104.36V119.168ZM102.216 119.168H100.76V117.824H102.216V119.168Z" fill="white"/>
<path d="M81.875 61.25V55.125C81.875 51.7422 79.1328 49 75.75 49C72.3672 49 69.625 51.7422 69.625 55.125V61.25M88 35H18M88 38.5V28.7C88 24.7796 88 22.8194 87.237 21.3221C86.566 20.005 85.4951 18.9341 84.178 18.263C82.6807 17.5 80.7203 17.5 76.8 17.5H29.2C25.2796 17.5 23.3194 17.5 21.8221 18.263C20.505 18.9341 19.4341 20.0049 18.763 21.3221C18 22.8194 18 24.7796 18 28.7V55.3C18 59.2203 18 61.1807 18.763 62.678C19.4341 63.9951 20.5049 65.066 21.8221 65.737C23.3194 66.5 25.2796 66.5 29.2 66.5H49.5M69.1 75.25H82.4C84.3604 75.25 85.3404 75.25 86.089 74.8685C86.7477 74.5329 87.2828 73.9977 87.6185 73.339C88 72.5904 88 71.6103 88 69.65V66.85C88 64.8897 88 63.9096 87.6185 63.161C87.2828 62.5023 86.7477 61.9671 86.089 61.6315C85.3404 61.25 84.3604 61.25 82.4 61.25H69.1C67.1397 61.25 66.1596 61.25 65.411 61.6315C64.7523 61.9671 64.2172 62.5023 63.8815 63.161C63.5 63.9096 63.5 64.8897 63.5 66.85V69.65C63.5 71.6103 63.5 72.5904 63.8815 73.339C64.2172 73.9977 64.7523 74.5329 65.411 74.8685C66.1596 75.25 67.1397 75.25 69.1 75.25Z" stroke="#333" stroke-width="2.12" stroke-linecap="round" stroke-linejoin="round"/>
</svg>
