<svg width="91" height="132" viewBox="0 0 91 132" fill="none" xmlns="http://www.w3.org/2000/svg">
<path d="M6.78469 109.328V107.872L12.0807 105.824L12.4007 107.136L8.08069 108.784L10.7207 111.44C11.2327 111.952 11.67 112.389 12.0327 112.752C12.406 113.104 12.726 113.397 12.9927 113.632C13.2594 113.867 13.4887 114.048 13.6807 114.176C13.8834 114.304 14.0647 114.4 14.2247 114.464C14.3847 114.528 14.5447 114.565 14.7047 114.576C14.8647 114.587 15.0407 114.592 15.2327 114.592C15.3714 114.592 15.462 114.651 15.5047 114.768C15.558 114.875 15.5847 115.045 15.5847 115.28C15.5847 115.525 15.558 115.707 15.5047 115.824C15.462 115.941 15.3714 116 15.2327 116C14.9234 116 14.6407 115.979 14.3847 115.936C14.1394 115.893 13.894 115.808 13.6487 115.68C13.4034 115.552 13.1367 115.371 12.8487 115.136C12.5607 114.901 12.2194 114.592 11.8247 114.208C11.8247 114.528 11.766 114.8 11.6487 115.024C11.542 115.248 11.3927 115.435 11.2007 115.584C11.0087 115.723 10.7794 115.829 10.5127 115.904C10.2567 115.968 9.98469 116 9.69669 116H3.63269C3.19535 116 2.81669 115.936 2.49669 115.808C2.18735 115.669 1.93135 115.488 1.72869 115.264C1.53669 115.04 1.39269 114.779 1.29669 114.48C1.21135 114.181 1.16869 113.867 1.16869 113.536V111.328H2.48069V113.216C2.48069 113.643 2.58202 113.979 2.78469 114.224C2.98735 114.469 3.37135 114.592 3.93669 114.592H9.55269C9.94735 114.592 10.2194 114.512 10.3687 114.352C10.518 114.192 10.5927 113.995 10.5927 113.76C10.5927 113.589 10.5607 113.413 10.4967 113.232C10.4327 113.04 10.278 112.821 10.0327 112.576L6.78469 109.328ZM16.3946 114.592C17.2266 114.592 17.6426 114.203 17.6426 113.424V111.376H18.9546V113.424C18.9546 113.637 18.9866 113.819 19.0506 113.968C19.1252 114.117 19.2212 114.24 19.3386 114.336C19.4559 114.421 19.5892 114.485 19.7386 114.528C19.8986 114.571 20.0586 114.592 20.2186 114.592H20.6666C20.9119 114.592 21.0346 114.821 21.0346 115.28C21.0346 115.76 20.9119 116 20.6666 116H20.1706C19.7866 116 19.4239 115.931 19.0826 115.792C18.7519 115.653 18.4746 115.381 18.2506 114.976C18.0052 115.381 17.7226 115.653 17.4026 115.792C17.0932 115.931 16.7572 116 16.3946 116H15.2266C15.0879 116 14.9972 115.947 14.9546 115.84C14.9012 115.723 14.8746 115.552 14.8746 115.328C14.8746 115.072 14.9012 114.885 14.9546 114.768C14.9972 114.651 15.0879 114.592 15.2266 114.592H16.3946ZM19.7066 119.168H18.2986V117.824H19.7066V119.168ZM17.5306 119.168H16.1066V117.824H17.5306V119.168ZM22.1201 114.592C22.5041 114.592 22.8027 114.491 23.0161 114.288C23.2401 114.085 23.3521 113.797 23.3521 113.424V111.376H24.6641V113.488C24.6641 114.299 24.4454 114.923 24.0081 115.36C23.5814 115.787 22.9841 116 22.2161 116H20.6641C20.5254 116 20.4347 115.947 20.3921 115.84C20.3387 115.723 20.3121 115.552 20.3121 115.328C20.3121 115.072 20.3387 114.885 20.3921 114.768C20.4347 114.651 20.5254 114.592 20.6641 114.592H22.1201ZM24.2161 109.408H22.6481V108.032H24.2161V109.408ZM27.8591 118.48C28.2964 118.48 28.6804 118.411 29.0111 118.272C29.3417 118.144 29.6137 117.968 29.8271 117.744C30.0511 117.52 30.2217 117.259 30.3391 116.96C30.4564 116.661 30.5257 116.341 30.5471 116H29.1871C28.6431 116 28.1951 115.941 27.8431 115.824C27.4911 115.707 27.2137 115.536 27.0111 115.312C26.8084 115.088 26.6644 114.816 26.5791 114.496C26.5044 114.165 26.4671 113.797 26.4671 113.392C26.4671 112.987 26.5257 112.603 26.6431 112.24C26.7604 111.867 26.9311 111.541 27.1551 111.264C27.3791 110.987 27.6564 110.768 27.9871 110.608C28.3284 110.437 28.7231 110.352 29.1711 110.352C29.5231 110.352 29.8591 110.411 30.1791 110.528C30.5097 110.645 30.7977 110.832 31.0431 111.088C31.2884 111.333 31.4804 111.659 31.6191 112.064C31.7684 112.469 31.8431 112.96 31.8431 113.536V115.744C31.8431 116.288 31.7524 116.811 31.5711 117.312C31.4004 117.813 31.1444 118.251 30.8031 118.624C30.4724 119.008 30.0671 119.312 29.5871 119.536C29.1071 119.76 28.5631 119.872 27.9551 119.872H26.2911L26.1951 118.48H27.8591ZM27.7151 113.312C27.7151 113.771 27.8217 114.101 28.0351 114.304C28.2591 114.496 28.6857 114.592 29.3151 114.592H30.5791V113.6C30.5791 112.928 30.4457 112.448 30.1791 112.16C29.9231 111.861 29.5604 111.712 29.0911 111.712C28.6537 111.712 28.3124 111.856 28.0671 112.144C27.8324 112.421 27.7151 112.811 27.7151 113.312ZM36.3558 113.472C36.3558 113.824 36.4678 114.101 36.6918 114.304C36.9265 114.496 37.2251 114.592 37.5878 114.592H37.7638C37.9985 114.592 38.1158 114.821 38.1158 115.28C38.1158 115.76 37.9985 116 37.7638 116H37.5878C37.3531 116 37.1185 115.957 36.8838 115.872C36.6491 115.787 36.4518 115.632 36.2918 115.408V115.744C36.2918 116.341 36.1958 116.891 36.0038 117.392C35.8118 117.904 35.5451 118.341 35.2038 118.704C34.8731 119.077 34.4785 119.365 34.0198 119.568C33.5611 119.771 33.0598 119.872 32.5158 119.872H32.0998L31.9878 118.48H32.2758C32.7665 118.48 33.1825 118.4 33.5238 118.24C33.8758 118.091 34.1638 117.888 34.3878 117.632C34.6118 117.376 34.7771 117.083 34.8838 116.752C34.9905 116.432 35.0438 116.096 35.0438 115.744V111.376H36.3558V113.472ZM38.9258 114.592C39.7578 114.592 40.1738 114.203 40.1738 113.424V111.376H41.4858V113.424C41.4858 113.637 41.5178 113.819 41.5818 113.968C41.6565 114.117 41.7525 114.24 41.8698 114.336C41.9871 114.421 42.1205 114.485 42.2698 114.528C42.4298 114.571 42.5898 114.592 42.7498 114.592H43.1978C43.4431 114.592 43.5658 114.821 43.5658 115.28C43.5658 115.76 43.4431 116 43.1978 116H42.7018C42.3178 116 41.9551 115.931 41.6138 115.792C41.2831 115.653 41.0058 115.381 40.7818 114.976C40.5365 115.381 40.2538 115.653 39.9338 115.792C39.6245 115.931 39.2885 116 38.9258 116H37.7578C37.6191 116 37.5285 115.947 37.4858 115.84C37.4325 115.723 37.4058 115.552 37.4058 115.328C37.4058 115.072 37.4325 114.885 37.4858 114.768C37.5285 114.651 37.6191 114.592 37.7578 114.592H38.9258ZM42.4298 109.408H40.9738V108.064H42.4298V109.408ZM40.2858 109.408H38.8298V108.064H40.2858V109.408ZM47.2913 114.592C47.686 114.592 47.958 114.512 48.1073 114.352C48.2566 114.192 48.3313 113.995 48.3313 113.76C48.3313 113.589 48.2993 113.413 48.2353 113.232C48.182 113.04 48.0326 112.821 47.7873 112.576L44.5233 109.328V107.872L49.8353 105.824L50.1393 107.136L45.8193 108.784L48.4593 111.44C48.9713 111.952 49.4086 112.389 49.7713 112.752C50.1446 113.104 50.4646 113.397 50.7313 113.632C50.998 113.867 51.2273 114.048 51.4193 114.176C51.622 114.304 51.8033 114.4 51.9633 114.464C52.1233 114.528 52.2833 114.565 52.4433 114.576C52.6033 114.587 52.7793 114.592 52.9713 114.592C53.11 114.592 53.2006 114.651 53.2433 114.768C53.2966 114.875 53.3233 115.045 53.3233 115.28C53.3233 115.525 53.2966 115.707 53.2433 115.824C53.2006 115.941 53.11 116 52.9713 116C52.662 116 52.3793 115.979 52.1233 115.936C51.878 115.893 51.6326 115.808 51.3873 115.68C51.142 115.552 50.8753 115.371 50.5873 115.136C50.2993 114.901 49.9633 114.592 49.5793 114.208C49.5793 114.528 49.5206 114.8 49.4033 115.024C49.286 115.248 49.1313 115.435 48.9393 115.584C48.7473 115.723 48.5233 115.829 48.2673 115.904C48.0113 115.968 47.734 116 47.4353 116H43.1953C43.0566 116 42.966 115.947 42.9233 115.84C42.87 115.723 42.8433 115.552 42.8433 115.328C42.8433 115.072 42.87 114.885 42.9233 114.768C42.966 114.651 43.0566 114.592 43.1953 114.592H47.2913ZM53.3766 114.592C53.7606 114.592 54.0592 114.491 54.2726 114.288C54.4966 114.085 54.6086 113.797 54.6086 113.424V106.08H55.9206V113.488C55.9206 114.299 55.7019 114.923 55.2646 115.36C54.8379 115.787 54.2406 116 53.4726 116H52.9766C52.8379 116 52.7472 115.947 52.7046 115.84C52.6512 115.723 52.6246 115.552 52.6246 115.328C52.6246 115.072 52.6512 114.885 52.7046 114.768C52.7472 114.651 52.8379 114.592 52.9766 114.592H53.3766ZM58.0486 106.08H59.3606V116H58.0486V106.08ZM66.0371 116C65.7491 116 65.4717 115.963 65.2051 115.888C64.9384 115.803 64.7037 115.664 64.5011 115.472C64.3091 115.28 64.1544 115.029 64.0371 114.72C63.9197 114.4 63.8611 114.005 63.8611 113.536V106.08H65.1731V113.248C65.1731 113.653 65.2584 113.979 65.4291 114.224C65.6104 114.469 65.8931 114.592 66.2771 114.592H66.5971C66.8317 114.592 66.9491 114.821 66.9491 115.28C66.9491 115.76 66.8317 116 66.5971 116H66.0371ZM70.7776 114.56C71.2362 113.739 71.6682 113.04 72.0736 112.464C72.4789 111.877 72.8736 111.403 73.2576 111.04C73.6416 110.667 74.0149 110.395 74.3776 110.224C74.7402 110.053 75.1082 109.968 75.4816 109.968C75.8976 109.968 76.2762 110.048 76.6176 110.208C76.9696 110.368 77.2629 110.587 77.4976 110.864C77.7429 111.141 77.9296 111.467 78.0576 111.84C78.1962 112.213 78.2656 112.613 78.2656 113.04C78.2656 113.456 78.1642 113.851 77.9616 114.224C78.1642 114.395 78.3829 114.501 78.6176 114.544C78.8522 114.576 79.1082 114.592 79.3856 114.592H79.6096C79.8442 114.592 79.9616 114.821 79.9616 115.28C79.9616 115.76 79.8442 116 79.6096 116H79.3856C79.2256 116 79.0602 116 78.8896 116C78.7296 115.989 78.5642 115.963 78.3936 115.92C78.2229 115.867 78.0522 115.797 77.8816 115.712C77.7109 115.616 77.5402 115.477 77.3696 115.296C77.1242 115.509 76.8362 115.68 76.5056 115.808C76.1856 115.936 75.8122 116 75.3856 116H71.0016C70.5962 116 70.2176 115.931 69.8656 115.792C69.5242 115.653 69.2416 115.381 69.0176 114.976C68.7722 115.381 68.4842 115.653 68.1536 115.792C67.8229 115.931 67.4709 116 67.0976 116H66.6016C66.4629 116 66.3722 115.947 66.3296 115.84C66.2762 115.723 66.2496 115.552 66.2496 115.328C66.2496 115.072 66.2762 114.885 66.3296 114.768C66.3722 114.651 66.4629 114.592 66.6016 114.592H67.1296C67.9829 114.592 68.4096 114.203 68.4096 113.424V111.376H69.7216V113.424C69.7216 113.765 69.8176 114.032 70.0096 114.224C70.2122 114.405 70.4682 114.517 70.7776 114.56ZM76.9376 113.04C76.9376 112.816 76.9002 112.603 76.8256 112.4C76.7509 112.197 76.6442 112.021 76.5056 111.872C76.3776 111.723 76.2176 111.605 76.0256 111.52C75.8336 111.424 75.6202 111.376 75.3856 111.376C74.9056 111.376 74.3989 111.627 73.8656 112.128C73.3429 112.629 72.7456 113.451 72.0736 114.592H75.4336C75.8389 114.592 76.1909 114.469 76.4896 114.224C76.7882 113.968 76.9376 113.573 76.9376 113.04ZM75.6096 108.288H74.0416V106.912H75.6096V108.288ZM79.8252 114.592C80.6359 114.592 81.0412 114.251 81.0412 113.568V113.072C81.0412 112.165 81.2759 111.451 81.7452 110.928C82.2252 110.395 82.8865 110.128 83.7292 110.128C84.1665 110.128 84.5505 110.203 84.8812 110.352C85.2119 110.491 85.4892 110.688 85.7132 110.944C85.9372 111.2 86.1025 111.509 86.2092 111.872C86.3265 112.224 86.3852 112.613 86.3852 113.04C86.3852 113.979 86.1452 114.709 85.6652 115.232C85.1852 115.744 84.5239 116 83.6812 116C83.2545 116 82.8439 115.92 82.4492 115.76C82.0652 115.589 81.7665 115.307 81.5532 114.912C81.4572 115.136 81.3399 115.323 81.2012 115.472C81.0625 115.611 80.9185 115.723 80.7692 115.808C80.6199 115.883 80.4599 115.936 80.2892 115.968C80.1292 115.989 79.9745 116 79.8252 116H79.6172C79.4785 116 79.3879 115.947 79.3452 115.84C79.2919 115.723 79.2652 115.552 79.2652 115.328C79.2652 115.072 79.2919 114.885 79.3452 114.768C79.3879 114.651 79.4785 114.592 79.6172 114.592H79.8252ZM85.1052 113.136C85.1052 112.667 84.9985 112.283 84.7852 111.984C84.5825 111.685 84.2199 111.536 83.6972 111.536C83.2172 111.536 82.8599 111.68 82.6252 111.968C82.4012 112.256 82.2892 112.661 82.2892 113.184C82.2892 113.653 82.4172 114.005 82.6732 114.24C82.9399 114.475 83.2759 114.592 83.6812 114.592C84.1612 114.592 84.5185 114.469 84.7532 114.224C84.9879 113.968 85.1052 113.605 85.1052 113.136ZM88.3142 106.08H89.6262V116H88.3142V106.08Z" fill="white"/>
<path d="M10 35H80V28.7C80 24.7796 80 22.8194 79.237 21.3221C78.566 20.005 77.4951 18.9341 76.178 18.263C74.6807 17.5 72.7203 17.5 68.8 17.5H21.2C17.2796 17.5 15.3194 17.5 13.8221 18.263C12.505 18.9341 11.4341 20.0049 10.763 21.3221C10 22.8194 10 24.7796 10 28.7V55.3C10 59.2204 10 61.1807 10.763 62.678C11.4341 63.9951 12.5049 65.066 13.8221 65.737C15.3194 66.5 17.2796 66.5 21.2 66.5H41.5M53.75 73.5L60.8375 72.0825C61.4552 71.9589 61.7643 71.897 62.0524 71.784C62.3082 71.6839 62.5515 71.5537 62.7765 71.3965C63.0306 71.2194 63.2532 70.9968 63.6991 70.5509L78.25 56C80.183 54.067 80.183 50.933 78.25 49C76.317 47.067 73.183 47.067 71.25 49L56.6991 63.5509C56.2532 63.9968 56.0306 64.2194 55.8535 64.4735C55.6963 64.6985 55.5662 64.9418 55.4661 65.1976C55.353 65.4857 55.291 65.7948 55.1675 66.4125L53.75 73.5Z" stroke="white" stroke-width="2.12" stroke-linecap="round" stroke-linejoin="round"/>
</svg>
