<svg width="27" height="27" viewBox="0 0 27 27" fill="none" xmlns="http://www.w3.org/2000/svg">
<path d="M16.5621 5.5C17.783 5.73821 18.905 6.33533 19.7846 7.21493C20.6642 8.09451 21.2614 9.21657 21.4996 10.4375M16.5621 0.5C19.0986 0.7818 21.4641 1.91771 23.2699 3.72126C25.0757 5.5248 26.2146 7.88876 26.4996 10.425M11.7832 15.3289C10.2813 13.8269 9.09533 12.1285 8.22535 10.3165C8.15051 10.1607 8.1131 10.0827 8.08435 9.98413C7.9822 9.63369 8.05557 9.20336 8.26808 8.90657C8.32788 8.82306 8.39933 8.75161 8.54222 8.60873C8.97922 8.17171 9.19773 7.95321 9.34058 7.73349C9.87933 6.90487 9.87933 5.83665 9.34058 5.00804C9.19773 4.78831 8.97922 4.56981 8.54222 4.1328L8.29863 3.88921C7.63433 3.22491 7.30217 2.89276 6.94545 2.71234C6.236 2.3535 5.39817 2.3535 4.68872 2.71234C4.332 2.89276 3.99983 3.22491 3.33553 3.88921L3.1385 4.08626C2.47646 4.74829 2.14545 5.0793 1.89263 5.52935C1.61211 6.02872 1.41041 6.80434 1.41212 7.37712C1.41365 7.8933 1.51378 8.24609 1.71405 8.95164C2.79026 12.7434 4.82085 16.3214 7.80582 19.3063C10.7908 22.2913 14.3687 24.3219 18.1605 25.3981C18.866 25.5984 19.2189 25.6985 19.735 25.7C20.3077 25.7017 21.0834 25.5 21.5827 25.2195C22.0329 24.9666 22.3639 24.6356 23.0259 23.9736L23.2229 23.7766C23.8872 23.1122 24.2194 22.7801 24.3997 22.4234C24.7586 21.714 24.7586 20.8761 24.3997 20.1666C24.2194 19.81 23.8872 19.4778 23.2229 18.8135L22.9794 18.5699C22.5424 18.1329 22.3239 17.9144 22.1041 17.7715C21.2755 17.2327 20.2072 17.2327 19.3786 17.7715C19.1589 17.9144 18.9404 18.1329 18.5034 18.5699C18.3605 18.7128 18.2891 18.7842 18.2055 18.844C17.9087 19.0566 17.4785 19.13 17.128 19.0278C17.0294 18.999 16.9515 18.9616 16.7956 18.8868C14.9836 18.0168 13.2852 16.8308 11.7832 15.3289Z" stroke="#333" stroke-linecap="round" stroke-linejoin="round"/>
</svg>
