<svg width="89" height="89" viewBox="0 0 89 89" fill="none" xmlns="http://www.w3.org/2000/svg">
<g clip-path="url(#clip0_356_5313)">
<path d="M44.5 7.41699C48.1672 7.41699 51.752 8.50444 54.8012 10.5418C57.8503 12.5792 60.2269 15.475 61.6302 18.8631C63.0336 22.2511 63.4008 25.9792 62.6854 29.576C61.9699 33.1727 60.204 36.4765 57.6109 39.0696C55.0178 41.6627 51.714 43.4286 48.1173 44.1441C44.5205 44.8595 40.7924 44.4923 37.4044 43.0889C34.0163 41.6856 31.1205 39.309 29.0831 36.2599C27.0458 33.2107 25.9583 29.6259 25.9583 25.9587L25.9769 25.1539C26.1842 20.3804 28.2264 15.8712 31.6774 12.5666C35.1284 9.26204 39.7219 7.41727 44.5 7.41699Z" fill="#777777"/>
<path d="M51.9167 51.917C56.8342 51.917 61.5504 53.8705 65.0276 57.3477C68.5049 60.825 70.4584 65.5411 70.4584 70.4587V74.167C70.4584 76.134 69.677 78.0205 68.2861 79.4114C66.8952 80.8023 65.0087 81.5837 63.0417 81.5837H25.9584C23.9913 81.5837 22.1049 80.8023 20.714 79.4114C19.3231 78.0205 18.5417 76.134 18.5417 74.167V70.4587C18.5417 65.5411 20.4952 60.825 23.9724 57.3477C27.4497 53.8705 32.1658 51.917 37.0834 51.917H51.9167Z" fill="#777777"/>
</g>
<defs>
<clipPath id="clip0_356_5313">
<rect width="89" height="89" fill="white"/>
</clipPath>
</defs>
</svg>
